<svg width="17" height="16" viewBox="0 0 17 16" fill="none" xmlns="http://www.w3.org/2000/svg">
<path d="M12.1218 0.111328H4.71531C2.30479 0.111328 0.34375 1.99548 0.34375 4.31148V11.4277C0.34375 13.7436 2.30479 15.6277 4.71531 15.6277H12.1219C14.5323 15.6277 16.4934 13.7436 16.4934 11.4277V4.31148C16.4934 1.99548 14.5323 0.111328 12.1218 0.111328V0.111328ZM8.41856 12.1122C5.98365 12.1122 4.00277 10.209 4.00277 7.86954C4.00277 5.53009 5.98365 3.62688 8.41856 3.62688C10.8535 3.62688 12.8344 5.53009 12.8344 7.86954C12.8344 10.209 10.8535 12.1122 8.41856 12.1122ZM12.9399 4.62744C12.2204 4.62744 11.6351 4.06513 11.6351 3.37379C11.6351 2.68244 12.2204 2.12001 12.9399 2.12001C13.6595 2.12001 14.2449 2.68244 14.2449 3.37379C14.2449 4.06513 13.6595 4.62744 12.9399 4.62744Z" fill="#6F7C82"/>
<path d="M8.42215 4.53711C6.50941 4.53711 4.95312 6.03226 4.95312 7.87012C4.95312 9.70787 6.50941 11.2031 8.42215 11.2031C10.335 11.2031 11.8912 9.70787 11.8912 7.87012C11.8912 6.03226 10.335 4.53711 8.42215 4.53711Z" fill="#6F7C82"/>
<path d="M12.9354 3.03027C12.7385 3.03027 12.5781 3.18489 12.5781 3.37484C12.5781 3.56478 12.7385 3.7194 12.9354 3.7194C13.1326 3.7194 13.2929 3.5649 13.2929 3.37484C13.2929 3.18477 13.1326 3.03027 12.9354 3.03027Z" fill="#6F7C82"/>
</svg>
