<svg width="19" height="21" viewBox="0 0 19 21" fill="none" xmlns="http://www.w3.org/2000/svg">
<path d="M13.5714 0.882324H5.07647C2.31172 0.882324 0.0625 3.20828 0.0625 6.06735V14.8522C0.0625 17.7111 2.31172 20.0371 5.07647 20.0371H13.5715C16.3361 20.0371 18.5854 17.7111 18.5854 14.8522V6.06735C18.5854 3.20828 16.3361 0.882324 13.5714 0.882324V0.882324ZM9.32393 15.6972C6.5312 15.6972 4.25923 13.3477 4.25923 10.4597C4.25923 7.5717 6.5312 5.22222 9.32393 5.22222C12.1167 5.22222 14.3886 7.5717 14.3886 10.4597C14.3886 13.3477 12.1167 15.6972 9.32393 15.6972ZM14.5097 6.45739C13.6844 6.45739 13.0132 5.76323 13.0132 4.90978C13.0132 4.05632 13.6844 3.36202 14.5097 3.36202C15.335 3.36202 16.0064 4.05632 16.0064 4.90978C16.0064 5.76323 15.335 6.45739 14.5097 6.45739Z" fill="#353535"/>
<path d="M9.32256 6.3457C7.12874 6.3457 5.34375 8.19144 5.34375 10.4603C5.34375 12.7289 7.12874 14.5748 9.32256 14.5748C11.5165 14.5748 13.3014 12.7289 13.3014 10.4603C13.3014 8.19144 11.5165 6.3457 9.32256 6.3457Z" fill="#353535"/>
<path d="M14.5124 4.48486C14.2859 4.48486 14.1016 4.67551 14.1016 4.90971C14.1016 5.14392 14.2859 5.33456 14.5124 5.33456C14.739 5.33456 14.9234 5.14407 14.9234 4.90971C14.9234 4.67536 14.739 4.48486 14.5124 4.48486Z" fill="#353535"/>
</svg>
