<svg width="16" height="15" viewBox="0 0 16 15" fill="none" xmlns="http://www.w3.org/2000/svg">
<path d="M11.5268 0H4.53376C2.25781 0 0.40625 1.78544 0.40625 3.9801V10.7235C0.40625 12.9181 2.25781 14.7035 4.53376 14.7035H11.5269C13.8028 14.7035 15.6543 12.9181 15.6543 10.7235V3.9801C15.6543 1.78544 13.8028 0 11.5268 0V0ZM8.03028 11.3721C5.7313 11.3721 3.86101 9.56863 3.86101 7.35175C3.86101 5.13487 5.7313 3.33137 8.03028 3.33137C10.3293 3.33137 12.1996 5.13487 12.1996 7.35175C12.1996 9.56863 10.3293 11.3721 8.03028 11.3721ZM12.2993 4.27951C11.6199 4.27951 11.0673 3.74666 11.0673 3.09154C11.0673 2.43641 11.6199 1.90345 12.2993 1.90345C12.9786 1.90345 13.5313 2.43641 13.5313 3.09154C13.5313 3.74666 12.9786 4.27951 12.2993 4.27951Z" fill="#6F7C82"/>
<path d="M8.03318 4.19336C6.22722 4.19336 4.75781 5.61018 4.75781 7.35175C4.75781 9.09321 6.22722 10.5101 8.03318 10.5101C9.83926 10.5101 11.3086 9.09321 11.3086 7.35175C11.3086 5.61018 9.83926 4.19336 8.03318 4.19336Z" fill="#6F7C82"/>
<path d="M12.299 2.76562C12.1126 2.76562 11.9609 2.91191 11.9609 3.09162C11.9609 3.27133 12.1126 3.41761 12.299 3.41761C12.4855 3.41761 12.6372 3.27144 12.6372 3.09162C12.6372 2.91179 12.4855 2.76562 12.299 2.76562Z" fill="#6F7C82"/>
</svg>
