<svg width="531" height="195" viewBox="0 0 531 195" fill="none" xmlns="http://www.w3.org/2000/svg">
<rect y="0.0356445" width="530.182" height="194.4" fill="white"/>
<rect y="13.29" width="269.509" height="29.4545" fill="#004CAA"/>
<path d="M34.6711 35.907C33.7089 35.907 32.8429 35.7421 32.0732 35.4122C31.3034 35.0685 30.6986 34.5875 30.2588 33.9689C29.8189 33.3504 29.599 32.6287 29.599 31.804H32.1144C32.1694 32.4225 32.41 32.9311 32.8361 33.3297C33.2759 33.7284 33.8876 33.9277 34.6711 33.9277C35.4821 33.9277 36.1144 33.7352 36.568 33.3504C37.0216 32.9517 37.2484 32.4432 37.2484 31.8246C37.2484 31.3435 37.104 30.9518 36.8154 30.6494C36.5405 30.347 36.19 30.1133 35.7638 29.9484C35.3515 29.7834 34.7742 29.6047 34.0319 29.4123C33.0972 29.1649 32.3344 28.9175 31.7433 28.67C31.166 28.4089 30.6712 28.0103 30.2588 27.4742C29.8464 26.9381 29.6402 26.2233 29.6402 25.3299C29.6402 24.5052 29.8464 23.7835 30.2588 23.165C30.6712 22.5464 31.2485 22.0722 31.9907 21.7423C32.733 21.4124 33.5921 21.2475 34.568 21.2475C35.9563 21.2475 37.0903 21.598 37.97 22.299C38.8634 22.9863 39.3583 23.9347 39.4545 25.1443H36.8566C36.8154 24.622 36.568 24.1753 36.1144 23.8041C35.6608 23.433 35.0628 23.2475 34.3206 23.2475C33.647 23.2475 33.0972 23.4193 32.6711 23.7629C32.245 24.1065 32.032 24.6014 32.032 25.2474C32.032 25.6873 32.1625 26.0515 32.4237 26.3402C32.6986 26.6151 33.0422 26.835 33.4546 27C33.867 27.1649 34.4305 27.3436 35.1453 27.536C36.0937 27.7972 36.8635 28.0584 37.4545 28.3195C38.0593 28.5807 38.5679 28.9862 38.9803 29.536C39.4064 30.0721 39.6194 30.7937 39.6194 31.7009C39.6194 32.4294 39.4201 33.1167 39.0215 33.7627C38.6366 34.4088 38.0662 34.9311 37.3102 35.3297C36.568 35.7146 35.6882 35.907 34.6711 35.907ZM41.6094 30.0308C41.6094 28.89 41.8431 27.8797 42.3104 27C42.7915 26.1203 43.4376 25.4399 44.2485 24.9588C45.0733 24.4639 45.9805 24.2165 46.9701 24.2165C47.8636 24.2165 48.6402 24.3952 49.3 24.7526C49.9735 25.0962 50.5096 25.5292 50.9082 26.0515V24.4021H53.2793V35.7627H50.9082V34.072C50.5096 34.6081 49.9667 35.0548 49.2794 35.4122C48.5921 35.7696 47.8086 35.9483 46.9289 35.9483C45.953 35.9483 45.0595 35.7008 44.2485 35.206C43.4376 34.6974 42.7915 33.9964 42.3104 33.1029C41.8431 32.1957 41.6094 31.1717 41.6094 30.0308ZM50.9082 30.0721C50.9082 29.2886 50.7433 28.6082 50.4134 28.0309C50.0972 27.4536 49.678 27.0137 49.1557 26.7113C48.6333 26.4089 48.0698 26.2577 47.465 26.2577C46.8602 26.2577 46.2966 26.4089 45.7743 26.7113C45.252 27 44.8259 27.4329 44.496 28.0103C44.1798 28.5738 44.0217 29.2473 44.0217 30.0308C44.0217 30.8143 44.1798 31.5016 44.496 32.0927C44.8259 32.6837 45.252 33.1373 45.7743 33.4535C46.3104 33.7559 46.8739 33.9071 47.465 33.9071C48.0698 33.9071 48.6333 33.7559 49.1557 33.4535C49.678 33.1511 50.0972 32.7112 50.4134 32.1339C50.7433 31.5428 50.9082 30.8556 50.9082 30.0721ZM61.1294 26.3196H59.0263V35.7627H56.6552V26.3196H55.315V24.4021H56.6552V23.598C56.6552 22.2921 56.9989 21.3437 57.6861 20.7527C58.3871 20.1479 59.4799 19.8455 60.9644 19.8455V21.8042C60.2497 21.8042 59.7479 21.9416 59.4593 22.2165C59.1706 22.4777 59.0263 22.9382 59.0263 23.598V24.4021H61.1294V26.3196ZM73.6246 29.804C73.6246 30.2301 73.5971 30.615 73.5422 30.9587H64.8619C64.9306 31.8659 65.2674 32.5944 65.8722 33.1442C66.477 33.694 67.2192 33.9689 68.099 33.9689C69.3635 33.9689 70.257 33.4397 70.7793 32.3813H73.3154C72.9717 33.426 72.3463 34.2851 71.4391 34.9586C70.5456 35.6184 69.4323 35.9483 68.099 35.9483C67.0131 35.9483 66.0371 35.7077 65.1712 35.2266C64.319 34.7318 63.6454 34.0445 63.1506 33.1648C62.6695 32.2713 62.429 31.2404 62.429 30.0721C62.429 28.9037 62.6626 27.8797 63.13 27C63.6111 26.1065 64.2777 25.4192 65.1299 24.9381C65.9959 24.4571 66.9856 24.2165 68.099 24.2165C69.1711 24.2165 70.1264 24.4502 70.9649 24.9175C71.8034 25.3849 72.4563 26.0447 72.9236 26.8969C73.391 27.7353 73.6246 28.7044 73.6246 29.804ZM71.1711 29.0618C71.1573 28.1958 70.848 27.5017 70.2432 26.9793C69.6384 26.457 68.8893 26.1959 67.9959 26.1959C67.1849 26.1959 66.4907 26.457 65.9134 26.9793C65.3361 27.4879 64.9925 28.1821 64.8825 29.0618H71.1711ZM78.6799 26.3196V32.6081C78.6799 33.0342 78.7762 33.3435 78.9686 33.5359C79.1748 33.7146 79.5184 33.804 79.9995 33.804H81.4428V35.7627H79.5871C78.5287 35.7627 77.7178 35.5153 77.1542 35.0204C76.5906 34.5256 76.3089 33.7215 76.3089 32.6081V26.3196H74.9687V24.4021H76.3089V21.5774H78.6799V24.4021H81.4428V26.3196H78.6799ZM93.8358 24.4021L86.8668 41.1028H84.4339L86.7431 35.5771L82.269 24.4021H84.8875L88.0833 33.0617L91.4028 24.4021H93.8358ZM116.058 21.4331V35.7627H113.707V25.9484L109.336 35.7627H107.708L103.316 25.9484V35.7627H100.965V21.4331H103.501L108.532 32.67L113.543 21.4331H116.058ZM129.559 29.804C129.559 30.2301 129.532 30.615 129.477 30.9587H120.797C120.865 31.8659 121.202 32.5944 121.807 33.1442C122.412 33.694 123.154 33.9689 124.034 33.9689C125.298 33.9689 126.192 33.4397 126.714 32.3813H129.25C128.907 33.426 128.281 34.2851 127.374 34.9586C126.481 35.6184 125.367 35.9483 124.034 35.9483C122.948 35.9483 121.972 35.7077 121.106 35.2266C120.254 34.7318 119.58 34.0445 119.085 33.1648C118.604 32.2713 118.364 31.2404 118.364 30.0721C118.364 28.9037 118.597 27.8797 119.065 27C119.546 26.1065 120.213 25.4192 121.065 24.9381C121.931 24.4571 122.92 24.2165 124.034 24.2165C125.106 24.2165 126.061 24.4502 126.9 24.9175C127.738 25.3849 128.391 26.0447 128.858 26.8969C129.326 27.7353 129.559 28.7044 129.559 29.804ZM127.106 29.0618C127.092 28.1958 126.783 27.5017 126.178 26.9793C125.573 26.457 124.824 26.1959 123.931 26.1959C123.12 26.1959 122.426 26.457 121.848 26.9793C121.271 27.4879 120.927 28.1821 120.817 29.0618H127.106ZM131.089 30.0308C131.089 28.89 131.323 27.8797 131.79 27C132.271 26.1203 132.917 25.4399 133.728 24.9588C134.553 24.4639 135.46 24.2165 136.45 24.2165C137.343 24.2165 138.12 24.3952 138.78 24.7526C139.453 25.0962 139.989 25.5292 140.388 26.0515V24.4021H142.759V35.7627H140.388V34.072C139.989 34.6081 139.446 35.0548 138.759 35.4122C138.072 35.7696 137.288 35.9483 136.409 35.9483C135.433 35.9483 134.539 35.7008 133.728 35.206C132.917 34.6974 132.271 33.9964 131.79 33.1029C131.323 32.1957 131.089 31.1717 131.089 30.0308ZM140.388 30.0721C140.388 29.2886 140.223 28.6082 139.893 28.0309C139.577 27.4536 139.158 27.0137 138.635 26.7113C138.113 26.4089 137.549 26.2577 136.945 26.2577C136.34 26.2577 135.776 26.4089 135.254 26.7113C134.732 27 134.306 27.4329 133.976 28.0103C133.66 28.5738 133.501 29.2473 133.501 30.0308C133.501 30.8143 133.66 31.5016 133.976 32.0927C134.306 32.6837 134.732 33.1373 135.254 33.4535C135.79 33.7559 136.354 33.9071 136.945 33.9071C137.549 33.9071 138.113 33.7559 138.635 33.4535C139.158 33.1511 139.577 32.7112 139.893 32.1339C140.223 31.5428 140.388 30.8556 140.388 30.0721ZM149.97 35.9483C149.076 35.9483 148.272 35.7902 147.558 35.474C146.857 35.1441 146.3 34.7043 145.887 34.1545C145.475 33.5909 145.255 32.9655 145.228 32.2782H147.661C147.702 32.7593 147.929 33.1648 148.341 33.4947C148.767 33.8108 149.296 33.9689 149.929 33.9689C150.588 33.9689 151.097 33.8452 151.454 33.5978C151.826 33.3366 152.011 33.0067 152.011 32.6081C152.011 32.182 151.805 31.8659 151.393 31.6597C150.994 31.4535 150.355 31.2267 149.475 30.9793C148.623 30.7456 147.929 30.5188 147.393 30.2989C146.857 30.0789 146.389 29.7422 145.991 29.2886C145.606 28.835 145.413 28.2371 145.413 27.4948C145.413 26.89 145.592 26.3402 145.949 25.8453C146.307 25.3368 146.815 24.9381 147.475 24.6495C148.149 24.3608 148.918 24.2165 149.784 24.2165C151.076 24.2165 152.114 24.5464 152.898 25.2062C153.695 25.8522 154.121 26.7388 154.176 27.8659H151.826C151.784 27.3573 151.578 26.9519 151.207 26.6495C150.836 26.3471 150.334 26.1959 149.702 26.1959C149.083 26.1959 148.609 26.3127 148.279 26.5464C147.949 26.78 147.784 27.0893 147.784 27.4742C147.784 27.7766 147.894 28.0309 148.114 28.2371C148.334 28.4432 148.602 28.6082 148.918 28.7319C149.235 28.8419 149.702 28.9862 150.32 29.1649C151.145 29.3848 151.819 29.6116 152.341 29.8453C152.877 30.0652 153.338 30.3951 153.722 30.8349C154.107 31.2748 154.307 31.859 154.32 32.5875C154.32 33.2335 154.142 33.8108 153.784 34.3194C153.427 34.828 152.918 35.2266 152.259 35.5153C151.612 35.8039 150.85 35.9483 149.97 35.9483ZM167.149 24.4021V35.7627H164.798V34.4225C164.427 34.8899 163.939 35.261 163.334 35.5359C162.743 35.7971 162.111 35.9276 161.437 35.9276C160.544 35.9276 159.74 35.7421 159.025 35.3709C158.324 34.9998 157.767 34.45 157.355 33.7215C156.956 32.993 156.757 32.1133 156.757 31.0824V24.4021H159.087V30.7319C159.087 31.749 159.341 32.5325 159.85 33.0823C160.358 33.6184 161.052 33.8864 161.932 33.8864C162.812 33.8864 163.506 33.6184 164.015 33.0823C164.537 32.5325 164.798 31.749 164.798 30.7319V24.4021H167.149ZM172.6 26.0515C172.944 25.4742 173.398 25.0275 173.961 24.7113C174.538 24.3815 175.219 24.2165 176.002 24.2165V26.6495H175.404C174.483 26.6495 173.782 26.8831 173.301 27.3505C172.834 27.8178 172.6 28.6288 172.6 29.7834V35.7627H170.25V24.4021H172.6V26.0515ZM188.575 29.804C188.575 30.2301 188.548 30.615 188.493 30.9587H179.812C179.881 31.8659 180.218 32.5944 180.823 33.1442C181.427 33.694 182.17 33.9689 183.049 33.9689C184.314 33.9689 185.207 33.4397 185.73 32.3813H188.266C187.922 33.426 187.297 34.2851 186.39 34.9586C185.496 35.6184 184.383 35.9483 183.049 35.9483C181.963 35.9483 180.988 35.7077 180.122 35.2266C179.269 34.7318 178.596 34.0445 178.101 33.1648C177.62 32.2713 177.379 31.2404 177.379 30.0721C177.379 28.9037 177.613 27.8797 178.08 27C178.561 26.1065 179.228 25.4192 180.08 24.9381C180.946 24.4571 181.936 24.2165 183.049 24.2165C184.122 24.2165 185.077 24.4502 185.915 24.9175C186.754 25.3849 187.407 26.0447 187.874 26.8969C188.341 27.7353 188.575 28.7044 188.575 29.804ZM186.121 29.0618C186.108 28.1958 185.798 27.5017 185.194 26.9793C184.589 26.457 183.84 26.1959 182.946 26.1959C182.135 26.1959 181.441 26.457 180.864 26.9793C180.287 27.4879 179.943 28.1821 179.833 29.0618H186.121ZM204.64 24.2165C205.534 24.2165 206.331 24.4021 207.032 24.7732C207.747 25.1443 208.304 25.6941 208.702 26.4227C209.115 27.1512 209.321 28.0309 209.321 29.0618V35.7627H206.991V29.4123C206.991 28.3951 206.737 27.6185 206.228 27.0824C205.719 26.5326 205.025 26.2577 204.146 26.2577C203.266 26.2577 202.565 26.5326 202.043 27.0824C201.534 27.6185 201.28 28.3951 201.28 29.4123V35.7627H198.95V29.4123C198.95 28.3951 198.696 27.6185 198.187 27.0824C197.678 26.5326 196.984 26.2577 196.105 26.2577C195.225 26.2577 194.524 26.5326 194.001 27.0824C193.493 27.6185 193.239 28.3951 193.239 29.4123V35.7627H190.888V24.4021H193.239V25.701C193.623 25.2337 194.111 24.8694 194.702 24.6083C195.294 24.3471 195.926 24.2165 196.599 24.2165C197.507 24.2165 198.318 24.4089 199.032 24.7938C199.747 25.1787 200.297 25.7354 200.682 26.4639C201.025 25.7766 201.561 25.2337 202.29 24.8351C203.018 24.4227 203.802 24.2165 204.64 24.2165ZM222.724 29.804C222.724 30.2301 222.696 30.615 222.641 30.9587H213.961C214.03 31.8659 214.367 32.5944 214.971 33.1442C215.576 33.694 216.319 33.9689 217.198 33.9689C218.463 33.9689 219.356 33.4397 219.879 32.3813H222.415C222.071 33.426 221.446 34.2851 220.538 34.9586C219.645 35.6184 218.532 35.9483 217.198 35.9483C216.112 35.9483 215.136 35.7077 214.27 35.2266C213.418 34.7318 212.745 34.0445 212.25 33.1648C211.769 32.2713 211.528 31.2404 211.528 30.0721C211.528 28.9037 211.762 27.8797 212.229 27C212.71 26.1065 213.377 25.4192 214.229 24.9381C215.095 24.4571 216.085 24.2165 217.198 24.2165C218.27 24.2165 219.226 24.4502 220.064 24.9175C220.903 25.3849 221.556 26.0447 222.023 26.8969C222.49 27.7353 222.724 28.7044 222.724 29.804ZM220.27 29.0618C220.257 28.1958 219.947 27.5017 219.343 26.9793C218.738 26.457 217.989 26.1959 217.095 26.1959C216.284 26.1959 215.59 26.457 215.013 26.9793C214.435 27.4879 214.092 28.1821 213.982 29.0618H220.27ZM230.769 24.2165C231.662 24.2165 232.46 24.4021 233.161 24.7732C233.875 25.1443 234.432 25.6941 234.831 26.4227C235.229 27.1512 235.429 28.0309 235.429 29.0618V35.7627H233.099V29.4123C233.099 28.3951 232.844 27.6185 232.336 27.0824C231.827 26.5326 231.133 26.2577 230.253 26.2577C229.374 26.2577 228.673 26.5326 228.15 27.0824C227.642 27.6185 227.387 28.3951 227.387 29.4123V35.7627H225.037V24.4021H227.387V25.701C227.772 25.2337 228.26 24.8694 228.851 24.6083C229.456 24.3471 230.095 24.2165 230.769 24.2165ZM241.169 26.3196V32.6081C241.169 33.0342 241.265 33.3435 241.458 33.5359C241.664 33.7146 242.007 33.804 242.489 33.804H243.932V35.7627H242.076C241.018 35.7627 240.207 35.5153 239.643 35.0204C239.08 34.5256 238.798 33.7215 238.798 32.6081V26.3196H237.458V24.4021H238.798V21.5774H241.169V24.4021H243.932V26.3196H241.169ZM250.222 35.9483C249.328 35.9483 248.524 35.7902 247.809 35.474C247.108 35.1441 246.552 34.7043 246.139 34.1545C245.727 33.5909 245.507 32.9655 245.48 32.2782H247.913C247.954 32.7593 248.181 33.1648 248.593 33.4947C249.019 33.8108 249.548 33.9689 250.181 33.9689C250.84 33.9689 251.349 33.8452 251.706 33.5978C252.077 33.3366 252.263 33.0067 252.263 32.6081C252.263 32.182 252.057 31.8659 251.644 31.6597C251.246 31.4535 250.607 31.2267 249.727 30.9793C248.875 30.7456 248.181 30.5188 247.645 30.2989C247.108 30.0789 246.641 29.7422 246.242 29.2886C245.858 28.835 245.665 28.2371 245.665 27.4948C245.665 26.89 245.844 26.3402 246.201 25.8453C246.559 25.3368 247.067 24.9381 247.727 24.6495C248.401 24.3608 249.17 24.2165 250.036 24.2165C251.328 24.2165 252.366 24.5464 253.15 25.2062C253.947 25.8522 254.373 26.7388 254.428 27.8659H252.077C252.036 27.3573 251.83 26.9519 251.459 26.6495C251.088 26.3471 250.586 26.1959 249.954 26.1959C249.335 26.1959 248.861 26.3127 248.531 26.5464C248.201 26.78 248.036 27.0893 248.036 27.4742C248.036 27.7766 248.146 28.0309 248.366 28.2371C248.586 28.4432 248.854 28.6082 249.17 28.7319C249.486 28.8419 249.954 28.9862 250.572 29.1649C251.397 29.3848 252.071 29.6116 252.593 29.8453C253.129 30.0652 253.589 30.3951 253.974 30.8349C254.359 31.2748 254.558 31.859 254.572 32.5875C254.572 33.2335 254.394 33.8108 254.036 34.3194C253.679 34.828 253.17 35.2266 252.51 35.5153C251.864 35.8039 251.101 35.9483 250.222 35.9483Z" fill="white"/>
<path d="M268.925 86.9699C268.417 86.9707 267.913 86.8711 267.443 86.6769C266.973 86.4826 266.546 86.1976 266.187 85.838C265.827 85.4785 265.542 85.0515 265.348 84.5816C265.153 84.1117 265.054 83.608 265.055 83.0996C265.055 81.1084 266.298 79.0996 268.442 76.3074L268.907 75.7183L269.373 76.3074C271.47 78.9759 272.766 81.0613 272.766 83.0996C272.769 84.1219 272.366 85.1037 271.646 85.8294C270.926 86.555 269.947 86.9652 268.925 86.9699ZM268.925 77.6446C267.217 79.9185 266.245 81.5856 266.245 83.1114C266.228 83.4735 266.284 83.8354 266.411 84.175C266.538 84.5147 266.733 84.825 266.983 85.0873C267.233 85.3496 267.534 85.5585 267.867 85.7011C268.201 85.8438 268.56 85.9173 268.922 85.9173C269.285 85.9173 269.643 85.8438 269.977 85.7011C270.31 85.5585 270.611 85.3496 270.861 85.0873C271.112 84.825 271.306 84.5147 271.433 84.175C271.56 83.8354 271.616 83.4735 271.599 83.1114C271.588 81.5503 270.539 79.783 268.925 77.6446Z" fill="#004CAA"/>
<path d="M246.026 107.84C246.026 107.84 248.158 95.4101 249.006 93.7607C249.855 92.1112 251.304 91.5045 252.405 91.7107C253.04 91.8648 253.606 92.2224 254.018 92.7288C254.429 93.2351 254.664 93.8624 254.685 94.5147C254.615 95.8579 253.548 105.978 253.548 105.978L276.776 91.8933C277.53 91.4279 279.686 91.4927 280.093 92.2055C280.499 92.9183 280.794 94.6973 279.727 95.5162L267.156 103.469L267.398 103.911C267.398 103.911 281.33 95.0272 281.707 94.8211C282.084 94.6149 284.063 94.2791 284.97 95.7283C285.878 97.1774 285.294 98.5853 284.658 98.9918C284.022 99.3983 270.267 107.699 270.267 107.699L270.473 108.076C270.473 108.076 281.825 101.254 282.343 100.965C282.861 100.677 284.281 100.965 284.97 102.037C285.228 102.529 285.324 103.091 285.242 103.64C285.161 104.19 284.907 104.699 284.517 105.095C283.969 105.478 272.37 112.447 272.37 112.447L272.605 112.871C272.605 112.871 281.006 107.757 281.483 107.504C281.96 107.251 283.574 107.504 284.222 108.606C284.87 109.707 284.434 111.475 283.574 112.046C282.714 112.617 266.938 123.315 263.251 124.629C259.563 125.943 255.592 126.762 251.828 123.887C248.064 121.012 245.089 114.909 246.026 107.84Z" fill="#004CAA"/>
<path d="M257.503 126.102C255.381 126.126 253.315 125.423 251.647 124.111C247.995 121.301 244.749 115.163 245.756 107.776C245.845 107.269 247.906 95.2988 248.761 93.6375C249.703 91.8114 251.305 91.2105 252.478 91.4343C253.184 91.5991 253.815 91.9942 254.271 92.5575C254.728 93.1207 254.984 93.8199 254.999 94.5447C254.934 95.7229 254.151 103.228 253.921 105.431L276.619 91.6405C277.476 91.2649 278.436 91.1921 279.34 91.4343C279.541 91.4661 279.732 91.5377 279.904 91.645C280.076 91.7522 280.225 91.8929 280.342 92.0588C280.736 92.748 281.049 94.3386 280.289 95.3636L281.561 94.5624C282.103 94.262 284.242 93.9733 285.214 95.5757C286.186 97.178 285.591 98.745 284.807 99.2398C284.66 99.3399 283.817 99.8289 282.61 100.583C283.184 100.524 283.763 100.648 284.261 100.939C284.76 101.231 285.153 101.673 285.384 102.202C285.615 102.731 285.672 103.32 285.546 103.884C285.42 104.447 285.118 104.956 284.683 105.337C284.513 105.455 283.323 106.179 281.738 107.104C282.27 107.065 282.803 107.167 283.283 107.399C283.763 107.632 284.173 107.987 284.471 108.43C285.231 109.708 284.689 111.64 283.729 112.265L283.14 112.677C272.389 119.899 265.556 124.117 263.346 124.924C261.479 125.643 259.503 126.041 257.503 126.102ZM246.31 107.841C245.362 114.992 248.49 120.918 252.006 123.628C255.641 126.456 259.494 125.643 263.146 124.335C264.654 123.799 269.29 121.26 282.786 112.2L283.376 111.787C284.088 111.316 284.501 109.696 283.965 108.748C283.706 108.376 283.348 108.085 282.931 107.908C282.514 107.732 282.055 107.678 281.608 107.752C281.243 107.952 275.653 111.346 272.772 113.113L272.507 113.272L271.994 112.329L272.236 112.182C272.348 112.111 283.829 105.213 284.365 104.842C284.69 104.49 284.899 104.046 284.966 103.572C285.032 103.097 284.952 102.613 284.736 102.185C284.112 101.243 282.845 101.007 282.498 101.207C281.991 101.496 270.751 108.276 270.639 108.312L270.38 108.471L269.885 107.581L270.127 107.434C270.262 107.352 283.882 99.1338 284.513 98.7332C285.019 98.4092 285.532 97.1721 284.73 95.8702C283.929 94.5683 282.109 94.9335 281.879 95.0808C281.65 95.2281 272.377 101.09 267.57 104.159L267.305 104.33L266.781 103.369L279.57 95.2693C280.436 94.5978 280.206 93.0072 279.829 92.3533C279.668 92.1625 279.441 92.0386 279.193 92.0058C278.442 91.8095 277.648 91.8569 276.925 92.1413L253.697 106.232L253.185 106.539L253.249 105.95C253.249 105.844 254.316 95.8172 254.386 94.5035C254.36 93.9228 254.148 93.3658 253.781 92.915C253.414 92.4642 252.911 92.1433 252.348 91.9999C251.388 91.8173 250.062 92.3357 249.261 93.8967C248.607 95.1692 247.046 103.593 246.31 107.87V107.841Z" fill="white"/>
<path d="M243.63 116.475C243.63 116.475 241.58 104.051 241.863 102.213C242.145 100.375 243.294 99.3268 244.402 99.1559C245.052 99.094 245.704 99.2472 246.259 99.5921C246.813 99.9369 247.239 100.454 247.471 101.065C247.842 102.355 250.157 112.257 250.157 112.257L267.465 91.3446C268.024 90.6613 270.08 90.0133 270.699 90.5552C271.317 91.0972 272.177 92.6759 271.441 93.8011L262.186 105.43L262.557 105.766C262.557 105.766 272.796 92.8173 273.085 92.5228C273.373 92.2282 275.146 91.2386 276.46 92.3107C277.774 93.3829 277.703 94.8791 277.232 95.4682C276.76 96.0573 266.493 108.428 266.493 108.428L266.811 108.717C266.811 108.717 275.3 98.5551 275.694 98.1133C276.089 97.6714 277.532 97.5242 278.528 98.2664C278.934 98.6464 279.209 99.1449 279.315 99.6908C279.421 100.237 279.351 100.802 279.117 101.306C278.722 101.848 270.051 112.228 270.051 112.228L270.404 112.558C270.404 112.558 276.66 104.947 277.026 104.552C277.391 104.157 279.005 103.886 279.971 104.693C280.937 105.5 281.149 107.338 280.489 108.157C279.83 108.976 268.466 124.251 265.391 126.69C262.316 129.129 258.829 131.226 254.363 129.736C249.898 128.245 245.061 123.456 243.63 116.475Z" fill="#004CAA"/>
<path d="M257.321 130.537C256.287 130.534 255.26 130.362 254.281 130.03C249.91 128.569 244.856 123.833 243.336 116.534C243.253 116.027 241.28 104.045 241.539 102.184C241.828 100.146 243.147 99.0558 244.325 98.879C245.043 98.8039 245.766 98.9698 246.379 99.3505C246.993 99.7313 247.462 100.305 247.713 100.982C248.037 102.101 249.763 109.465 250.264 111.621C252.761 108.611 266.711 91.7746 267.218 91.1561C267.904 90.519 268.787 90.1346 269.721 90.0662C269.925 90.0279 270.135 90.0317 270.338 90.0773C270.54 90.1228 270.731 90.2093 270.899 90.3313C271.488 90.8556 272.313 92.2577 271.93 93.4712C272.466 92.7878 272.82 92.3578 272.867 92.293C273.285 91.8276 275.223 90.8733 276.649 92.0456C278.074 93.2179 278.045 94.9203 277.468 95.6508C277.362 95.7863 276.731 96.5462 275.83 97.6361C276.354 97.3853 276.944 97.3087 277.515 97.4174C278.085 97.5261 278.606 97.8144 279.001 98.2403C279.396 98.6661 279.644 99.2071 279.709 99.7841C279.775 100.361 279.654 100.944 279.365 101.447C279.241 101.618 278.357 102.69 277.185 104.104C277.673 103.896 278.208 103.82 278.735 103.883C279.262 103.946 279.764 104.146 280.189 104.464C281.32 105.418 281.444 107.409 280.743 108.328C280.684 108.405 280.531 108.617 280.289 108.917C272.519 119.226 267.447 125.447 265.615 126.914C263.282 128.781 260.567 130.537 257.321 130.537ZM243.919 116.399C245.362 123.468 250.258 128.045 254.464 129.447C258.823 130.896 262.21 128.858 265.221 126.448C266.469 125.447 270.01 121.53 279.795 108.558L280.248 107.969C280.767 107.297 280.631 105.612 279.777 104.917C279.415 104.649 278.983 104.49 278.533 104.46C278.082 104.429 277.633 104.529 277.238 104.746C276.949 105.053 272.784 110.095 270.617 112.717L270.422 112.952L269.621 112.228L269.804 112.01C269.892 111.91 278.475 101.63 278.858 101.1C279.048 100.662 279.101 100.178 279.009 99.7095C278.918 99.2415 278.686 98.8122 278.345 98.4785C277.45 97.7892 276.178 97.9895 275.913 98.2841C275.53 98.72 267.123 108.782 267.041 108.888L266.841 109.117L266.075 108.428L266.257 108.21C266.363 108.087 276.531 95.8393 276.996 95.2502C277.373 94.779 277.45 93.4417 276.266 92.4756C275.082 91.5095 273.497 92.4344 273.321 92.6582C273.144 92.8821 266.322 101.477 262.782 105.948L262.587 106.201L261.78 105.483L271.206 93.642C271.795 92.723 271.064 91.2857 270.499 90.7967C270.28 90.6743 270.026 90.6326 269.78 90.6789C269.006 90.7421 268.271 91.0495 267.683 91.5566C267.153 92.2105 250.523 112.251 250.352 112.452L249.975 112.911L249.839 112.322C249.839 112.222 247.524 102.402 247.159 101.129C246.945 100.589 246.562 100.132 246.067 99.8266C245.573 99.521 244.993 99.3829 244.414 99.4328C243.454 99.5742 242.37 100.499 242.122 102.237C241.922 103.668 243.206 112.139 243.919 116.422V116.399Z" fill="white"/>
<circle cx="263.615" cy="103.127" r="41.9727" stroke="#EEEEEE" stroke-width="1.47273"/>
<path d="M234.262 148.668V159.836H232.782V148.668H234.262ZM238.941 153.692V154.904H233.94V153.692H238.941ZM239.7 148.668V149.88H233.94V148.668H239.7ZM240.705 155.778V155.602C240.705 155.004 240.792 154.449 240.966 153.937C241.14 153.421 241.39 152.973 241.718 152.595C242.045 152.212 242.441 151.915 242.907 151.705C243.372 151.49 243.894 151.383 244.471 151.383C245.054 151.383 245.579 151.49 246.044 151.705C246.514 151.915 246.913 152.212 247.24 152.595C247.573 152.973 247.826 153.421 248 153.937C248.174 154.449 248.261 155.004 248.261 155.602V155.778C248.261 156.377 248.174 156.931 248 157.443C247.826 157.954 247.573 158.402 247.24 158.785C246.913 159.163 246.517 159.46 246.052 159.675C245.591 159.885 245.07 159.989 244.487 159.989C243.904 159.989 243.38 159.885 242.914 159.675C242.449 159.46 242.05 159.163 241.718 158.785C241.39 158.402 241.14 157.954 240.966 157.443C240.792 156.931 240.705 156.377 240.705 155.778ZM242.124 155.602V155.778C242.124 156.192 242.173 156.584 242.27 156.952C242.367 157.315 242.513 157.637 242.707 157.918C242.907 158.2 243.155 158.422 243.451 158.586C243.748 158.744 244.093 158.823 244.487 158.823C244.875 158.823 245.215 158.744 245.507 158.586C245.804 158.422 246.049 158.2 246.243 157.918C246.438 157.637 246.583 157.315 246.681 156.952C246.783 156.584 246.834 156.192 246.834 155.778V155.602C246.834 155.193 246.783 154.807 246.681 154.444C246.583 154.075 246.435 153.751 246.236 153.469C246.041 153.183 245.796 152.958 245.499 152.794C245.208 152.631 244.865 152.549 244.471 152.549C244.083 152.549 243.74 152.631 243.444 152.794C243.152 152.958 242.907 153.183 242.707 153.469C242.513 153.751 242.367 154.075 242.27 154.444C242.173 154.807 242.124 155.193 242.124 155.602ZM251.582 148.054V159.836H250.155V148.054H251.582ZM255.402 148.054V159.836H253.975V148.054H255.402ZM257.304 155.778V155.602C257.304 155.004 257.391 154.449 257.565 153.937C257.739 153.421 257.989 152.973 258.317 152.595C258.644 152.212 259.04 151.915 259.506 151.705C259.971 151.49 260.492 151.383 261.07 151.383C261.653 151.383 262.177 151.49 262.643 151.705C263.113 151.915 263.512 152.212 263.839 152.595C264.172 152.973 264.425 153.421 264.599 153.937C264.773 154.449 264.86 155.004 264.86 155.602V155.778C264.86 156.377 264.773 156.931 264.599 157.443C264.425 157.954 264.172 158.402 263.839 158.785C263.512 159.163 263.116 159.46 262.65 159.675C262.19 159.885 261.669 159.989 261.086 159.989C260.503 159.989 259.979 159.885 259.513 159.675C259.048 159.46 258.649 159.163 258.317 158.785C257.989 158.402 257.739 157.954 257.565 157.443C257.391 156.931 257.304 156.377 257.304 155.778ZM258.723 155.602V155.778C258.723 156.192 258.772 156.584 258.869 156.952C258.966 157.315 259.112 157.637 259.306 157.918C259.506 158.2 259.754 158.422 260.05 158.586C260.347 158.744 260.692 158.823 261.086 158.823C261.474 158.823 261.814 158.744 262.106 158.586C262.402 158.422 262.648 158.2 262.842 157.918C263.037 157.637 263.182 157.315 263.279 156.952C263.382 156.584 263.433 156.192 263.433 155.778V155.602C263.433 155.193 263.382 154.807 263.279 154.444C263.182 154.075 263.034 153.751 262.835 153.469C262.64 153.183 262.395 152.958 262.098 152.794C261.807 152.631 261.464 152.549 261.07 152.549C260.682 152.549 260.339 152.631 260.042 152.794C259.751 152.958 259.506 153.183 259.306 153.469C259.112 153.751 258.966 154.075 258.869 154.444C258.772 154.807 258.723 155.193 258.723 155.602ZM268.741 158.363L270.873 151.537H271.809L271.625 152.894L269.454 159.836H268.541L268.741 158.363ZM267.306 151.537L269.124 158.44L269.255 159.836H268.296L265.887 151.537H267.306ZM273.849 158.386L275.583 151.537H276.994L274.586 159.836H273.635L273.849 158.386ZM272.016 151.537L274.102 158.248L274.34 159.836H273.435L271.203 152.879L271.019 151.537H272.016ZM279.993 151.537V159.836H278.567V151.537H279.993ZM278.459 149.335C278.459 149.105 278.528 148.911 278.666 148.752C278.81 148.594 279.019 148.514 279.295 148.514C279.566 148.514 279.773 148.594 279.917 148.752C280.065 148.911 280.139 149.105 280.139 149.335C280.139 149.555 280.065 149.744 279.917 149.903C279.773 150.056 279.566 150.133 279.295 150.133C279.019 150.133 278.81 150.056 278.666 149.903C278.528 149.744 278.459 149.555 278.459 149.335ZM283.69 153.308V159.836H282.271V151.537H283.614L283.69 153.308ZM283.353 155.372L282.762 155.349C282.767 154.781 282.852 154.257 283.015 153.776C283.179 153.29 283.409 152.869 283.706 152.511C284.002 152.153 284.355 151.877 284.764 151.682C285.179 151.483 285.636 151.383 286.137 151.383C286.546 151.383 286.915 151.439 287.242 151.552C287.569 151.659 287.848 151.833 288.078 152.073C288.313 152.314 288.492 152.626 288.615 153.009C288.738 153.388 288.799 153.85 288.799 154.398V159.836H287.372V154.382C287.372 153.948 287.308 153.6 287.181 153.339C287.053 153.073 286.866 152.881 286.621 152.764C286.375 152.641 286.073 152.58 285.715 152.58C285.363 152.58 285.04 152.654 284.749 152.802C284.463 152.95 284.215 153.155 284.005 153.416C283.8 153.677 283.639 153.976 283.522 154.313C283.409 154.646 283.353 154.998 283.353 155.372ZM296.331 151.537H297.62V159.66C297.62 160.391 297.472 161.015 297.175 161.531C296.879 162.048 296.464 162.439 295.933 162.705C295.406 162.976 294.797 163.111 294.107 163.111C293.821 163.111 293.483 163.065 293.094 162.973C292.711 162.886 292.333 162.735 291.959 162.521C291.591 162.311 291.282 162.027 291.031 161.669L291.775 160.825C292.123 161.245 292.486 161.536 292.864 161.7C293.248 161.863 293.626 161.945 294 161.945C294.45 161.945 294.838 161.861 295.165 161.692C295.493 161.523 295.746 161.273 295.925 160.94C296.109 160.613 296.201 160.209 296.201 159.729V153.362L296.331 151.537ZM290.617 155.778V155.617C290.617 154.983 290.691 154.408 290.839 153.891C290.993 153.37 291.21 152.922 291.491 152.549C291.778 152.176 292.123 151.889 292.527 151.69C292.931 151.485 293.386 151.383 293.892 151.383C294.414 151.383 294.869 151.475 295.258 151.659C295.651 151.838 295.984 152.102 296.255 152.449C296.531 152.792 296.748 153.206 296.907 153.692C297.065 154.178 297.175 154.727 297.237 155.341V156.047C297.18 156.655 297.07 157.202 296.907 157.688C296.748 158.174 296.531 158.588 296.255 158.931C295.984 159.273 295.651 159.537 295.258 159.721C294.864 159.9 294.404 159.989 293.877 159.989C293.381 159.989 292.931 159.885 292.527 159.675C292.128 159.465 291.785 159.171 291.499 158.793C291.213 158.414 290.993 157.969 290.839 157.458C290.691 156.942 290.617 156.382 290.617 155.778ZM292.036 155.617V155.778C292.036 156.192 292.077 156.581 292.159 156.944C292.246 157.307 292.376 157.627 292.55 157.903C292.729 158.179 292.956 158.396 293.233 158.555C293.509 158.708 293.838 158.785 294.222 158.785C294.692 158.785 295.081 158.685 295.388 158.486C295.695 158.287 295.938 158.023 296.117 157.696C296.301 157.369 296.444 157.013 296.546 156.63V154.781C296.49 154.5 296.403 154.229 296.285 153.968C296.173 153.702 296.025 153.467 295.84 153.262C295.662 153.053 295.439 152.887 295.173 152.764C294.907 152.641 294.595 152.58 294.237 152.58C293.849 152.58 293.514 152.662 293.233 152.825C292.956 152.984 292.729 153.204 292.55 153.485C292.376 153.761 292.246 154.083 292.159 154.451C292.077 154.814 292.036 155.203 292.036 155.617ZM209.141 174.461L211.358 166.668H212.432L211.811 169.698L209.425 177.836H208.359L209.141 174.461ZM206.848 166.668L208.612 174.308L209.141 177.836H208.083L205.375 166.668H206.848ZM215.301 174.3L217.027 166.668H218.507L215.807 177.836H214.748L215.301 174.3ZM212.593 166.668L214.748 174.461L215.531 177.836H214.465L212.163 169.698L211.535 166.668H212.593ZM219.006 177.084C219.006 176.844 219.08 176.642 219.228 176.478C219.381 176.31 219.601 176.225 219.888 176.225C220.174 176.225 220.391 176.31 220.54 176.478C220.693 176.642 220.77 176.844 220.77 177.084C220.77 177.319 220.693 177.519 220.54 177.683C220.391 177.846 220.174 177.928 219.888 177.928C219.601 177.928 219.381 177.846 219.228 177.683C219.08 177.519 219.006 177.319 219.006 177.084ZM230.634 171.469V172.674H224.59V171.469H230.634ZM224.82 166.668V177.836H223.339V166.668H224.82ZM231.923 166.668V177.836H230.45V166.668H231.923ZM234.362 177.084C234.362 176.844 234.436 176.642 234.584 176.478C234.738 176.31 234.958 176.225 235.244 176.225C235.53 176.225 235.748 176.31 235.896 176.478C236.049 176.642 236.126 176.844 236.126 177.084C236.126 177.319 236.049 177.519 235.896 177.683C235.748 177.846 235.53 177.928 235.244 177.928C234.958 177.928 234.738 177.846 234.584 177.683C234.436 177.519 234.362 177.319 234.362 177.084ZM247.294 171.899V172.605C247.294 173.443 247.189 174.195 246.98 174.86C246.77 175.525 246.468 176.09 246.075 176.555C245.681 177.02 245.208 177.376 244.656 177.621C244.108 177.867 243.495 177.989 242.815 177.989C242.155 177.989 241.549 177.867 240.997 177.621C240.45 177.376 239.974 177.02 239.57 176.555C239.171 176.09 238.862 175.525 238.642 174.86C238.422 174.195 238.312 173.443 238.312 172.605V171.899C238.312 171.06 238.419 170.311 238.634 169.652C238.854 168.987 239.163 168.422 239.562 167.956C239.961 167.486 240.434 167.128 240.981 166.883C241.534 166.637 242.14 166.514 242.799 166.514C243.479 166.514 244.093 166.637 244.64 166.883C245.192 167.128 245.665 167.486 246.059 167.956C246.458 168.422 246.762 168.987 246.972 169.652C247.187 170.311 247.294 171.06 247.294 171.899ZM245.829 172.605V171.884C245.829 171.219 245.76 170.631 245.622 170.119C245.489 169.608 245.292 169.179 245.031 168.831C244.771 168.483 244.451 168.22 244.073 168.041C243.699 167.862 243.275 167.772 242.799 167.772C242.339 167.772 241.922 167.862 241.549 168.041C241.181 168.22 240.864 168.483 240.598 168.831C240.337 169.179 240.135 169.608 239.992 170.119C239.849 170.631 239.777 171.219 239.777 171.884V172.605C239.777 173.275 239.849 173.868 239.992 174.384C240.135 174.896 240.34 175.328 240.606 175.681C240.877 176.028 241.196 176.292 241.564 176.471C241.938 176.65 242.354 176.739 242.815 176.739C243.295 176.739 243.722 176.65 244.096 176.471C244.469 176.292 244.783 176.028 245.039 175.681C245.3 175.328 245.497 174.896 245.63 174.384C245.763 173.868 245.829 173.275 245.829 172.605ZM261.661 172.275V176.363C261.523 176.568 261.303 176.798 261.001 177.054C260.7 177.304 260.283 177.524 259.751 177.713C259.224 177.897 258.544 177.989 257.711 177.989C257.031 177.989 256.404 177.872 255.831 177.637C255.264 177.396 254.77 177.048 254.351 176.593C253.937 176.133 253.615 175.576 253.385 174.921C253.16 174.262 253.047 173.515 253.047 172.681V171.815C253.047 170.981 253.144 170.237 253.338 169.583C253.538 168.928 253.829 168.373 254.213 167.918C254.596 167.458 255.067 167.11 255.624 166.875C256.182 166.635 256.821 166.514 257.542 166.514C258.396 166.514 259.109 166.663 259.682 166.959C260.26 167.251 260.71 167.655 261.032 168.171C261.359 168.688 261.569 169.276 261.661 169.935H260.181C260.114 169.531 259.981 169.163 259.782 168.831C259.587 168.498 259.309 168.233 258.946 168.033C258.583 167.829 258.115 167.726 257.542 167.726C257.025 167.726 256.578 167.821 256.2 168.01C255.821 168.199 255.509 168.47 255.264 168.823C255.018 169.176 254.834 169.603 254.712 170.104C254.594 170.605 254.535 171.17 254.535 171.799V172.681C254.535 173.326 254.609 173.901 254.758 174.407C254.911 174.913 255.128 175.346 255.41 175.704C255.691 176.056 256.026 176.325 256.414 176.509C256.808 176.693 257.243 176.785 257.718 176.785C258.245 176.785 258.672 176.742 258.999 176.655C259.327 176.563 259.582 176.455 259.766 176.333C259.95 176.205 260.091 176.085 260.188 175.972V173.471H257.603V172.275H261.661ZM268.979 175.918V169.537H270.405V177.836H269.048L268.979 175.918ZM269.247 174.169L269.838 174.154C269.838 174.706 269.779 175.218 269.661 175.688C269.549 176.154 269.365 176.558 269.109 176.9C268.853 177.243 268.518 177.511 268.104 177.706C267.69 177.895 267.186 177.989 266.593 177.989C266.189 177.989 265.818 177.931 265.481 177.813C265.148 177.695 264.862 177.514 264.622 177.268C264.381 177.023 264.195 176.703 264.062 176.31C263.934 175.916 263.87 175.443 263.87 174.89V169.537H265.289V174.906C265.289 175.279 265.33 175.588 265.412 175.834C265.499 176.074 265.614 176.266 265.757 176.409C265.905 176.547 266.069 176.644 266.248 176.701C266.432 176.757 266.621 176.785 266.815 176.785C267.419 176.785 267.897 176.67 268.25 176.44C268.603 176.205 268.856 175.89 269.009 175.496C269.168 175.098 269.247 174.655 269.247 174.169ZM274.11 169.537V177.836H272.683V169.537H274.11ZM272.576 167.335C272.576 167.105 272.645 166.911 272.783 166.752C272.926 166.594 273.136 166.514 273.412 166.514C273.683 166.514 273.89 166.594 274.033 166.752C274.182 166.911 274.256 167.105 274.256 167.335C274.256 167.555 274.182 167.744 274.033 167.903C273.89 168.056 273.683 168.133 273.412 168.133C273.136 168.133 272.926 168.056 272.783 167.903C272.645 167.744 272.576 167.555 272.576 167.335ZM281.619 176.225V166.054H283.046V177.836H281.742L281.619 176.225ZM276.035 173.778V173.617C276.035 172.983 276.112 172.408 276.265 171.891C276.424 171.37 276.646 170.922 276.933 170.549C277.224 170.176 277.569 169.889 277.968 169.69C278.372 169.485 278.822 169.383 279.318 169.383C279.84 169.383 280.295 169.475 280.684 169.659C281.077 169.838 281.41 170.102 281.681 170.449C281.957 170.792 282.174 171.206 282.333 171.692C282.491 172.178 282.601 172.727 282.663 173.341V174.047C282.606 174.655 282.496 175.202 282.333 175.688C282.174 176.174 281.957 176.588 281.681 176.931C281.41 177.273 281.077 177.537 280.684 177.721C280.29 177.9 279.83 177.989 279.303 177.989C278.817 177.989 278.372 177.885 277.968 177.675C277.569 177.465 277.224 177.171 276.933 176.793C276.646 176.414 276.424 175.969 276.265 175.458C276.112 174.942 276.035 174.382 276.035 173.778ZM277.462 173.617V173.778C277.462 174.192 277.503 174.581 277.585 174.944C277.672 175.307 277.805 175.627 277.984 175.903C278.163 176.179 278.39 176.396 278.666 176.555C278.942 176.708 279.272 176.785 279.656 176.785C280.126 176.785 280.512 176.685 280.814 176.486C281.121 176.287 281.366 176.023 281.55 175.696C281.735 175.369 281.878 175.013 281.98 174.63V172.781C281.919 172.5 281.829 172.229 281.712 171.968C281.599 171.702 281.451 171.467 281.267 171.262C281.088 171.053 280.865 170.887 280.599 170.764C280.338 170.641 280.029 170.58 279.671 170.58C279.283 170.58 278.948 170.662 278.666 170.825C278.39 170.984 278.163 171.204 277.984 171.485C277.805 171.761 277.672 172.083 277.585 172.451C277.503 172.814 277.462 173.203 277.462 173.617ZM288.699 177.989C288.121 177.989 287.597 177.892 287.127 177.698C286.662 177.498 286.26 177.22 285.923 176.862C285.59 176.504 285.335 176.079 285.156 175.588C284.977 175.098 284.887 174.561 284.887 173.978V173.656C284.887 172.981 284.987 172.38 285.186 171.853C285.386 171.321 285.657 170.871 285.999 170.503C286.342 170.135 286.731 169.856 287.165 169.667C287.6 169.478 288.05 169.383 288.515 169.383C289.108 169.383 289.62 169.485 290.049 169.69C290.484 169.894 290.839 170.181 291.115 170.549C291.392 170.912 291.596 171.342 291.729 171.838C291.862 172.329 291.929 172.865 291.929 173.448V174.085H285.731V172.927H290.51V172.819C290.489 172.451 290.412 172.093 290.279 171.746C290.152 171.398 289.947 171.112 289.666 170.887C289.385 170.662 289.001 170.549 288.515 170.549C288.193 170.549 287.896 170.618 287.625 170.756C287.354 170.889 287.122 171.088 286.927 171.354C286.733 171.62 286.582 171.945 286.475 172.329C286.367 172.712 286.314 173.154 286.314 173.656V173.978C286.314 174.371 286.367 174.742 286.475 175.09C286.587 175.433 286.748 175.734 286.958 175.995C287.173 176.256 287.431 176.46 287.733 176.609C288.04 176.757 288.387 176.831 288.776 176.831C289.277 176.831 289.702 176.729 290.049 176.524C290.397 176.32 290.701 176.046 290.962 175.704L291.821 176.386C291.642 176.657 291.415 176.915 291.138 177.161C290.862 177.406 290.522 177.606 290.118 177.759C289.719 177.913 289.246 177.989 288.699 177.989ZM295.127 166.054V177.836H293.7V166.054H295.127ZM298.947 169.537V177.836H297.52V169.537H298.947ZM297.413 167.335C297.413 167.105 297.482 166.911 297.62 166.752C297.763 166.594 297.973 166.514 298.249 166.514C298.52 166.514 298.727 166.594 298.87 166.752C299.019 166.911 299.093 167.105 299.093 167.335C299.093 167.555 299.019 167.744 298.87 167.903C298.727 168.056 298.52 168.133 298.249 168.133C297.973 168.133 297.763 168.056 297.62 167.903C297.482 167.744 297.413 167.555 297.413 167.335ZM302.644 171.308V177.836H301.225V169.537H302.567L302.644 171.308ZM302.307 173.372L301.716 173.349C301.721 172.781 301.806 172.257 301.969 171.776C302.133 171.29 302.363 170.869 302.66 170.511C302.956 170.153 303.309 169.877 303.718 169.682C304.132 169.483 304.59 169.383 305.091 169.383C305.5 169.383 305.868 169.439 306.196 169.552C306.523 169.659 306.802 169.833 307.032 170.073C307.267 170.314 307.446 170.626 307.569 171.009C307.691 171.388 307.753 171.85 307.753 172.398V177.836H306.326V172.382C306.326 171.948 306.262 171.6 306.134 171.339C306.006 171.073 305.82 170.881 305.574 170.764C305.329 170.641 305.027 170.58 304.669 170.58C304.316 170.58 303.994 170.654 303.703 170.802C303.416 170.95 303.168 171.155 302.959 171.416C302.754 171.677 302.593 171.976 302.475 172.313C302.363 172.646 302.307 172.998 302.307 173.372ZM313.352 177.989C312.774 177.989 312.25 177.892 311.78 177.698C311.314 177.498 310.913 177.22 310.575 176.862C310.243 176.504 309.987 176.079 309.808 175.588C309.629 175.098 309.54 174.561 309.54 173.978V173.656C309.54 172.981 309.64 172.38 309.839 171.853C310.038 171.321 310.31 170.871 310.652 170.503C310.995 170.135 311.383 169.856 311.818 169.667C312.253 169.478 312.703 169.383 313.168 169.383C313.761 169.383 314.273 169.485 314.702 169.69C315.137 169.894 315.492 170.181 315.768 170.549C316.044 170.912 316.249 171.342 316.382 171.838C316.515 172.329 316.581 172.865 316.581 173.448V174.085H310.384V172.927H315.162V172.819C315.142 172.451 315.065 172.093 314.932 171.746C314.804 171.398 314.6 171.112 314.319 170.887C314.037 170.662 313.654 170.549 313.168 170.549C312.846 170.549 312.549 170.618 312.278 170.756C312.007 170.889 311.775 171.088 311.58 171.354C311.386 171.62 311.235 171.945 311.128 172.329C311.02 172.712 310.967 173.154 310.967 173.656V173.978C310.967 174.371 311.02 174.742 311.128 175.09C311.24 175.433 311.401 175.734 311.611 175.995C311.826 176.256 312.084 176.46 312.386 176.609C312.692 176.757 313.04 176.831 313.429 176.831C313.93 176.831 314.354 176.729 314.702 176.524C315.05 176.32 315.354 176.046 315.615 175.704L316.474 176.386C316.295 176.657 316.067 176.915 315.791 177.161C315.515 177.406 315.175 177.606 314.771 177.759C314.372 177.913 313.899 177.989 313.352 177.989ZM323.071 175.635C323.071 175.43 323.025 175.241 322.933 175.067C322.846 174.888 322.664 174.727 322.388 174.584C322.117 174.435 321.708 174.308 321.161 174.2C320.7 174.103 320.284 173.988 319.91 173.855C319.542 173.722 319.228 173.561 318.967 173.372C318.711 173.183 318.514 172.96 318.376 172.704C318.238 172.449 318.169 172.15 318.169 171.807C318.169 171.48 318.241 171.17 318.384 170.879C318.532 170.587 318.739 170.329 319.005 170.104C319.276 169.879 319.601 169.703 319.979 169.575C320.358 169.447 320.78 169.383 321.245 169.383C321.91 169.383 322.477 169.501 322.948 169.736C323.418 169.971 323.779 170.286 324.029 170.679C324.28 171.068 324.405 171.5 324.405 171.976H322.986C322.986 171.746 322.917 171.523 322.779 171.308C322.646 171.088 322.449 170.907 322.188 170.764C321.933 170.621 321.618 170.549 321.245 170.549C320.851 170.549 320.532 170.61 320.286 170.733C320.046 170.851 319.869 171.002 319.757 171.186C319.65 171.37 319.596 171.564 319.596 171.769C319.596 171.922 319.621 172.06 319.673 172.183C319.729 172.3 319.826 172.41 319.964 172.513C320.102 172.61 320.296 172.702 320.547 172.789C320.798 172.876 321.117 172.963 321.506 173.05C322.186 173.203 322.746 173.387 323.186 173.602C323.625 173.817 323.953 174.08 324.167 174.392C324.382 174.704 324.49 175.082 324.49 175.527C324.49 175.89 324.413 176.223 324.26 176.524C324.111 176.826 323.894 177.087 323.608 177.307C323.326 177.521 322.989 177.69 322.595 177.813C322.206 177.931 321.769 177.989 321.283 177.989C320.552 177.989 319.933 177.859 319.427 177.598C318.921 177.337 318.537 177 318.277 176.586C318.016 176.171 317.885 175.734 317.885 175.274H319.312C319.333 175.663 319.445 175.972 319.65 176.202C319.854 176.427 320.105 176.588 320.401 176.685C320.698 176.777 320.992 176.823 321.283 176.823C321.672 176.823 321.997 176.772 322.258 176.67C322.523 176.568 322.725 176.427 322.863 176.248C323.002 176.069 323.071 175.865 323.071 175.635Z" fill="black"/>
<path d="M447.933 79.9175C445.628 79.9138 443.352 80.4305 441.274 81.429C439.196 82.4276 437.371 83.8823 435.934 85.6847C433.945 83.1977 431.233 81.3899 428.173 80.5114C425.112 79.6328 421.854 79.727 418.849 80.7807C415.845 81.8345 413.242 83.7958 411.4 86.3935C409.559 88.9912 408.57 92.0968 408.57 95.281C408.57 98.574 409.413 101.761 411.374 104.117C413.513 106.692 417.595 110.951 421.795 115.233C422.166 114.354 422.702 113.554 423.374 112.877C424.064 112.186 424.884 111.637 425.786 111.263C426.688 110.889 427.655 110.696 428.632 110.696C429.608 110.696 430.576 110.889 431.478 111.263C432.38 111.637 433.199 112.186 433.889 112.877L435.792 114.78L446.867 103.705C447.718 102.851 448.764 102.216 449.915 101.857C451.066 101.498 452.287 101.425 453.473 101.643C454.658 101.862 455.773 102.366 456.72 103.112C457.667 103.859 458.418 104.824 458.908 105.926C459.497 105.266 460.033 104.659 460.481 104.123C462.443 101.767 463.285 98.574 463.285 95.2869C463.287 91.2132 461.67 87.3057 458.791 84.4236C455.913 81.5414 452.007 79.9206 447.933 79.9175Z" fill="#FF7918"/>
<path d="M435.816 129.282L426.673 120.14C426.403 119.882 426.187 119.573 426.038 119.23C425.889 118.888 425.81 118.519 425.805 118.146C425.8 117.772 425.87 117.402 426.011 117.056C426.151 116.71 426.359 116.395 426.623 116.131C426.887 115.866 427.201 115.657 427.546 115.516C427.892 115.374 428.262 115.303 428.636 115.307C429.009 115.31 429.378 115.388 429.721 115.536C430.064 115.685 430.373 115.9 430.632 116.169L435.81 121.347L450.166 107.003C450.693 106.477 451.407 106.182 452.151 106.183C452.895 106.183 453.608 106.479 454.134 107.006C454.66 107.532 454.955 108.246 454.954 108.99C454.954 109.734 454.657 110.448 454.131 110.973L435.816 129.282Z" fill="#009342"/>
<circle cx="435.928" cy="103.127" r="41.9727" stroke="#EEEEEE" stroke-width="1.47273"/>
<path d="M404.484 157.013C404.484 156.752 404.443 156.522 404.362 156.323C404.285 156.118 404.147 155.934 403.947 155.771C403.753 155.607 403.482 155.451 403.134 155.303C402.792 155.154 402.357 155.004 401.83 154.85C401.278 154.687 400.78 154.505 400.335 154.306C399.89 154.101 399.509 153.868 399.192 153.608C398.875 153.347 398.632 153.048 398.463 152.71C398.294 152.373 398.21 151.987 398.21 151.552C398.21 151.117 398.299 150.716 398.478 150.348C398.657 149.979 398.913 149.66 399.245 149.389C399.583 149.113 399.984 148.898 400.45 148.744C400.915 148.591 401.434 148.514 402.007 148.514C402.845 148.514 403.556 148.675 404.139 148.998C404.727 149.315 405.175 149.731 405.482 150.248C405.788 150.759 405.942 151.306 405.942 151.889H404.469C404.469 151.47 404.38 151.099 404.201 150.777C404.022 150.45 403.751 150.194 403.387 150.01C403.024 149.821 402.564 149.726 402.007 149.726C401.48 149.726 401.045 149.806 400.703 149.964C400.36 150.123 400.105 150.337 399.936 150.608C399.772 150.879 399.69 151.189 399.69 151.537C399.69 151.772 399.739 151.987 399.836 152.181C399.938 152.37 400.094 152.546 400.304 152.71C400.519 152.874 400.79 153.025 401.117 153.163C401.449 153.301 401.846 153.434 402.306 153.562C402.94 153.74 403.487 153.94 403.947 154.16C404.408 154.38 404.786 154.628 405.083 154.904C405.384 155.175 405.607 155.484 405.75 155.832C405.898 156.175 405.972 156.563 405.972 156.998C405.972 157.453 405.88 157.865 405.696 158.233C405.512 158.601 405.249 158.915 404.906 159.176C404.564 159.437 404.152 159.639 403.671 159.782C403.196 159.92 402.664 159.989 402.076 159.989C401.559 159.989 401.051 159.918 400.549 159.775C400.053 159.631 399.601 159.417 399.192 159.13C398.788 158.844 398.463 158.491 398.218 158.072C397.977 157.647 397.857 157.156 397.857 156.599H399.33C399.33 156.983 399.404 157.312 399.552 157.588C399.701 157.86 399.903 158.085 400.158 158.263C400.419 158.442 400.713 158.575 401.04 158.662C401.373 158.744 401.718 158.785 402.076 158.785C402.592 158.785 403.03 158.713 403.387 158.57C403.745 158.427 404.016 158.223 404.201 157.957C404.39 157.691 404.484 157.376 404.484 157.013ZM412.538 158.417V154.144C412.538 153.817 412.472 153.533 412.339 153.293C412.211 153.048 412.017 152.858 411.756 152.725C411.495 152.592 411.173 152.526 410.789 152.526C410.432 152.526 410.117 152.587 409.846 152.71C409.58 152.833 409.37 152.994 409.217 153.193C409.069 153.393 408.995 153.608 408.995 153.838H407.576C407.576 153.541 407.652 153.247 407.806 152.956C407.959 152.664 408.179 152.401 408.465 152.165C408.757 151.925 409.105 151.736 409.509 151.598C409.918 151.455 410.373 151.383 410.874 151.383C411.477 151.383 412.009 151.485 412.469 151.69C412.935 151.894 413.298 152.204 413.559 152.618C413.824 153.027 413.957 153.541 413.957 154.16V158.026C413.957 158.302 413.98 158.596 414.026 158.908C414.078 159.22 414.152 159.488 414.249 159.713V159.836H412.768C412.697 159.672 412.641 159.455 412.6 159.184C412.559 158.908 412.538 158.652 412.538 158.417ZM412.784 154.804L412.799 155.801H411.365C410.961 155.801 410.6 155.835 410.283 155.901C409.966 155.962 409.7 156.057 409.486 156.185C409.271 156.313 409.107 156.474 408.995 156.668C408.882 156.857 408.826 157.08 408.826 157.335C408.826 157.596 408.885 157.834 409.002 158.049C409.12 158.263 409.296 158.435 409.532 158.563C409.772 158.685 410.066 158.747 410.414 158.747C410.848 158.747 411.232 158.655 411.564 158.471C411.897 158.287 412.16 158.062 412.354 157.796C412.554 157.53 412.661 157.271 412.676 157.021L413.282 157.704C413.247 157.918 413.149 158.156 412.991 158.417C412.832 158.678 412.62 158.928 412.354 159.169C412.093 159.404 411.782 159.601 411.418 159.759C411.061 159.913 410.657 159.989 410.207 159.989C409.644 159.989 409.151 159.879 408.726 159.66C408.307 159.44 407.98 159.146 407.744 158.777C407.514 158.404 407.399 157.987 407.399 157.527C407.399 157.082 407.486 156.691 407.66 156.354C407.834 156.011 408.084 155.727 408.412 155.502C408.739 155.272 409.133 155.098 409.593 154.981C410.053 154.863 410.567 154.804 411.135 154.804H412.784ZM418.307 159.836H416.887V150.662C416.887 150.064 416.995 149.56 417.21 149.151C417.43 148.737 417.744 148.425 418.153 148.215C418.562 148 419.048 147.893 419.611 147.893C419.774 147.893 419.938 147.903 420.101 147.924C420.27 147.944 420.434 147.975 420.592 148.016L420.516 149.174C420.408 149.148 420.286 149.131 420.147 149.12C420.014 149.11 419.882 149.105 419.749 149.105C419.447 149.105 419.186 149.166 418.966 149.289C418.751 149.407 418.588 149.581 418.475 149.811C418.363 150.041 418.307 150.325 418.307 150.662V159.836ZM420.071 151.537V152.626H415.576V151.537H420.071ZM424.911 159.989C424.333 159.989 423.809 159.892 423.338 159.698C422.873 159.498 422.472 159.22 422.134 158.862C421.802 158.504 421.546 158.079 421.367 157.588C421.188 157.098 421.099 156.561 421.099 155.978V155.656C421.099 154.981 421.198 154.38 421.398 153.853C421.597 153.321 421.868 152.871 422.211 152.503C422.553 152.135 422.942 151.856 423.377 151.667C423.811 151.478 424.261 151.383 424.727 151.383C425.32 151.383 425.831 151.485 426.261 151.69C426.695 151.894 427.051 152.181 427.327 152.549C427.603 152.912 427.808 153.342 427.941 153.838C428.074 154.329 428.14 154.865 428.14 155.448V156.085H421.942V154.927H426.721V154.819C426.701 154.451 426.624 154.093 426.491 153.746C426.363 153.398 426.159 153.112 425.877 152.887C425.596 152.662 425.212 152.549 424.727 152.549C424.405 152.549 424.108 152.618 423.837 152.756C423.566 152.889 423.333 153.088 423.139 153.354C422.945 153.62 422.794 153.945 422.686 154.329C422.579 154.712 422.525 155.154 422.525 155.656V155.978C422.525 156.371 422.579 156.742 422.686 157.09C422.799 157.433 422.96 157.734 423.17 157.995C423.384 158.256 423.643 158.46 423.944 158.609C424.251 158.757 424.599 158.831 424.987 158.831C425.489 158.831 425.913 158.729 426.261 158.524C426.609 158.32 426.913 158.046 427.174 157.704L428.033 158.386C427.854 158.657 427.626 158.915 427.35 159.161C427.074 159.406 426.734 159.606 426.33 159.759C425.931 159.913 425.458 159.989 424.911 159.989ZM433.272 151.537V152.626H428.784V151.537H433.272ZM430.303 149.519H431.722V157.78C431.722 158.062 431.766 158.274 431.853 158.417C431.939 158.56 432.052 158.655 432.19 158.701C432.328 158.747 432.476 158.77 432.635 158.77C432.753 158.77 432.875 158.76 433.003 158.739C433.136 158.713 433.236 158.693 433.302 158.678L433.31 159.836C433.197 159.872 433.049 159.905 432.865 159.936C432.686 159.971 432.469 159.989 432.213 159.989C431.865 159.989 431.546 159.92 431.254 159.782C430.963 159.644 430.73 159.414 430.556 159.092C430.387 158.765 430.303 158.325 430.303 157.773V149.519ZM437.268 158.977L439.577 151.537H441.095L437.766 161.117C437.69 161.321 437.588 161.541 437.46 161.777C437.337 162.017 437.178 162.244 436.984 162.459C436.79 162.674 436.555 162.848 436.278 162.981C436.007 163.119 435.683 163.188 435.304 163.188C435.192 163.188 435.049 163.173 434.875 163.142C434.701 163.111 434.578 163.086 434.507 163.065L434.499 161.915C434.54 161.92 434.604 161.925 434.691 161.93C434.783 161.94 434.847 161.945 434.882 161.945C435.205 161.945 435.478 161.902 435.703 161.815C435.928 161.733 436.117 161.592 436.271 161.393C436.429 161.199 436.565 160.93 436.677 160.588L437.268 158.977ZM435.573 151.537L437.728 157.98L438.096 159.475L437.076 159.997L434.023 151.537H435.573ZM448.375 158.363L450.507 151.537H451.443L451.259 152.894L449.088 159.836H448.175L448.375 158.363ZM446.94 151.537L448.758 158.44L448.889 159.836H447.93L445.521 151.537H446.94ZM453.483 158.386L455.217 151.537H456.628L454.22 159.836H453.268L453.483 158.386ZM451.65 151.537L453.736 158.248L453.974 159.836H453.069L450.837 152.879L450.653 151.537H451.65ZM459.627 151.537V159.836H458.201V151.537H459.627ZM458.093 149.335C458.093 149.105 458.162 148.911 458.3 148.752C458.443 148.594 458.653 148.514 458.929 148.514C459.2 148.514 459.407 148.594 459.551 148.752C459.699 148.911 459.773 149.105 459.773 149.335C459.773 149.555 459.699 149.744 459.551 149.903C459.407 150.056 459.2 150.133 458.929 150.133C458.653 150.133 458.443 150.056 458.3 149.903C458.162 149.744 458.093 149.555 458.093 149.335ZM465.38 151.537V152.626H460.893V151.537H465.38ZM462.412 149.519H463.831V157.78C463.831 158.062 463.874 158.274 463.961 158.417C464.048 158.56 464.161 158.655 464.299 158.701C464.437 158.747 464.585 158.77 464.743 158.77C464.861 158.77 464.984 158.76 465.112 158.739C465.245 158.713 465.344 158.693 465.411 158.678L465.418 159.836C465.306 159.872 465.158 159.905 464.974 159.936C464.795 159.971 464.577 159.989 464.322 159.989C463.974 159.989 463.654 159.92 463.363 159.782C463.071 159.644 462.839 159.414 462.665 159.092C462.496 158.765 462.412 158.325 462.412 157.773V149.519ZM468.464 148.054V159.836H467.045V148.054H468.464ZM468.126 155.372L467.536 155.349C467.541 154.781 467.625 154.257 467.789 153.776C467.952 153.29 468.182 152.869 468.479 152.511C468.776 152.153 469.128 151.877 469.537 151.682C469.952 151.483 470.409 151.383 470.911 151.383C471.32 151.383 471.688 151.439 472.015 151.552C472.342 151.659 472.621 151.833 472.851 152.073C473.086 152.314 473.265 152.626 473.388 153.009C473.511 153.388 473.572 153.85 473.572 154.398V159.836H472.145V154.382C472.145 153.948 472.082 153.6 471.954 153.339C471.826 153.073 471.639 152.881 471.394 152.764C471.148 152.641 470.847 152.58 470.489 152.58C470.136 152.58 469.814 152.654 469.522 152.802C469.236 152.95 468.988 153.155 468.778 153.416C468.574 153.677 468.412 153.976 468.295 154.313C468.182 154.646 468.126 154.998 468.126 155.372ZM379.832 167.657L376.134 177.836H374.623L378.88 166.668H379.855L379.832 167.657ZM382.93 177.836L379.226 167.657L379.203 166.668H380.177L384.449 177.836H382.93ZM382.739 173.702V174.913H376.464V173.702H382.739ZM390.624 176.417V172.144C390.624 171.817 390.557 171.533 390.424 171.293C390.297 171.048 390.102 170.858 389.841 170.725C389.581 170.592 389.259 170.526 388.875 170.526C388.517 170.526 388.203 170.587 387.932 170.71C387.666 170.833 387.456 170.994 387.303 171.193C387.154 171.393 387.08 171.608 387.08 171.838H385.661C385.661 171.541 385.738 171.247 385.891 170.956C386.045 170.664 386.264 170.401 386.551 170.165C386.842 169.925 387.19 169.736 387.594 169.598C388.003 169.455 388.458 169.383 388.959 169.383C389.563 169.383 390.095 169.485 390.555 169.69C391.02 169.894 391.383 170.204 391.644 170.618C391.91 171.027 392.043 171.541 392.043 172.16V176.026C392.043 176.302 392.066 176.596 392.112 176.908C392.163 177.22 392.237 177.488 392.334 177.713V177.836H390.854C390.782 177.672 390.726 177.455 390.685 177.184C390.644 176.908 390.624 176.652 390.624 176.417ZM390.869 172.804L390.885 173.801H389.45C389.046 173.801 388.686 173.835 388.369 173.901C388.052 173.962 387.786 174.057 387.571 174.185C387.356 174.313 387.193 174.474 387.08 174.668C386.968 174.857 386.911 175.08 386.911 175.335C386.911 175.596 386.97 175.834 387.088 176.049C387.205 176.263 387.382 176.435 387.617 176.563C387.857 176.685 388.151 176.747 388.499 176.747C388.934 176.747 389.317 176.655 389.65 176.471C389.982 176.287 390.245 176.062 390.44 175.796C390.639 175.53 390.747 175.271 390.762 175.021L391.368 175.704C391.332 175.918 391.235 176.156 391.076 176.417C390.918 176.678 390.706 176.928 390.44 177.169C390.179 177.404 389.867 177.601 389.504 177.759C389.146 177.913 388.742 177.989 388.292 177.989C387.73 177.989 387.236 177.879 386.812 177.66C386.392 177.44 386.065 177.146 385.83 176.777C385.6 176.404 385.485 175.987 385.485 175.527C385.485 175.082 385.572 174.691 385.745 174.354C385.919 174.011 386.17 173.727 386.497 173.502C386.824 173.272 387.218 173.098 387.678 172.981C388.139 172.863 388.653 172.804 389.22 172.804H390.869ZM395.694 170.84V177.836H394.275V169.537H395.656L395.694 170.84ZM398.287 169.49L398.279 170.81C398.161 170.784 398.049 170.769 397.941 170.764C397.839 170.754 397.722 170.748 397.589 170.748C397.261 170.748 396.972 170.8 396.722 170.902C396.471 171.004 396.259 171.147 396.085 171.331C395.911 171.515 395.773 171.735 395.671 171.991C395.574 172.242 395.51 172.518 395.479 172.819L395.08 173.05C395.08 172.548 395.129 172.078 395.226 171.638C395.328 171.198 395.484 170.81 395.694 170.472C395.904 170.13 396.17 169.864 396.492 169.675C396.819 169.48 397.208 169.383 397.658 169.383C397.76 169.383 397.878 169.396 398.011 169.421C398.143 169.442 398.236 169.465 398.287 169.49ZM399.069 173.778V173.602C399.069 173.004 399.156 172.449 399.33 171.937C399.504 171.421 399.754 170.973 400.082 170.595C400.409 170.212 400.805 169.915 401.27 169.705C401.736 169.49 402.257 169.383 402.835 169.383C403.418 169.383 403.942 169.49 404.408 169.705C404.878 169.915 405.277 170.212 405.604 170.595C405.937 170.973 406.19 171.421 406.364 171.937C406.538 172.449 406.624 173.004 406.624 173.602V173.778C406.624 174.377 406.538 174.931 406.364 175.443C406.19 175.954 405.937 176.402 405.604 176.785C405.277 177.163 404.881 177.46 404.415 177.675C403.955 177.885 403.434 177.989 402.851 177.989C402.268 177.989 401.743 177.885 401.278 177.675C400.813 177.46 400.414 177.163 400.082 176.785C399.754 176.402 399.504 175.954 399.33 175.443C399.156 174.931 399.069 174.377 399.069 173.778ZM400.488 173.602V173.778C400.488 174.192 400.537 174.584 400.634 174.952C400.731 175.315 400.877 175.637 401.071 175.918C401.27 176.2 401.518 176.422 401.815 176.586C402.112 176.744 402.457 176.823 402.851 176.823C403.239 176.823 403.579 176.744 403.871 176.586C404.167 176.422 404.413 176.2 404.607 175.918C404.801 175.637 404.947 175.315 405.044 174.952C405.147 174.584 405.198 174.192 405.198 173.778V173.602C405.198 173.193 405.147 172.807 405.044 172.444C404.947 172.075 404.799 171.751 404.599 171.469C404.405 171.183 404.16 170.958 403.863 170.794C403.572 170.631 403.229 170.549 402.835 170.549C402.447 170.549 402.104 170.631 401.807 170.794C401.516 170.958 401.27 171.183 401.071 171.469C400.877 171.751 400.731 172.075 400.634 172.444C400.537 172.807 400.488 173.193 400.488 173.602ZM413.781 169.537H415.07V177.66C415.07 178.391 414.921 179.015 414.625 179.531C414.328 180.048 413.914 180.439 413.382 180.705C412.855 180.976 412.247 181.111 411.557 181.111C411.27 181.111 410.933 181.065 410.544 180.973C410.161 180.886 409.782 180.735 409.409 180.521C409.041 180.311 408.731 180.027 408.481 179.669L409.225 178.825C409.572 179.245 409.936 179.536 410.314 179.7C410.697 179.863 411.076 179.945 411.449 179.945C411.899 179.945 412.288 179.861 412.615 179.692C412.942 179.523 413.195 179.273 413.374 178.94C413.559 178.613 413.651 178.209 413.651 177.729V171.362L413.781 169.537ZM408.066 173.778V173.617C408.066 172.983 408.141 172.408 408.289 171.891C408.442 171.37 408.66 170.922 408.941 170.549C409.227 170.176 409.572 169.889 409.976 169.69C410.38 169.485 410.836 169.383 411.342 169.383C411.863 169.383 412.318 169.475 412.707 169.659C413.101 169.838 413.433 170.102 413.704 170.449C413.98 170.792 414.198 171.206 414.356 171.692C414.515 172.178 414.625 172.727 414.686 173.341V174.047C414.63 174.655 414.52 175.202 414.356 175.688C414.198 176.174 413.98 176.588 413.704 176.931C413.433 177.273 413.101 177.537 412.707 177.721C412.313 177.9 411.853 177.989 411.326 177.989C410.83 177.989 410.38 177.885 409.976 177.675C409.578 177.465 409.235 177.171 408.949 176.793C408.662 176.414 408.442 175.969 408.289 175.458C408.141 174.942 408.066 174.382 408.066 173.778ZM409.486 173.617V173.778C409.486 174.192 409.526 174.581 409.608 174.944C409.695 175.307 409.826 175.627 409.999 175.903C410.178 176.179 410.406 176.396 410.682 176.555C410.958 176.708 411.288 176.785 411.672 176.785C412.142 176.785 412.531 176.685 412.838 176.486C413.144 176.287 413.387 176.023 413.566 175.696C413.75 175.369 413.893 175.013 413.996 174.63V172.781C413.939 172.5 413.853 172.229 413.735 171.968C413.622 171.702 413.474 171.467 413.29 171.262C413.111 171.053 412.889 170.887 412.623 170.764C412.357 170.641 412.045 170.58 411.687 170.58C411.298 170.58 410.963 170.662 410.682 170.825C410.406 170.984 410.178 171.204 409.999 171.485C409.826 171.761 409.695 172.083 409.608 172.451C409.526 172.814 409.486 173.203 409.486 173.617ZM419.557 176.977L421.866 169.537H423.384L420.055 179.117C419.979 179.321 419.876 179.541 419.749 179.777C419.626 180.017 419.467 180.244 419.273 180.459C419.079 180.674 418.843 180.848 418.567 180.981C418.296 181.119 417.972 181.188 417.593 181.188C417.481 181.188 417.338 181.173 417.164 181.142C416.99 181.111 416.867 181.086 416.795 181.065L416.788 179.915C416.829 179.92 416.893 179.925 416.98 179.93C417.072 179.94 417.136 179.945 417.171 179.945C417.493 179.945 417.767 179.902 417.992 179.815C418.217 179.733 418.406 179.592 418.56 179.393C418.718 179.199 418.854 178.93 418.966 178.588L419.557 176.977ZM417.862 169.537L420.017 175.98L420.385 177.475L419.365 177.997L416.312 169.537H417.862ZM429.436 176.417V172.144C429.436 171.817 429.37 171.533 429.237 171.293C429.109 171.048 428.915 170.858 428.654 170.725C428.393 170.592 428.071 170.526 427.687 170.526C427.33 170.526 427.015 170.587 426.744 170.71C426.478 170.833 426.268 170.994 426.115 171.193C425.967 171.393 425.893 171.608 425.893 171.838H424.474C424.474 171.541 424.55 171.247 424.704 170.956C424.857 170.664 425.077 170.401 425.363 170.165C425.655 169.925 426.003 169.736 426.407 169.598C426.816 169.455 427.271 169.383 427.772 169.383C428.375 169.383 428.907 169.485 429.367 169.69C429.833 169.894 430.196 170.204 430.457 170.618C430.722 171.027 430.855 171.541 430.855 172.16V176.026C430.855 176.302 430.878 176.596 430.924 176.908C430.976 177.22 431.05 177.488 431.147 177.713V177.836H429.666C429.595 177.672 429.539 177.455 429.498 177.184C429.457 176.908 429.436 176.652 429.436 176.417ZM429.682 172.804L429.697 173.801H428.263C427.859 173.801 427.498 173.835 427.181 173.901C426.864 173.962 426.598 174.057 426.384 174.185C426.169 174.313 426.005 174.474 425.893 174.668C425.78 174.857 425.724 175.08 425.724 175.335C425.724 175.596 425.783 175.834 425.9 176.049C426.018 176.263 426.194 176.435 426.43 176.563C426.67 176.685 426.964 176.747 427.312 176.747C427.746 176.747 428.13 176.655 428.462 176.471C428.795 176.287 429.058 176.062 429.252 175.796C429.452 175.53 429.559 175.271 429.574 175.021L430.18 175.704C430.145 175.918 430.047 176.156 429.889 176.417C429.73 176.678 429.518 176.928 429.252 177.169C428.991 177.404 428.68 177.601 428.316 177.759C427.959 177.913 427.555 177.989 427.105 177.989C426.542 177.989 426.049 177.879 425.624 177.66C425.205 177.44 424.878 177.146 424.642 176.777C424.412 176.404 424.297 175.987 424.297 175.527C424.297 175.082 424.384 174.691 424.558 174.354C424.732 174.011 424.982 173.727 425.31 173.502C425.637 173.272 426.031 173.098 426.491 172.981C426.951 172.863 427.465 172.804 428.033 172.804H429.682ZM443.151 175.013C443.151 174.752 443.11 174.522 443.028 174.323C442.952 174.118 442.814 173.934 442.614 173.771C442.42 173.607 442.149 173.451 441.801 173.303C441.459 173.154 441.024 173.004 440.497 172.85C439.945 172.687 439.446 172.505 439.001 172.306C438.557 172.101 438.176 171.868 437.859 171.608C437.541 171.347 437.299 171.048 437.13 170.71C436.961 170.373 436.877 169.987 436.877 169.552C436.877 169.117 436.966 168.716 437.145 168.348C437.324 167.979 437.58 167.66 437.912 167.389C438.25 167.113 438.651 166.898 439.116 166.744C439.582 166.591 440.101 166.514 440.674 166.514C441.512 166.514 442.223 166.675 442.806 166.998C443.394 167.315 443.841 167.731 444.148 168.248C444.455 168.759 444.609 169.306 444.609 169.889H443.136C443.136 169.47 443.046 169.099 442.867 168.777C442.688 168.45 442.417 168.194 442.054 168.01C441.691 167.821 441.231 167.726 440.674 167.726C440.147 167.726 439.712 167.806 439.37 167.964C439.027 168.123 438.771 168.337 438.603 168.608C438.439 168.879 438.357 169.189 438.357 169.537C438.357 169.772 438.406 169.987 438.503 170.181C438.605 170.37 438.761 170.546 438.971 170.71C439.186 170.874 439.457 171.025 439.784 171.163C440.116 171.301 440.513 171.434 440.973 171.562C441.607 171.74 442.154 171.94 442.614 172.16C443.074 172.38 443.453 172.628 443.749 172.904C444.051 173.175 444.274 173.484 444.417 173.832C444.565 174.175 444.639 174.563 444.639 174.998C444.639 175.453 444.547 175.865 444.363 176.233C444.179 176.601 443.916 176.915 443.573 177.176C443.23 177.437 442.819 177.639 442.338 177.782C441.863 177.92 441.331 177.989 440.743 177.989C440.226 177.989 439.717 177.918 439.216 177.775C438.72 177.631 438.268 177.417 437.859 177.13C437.455 176.844 437.13 176.491 436.884 176.072C436.644 175.647 436.524 175.156 436.524 174.599H437.997C437.997 174.983 438.071 175.312 438.219 175.588C438.367 175.86 438.569 176.085 438.825 176.263C439.086 176.442 439.38 176.575 439.707 176.662C440.039 176.744 440.385 176.785 440.743 176.785C441.259 176.785 441.696 176.713 442.054 176.57C442.412 176.427 442.683 176.223 442.867 175.957C443.057 175.691 443.151 175.376 443.151 175.013ZM449.755 177.989C449.178 177.989 448.653 177.892 448.183 177.698C447.718 177.498 447.316 177.22 446.979 176.862C446.646 176.504 446.391 176.079 446.212 175.588C446.033 175.098 445.943 174.561 445.943 173.978V173.656C445.943 172.981 446.043 172.38 446.242 171.853C446.442 171.321 446.713 170.871 447.055 170.503C447.398 170.135 447.787 169.856 448.221 169.667C448.656 169.478 449.106 169.383 449.571 169.383C450.164 169.383 450.676 169.485 451.105 169.69C451.54 169.894 451.895 170.181 452.172 170.549C452.448 170.912 452.652 171.342 452.785 171.838C452.918 172.329 452.985 172.865 452.985 173.448V174.085H446.787V172.927H451.566V172.819C451.545 172.451 451.468 172.093 451.336 171.746C451.208 171.398 451.003 171.112 450.722 170.887C450.441 170.662 450.057 170.549 449.571 170.549C449.249 170.549 448.953 170.618 448.682 170.756C448.411 170.889 448.178 171.088 447.984 171.354C447.789 171.62 447.638 171.945 447.531 172.329C447.424 172.712 447.37 173.154 447.37 173.656V173.978C447.37 174.371 447.424 174.742 447.531 175.09C447.643 175.433 447.805 175.734 448.014 175.995C448.229 176.256 448.487 176.46 448.789 176.609C449.096 176.757 449.443 176.831 449.832 176.831C450.333 176.831 450.758 176.729 451.105 176.524C451.453 176.32 451.757 176.046 452.018 175.704L452.877 176.386C452.698 176.657 452.471 176.915 452.195 177.161C451.918 177.406 451.578 177.606 451.174 177.759C450.776 177.913 450.303 177.989 449.755 177.989ZM458.116 169.537V170.626H453.629V169.537H458.116ZM455.148 167.519H456.567V175.78C456.567 176.062 456.61 176.274 456.697 176.417C456.784 176.56 456.897 176.655 457.035 176.701C457.173 176.747 457.321 176.77 457.48 176.77C457.597 176.77 457.72 176.76 457.848 176.739C457.981 176.713 458.08 176.693 458.147 176.678L458.155 177.836C458.042 177.872 457.894 177.905 457.71 177.936C457.531 177.971 457.313 177.989 457.058 177.989C456.71 177.989 456.39 177.92 456.099 177.782C455.807 177.644 455.575 177.414 455.401 177.092C455.232 176.765 455.148 176.325 455.148 175.773V167.519ZM464.859 175.918V169.537H466.285V177.836H464.928L464.859 175.918ZM465.127 174.169L465.718 174.154C465.718 174.706 465.659 175.218 465.541 175.688C465.429 176.154 465.245 176.558 464.989 176.9C464.733 177.243 464.398 177.511 463.984 177.706C463.57 177.895 463.066 177.989 462.473 177.989C462.069 177.989 461.698 177.931 461.361 177.813C461.028 177.695 460.742 177.514 460.502 177.268C460.261 177.023 460.075 176.703 459.942 176.31C459.814 175.916 459.75 175.443 459.75 174.89V169.537H461.169V174.906C461.169 175.279 461.21 175.588 461.292 175.834C461.379 176.074 461.494 176.266 461.637 176.409C461.785 176.547 461.949 176.644 462.128 176.701C462.312 176.757 462.501 176.785 462.695 176.785C463.299 176.785 463.777 176.67 464.13 176.44C464.483 176.205 464.736 175.89 464.889 175.496C465.048 175.098 465.127 174.655 465.127 174.169ZM477.239 176.417V172.144C477.239 171.817 477.172 171.533 477.039 171.293C476.911 171.048 476.717 170.858 476.456 170.725C476.195 170.592 475.873 170.526 475.49 170.526C475.132 170.526 474.817 170.587 474.546 170.71C474.28 170.833 474.071 170.994 473.917 171.193C473.769 171.393 473.695 171.608 473.695 171.838H472.276C472.276 171.541 472.353 171.247 472.506 170.956C472.659 170.664 472.879 170.401 473.166 170.165C473.457 169.925 473.805 169.736 474.209 169.598C474.618 169.455 475.073 169.383 475.574 169.383C476.178 169.383 476.709 169.485 477.17 169.69C477.635 169.894 477.998 170.204 478.259 170.618C478.525 171.027 478.658 171.541 478.658 172.16V176.026C478.658 176.302 478.681 176.596 478.727 176.908C478.778 177.22 478.852 177.488 478.949 177.713V177.836H477.469C477.397 177.672 477.341 177.455 477.3 177.184C477.259 176.908 477.239 176.652 477.239 176.417ZM477.484 172.804L477.499 173.801H476.065C475.661 173.801 475.301 173.835 474.984 173.901C474.666 173.962 474.401 174.057 474.186 174.185C473.971 174.313 473.807 174.474 473.695 174.668C473.582 174.857 473.526 175.08 473.526 175.335C473.526 175.596 473.585 175.834 473.703 176.049C473.82 176.263 473.997 176.435 474.232 176.563C474.472 176.685 474.766 176.747 475.114 176.747C475.549 176.747 475.932 176.655 476.264 176.471C476.597 176.287 476.86 176.062 477.055 175.796C477.254 175.53 477.361 175.271 477.377 175.021L477.983 175.704C477.947 175.918 477.85 176.156 477.691 176.417C477.533 176.678 477.32 176.928 477.055 177.169C476.794 177.404 476.482 177.601 476.119 177.759C475.761 177.913 475.357 177.989 474.907 177.989C474.344 177.989 473.851 177.879 473.426 177.66C473.007 177.44 472.68 177.146 472.445 176.777C472.214 176.404 472.099 175.987 472.099 175.527C472.099 175.082 472.186 174.691 472.36 174.354C472.534 174.011 472.785 173.727 473.112 173.502C473.439 173.272 473.833 173.098 474.293 172.981C474.753 172.863 475.267 172.804 475.835 172.804H477.484ZM482.309 171.132V181.027H480.882V169.537H482.186L482.309 171.132ZM487.901 173.617V173.778C487.901 174.382 487.829 174.942 487.686 175.458C487.543 175.969 487.333 176.414 487.057 176.793C486.786 177.171 486.451 177.465 486.052 177.675C485.653 177.885 485.195 177.989 484.679 177.989C484.152 177.989 483.687 177.902 483.283 177.729C482.879 177.555 482.536 177.302 482.255 176.969C481.974 176.637 481.749 176.238 481.58 175.773C481.416 175.307 481.304 174.783 481.243 174.2V173.341C481.304 172.727 481.419 172.178 481.588 171.692C481.757 171.206 481.979 170.792 482.255 170.449C482.536 170.102 482.876 169.838 483.275 169.659C483.674 169.475 484.134 169.383 484.656 169.383C485.178 169.383 485.64 169.485 486.044 169.69C486.448 169.889 486.788 170.176 487.064 170.549C487.341 170.922 487.548 171.37 487.686 171.891C487.829 172.408 487.901 172.983 487.901 173.617ZM486.474 173.778V173.617C486.474 173.203 486.43 172.814 486.343 172.451C486.257 172.083 486.121 171.761 485.937 171.485C485.758 171.204 485.528 170.984 485.247 170.825C484.965 170.662 484.63 170.58 484.242 170.58C483.884 170.58 483.572 170.641 483.306 170.764C483.045 170.887 482.823 171.053 482.639 171.262C482.455 171.467 482.304 171.702 482.186 171.968C482.074 172.229 481.989 172.5 481.933 172.781V174.768C482.035 175.126 482.178 175.463 482.363 175.78C482.547 176.092 482.792 176.345 483.099 176.54C483.406 176.729 483.792 176.823 484.257 176.823C484.641 176.823 484.97 176.744 485.247 176.586C485.528 176.422 485.758 176.2 485.937 175.918C486.121 175.637 486.257 175.315 486.343 174.952C486.43 174.584 486.474 174.192 486.474 173.778ZM491.13 171.132V181.027H489.703V169.537H491.007L491.13 171.132ZM496.722 173.617V173.778C496.722 174.382 496.65 174.942 496.507 175.458C496.364 175.969 496.154 176.414 495.878 176.793C495.607 177.171 495.272 177.465 494.873 177.675C494.474 177.885 494.016 177.989 493.5 177.989C492.973 177.989 492.508 177.902 492.104 177.729C491.7 177.555 491.357 177.302 491.076 176.969C490.795 176.637 490.57 176.238 490.401 175.773C490.237 175.307 490.125 174.783 490.064 174.2V173.341C490.125 172.727 490.24 172.178 490.409 171.692C490.578 171.206 490.8 170.792 491.076 170.449C491.357 170.102 491.697 169.838 492.096 169.659C492.495 169.475 492.955 169.383 493.477 169.383C493.999 169.383 494.461 169.485 494.865 169.69C495.269 169.889 495.609 170.176 495.886 170.549C496.162 170.922 496.369 171.37 496.507 171.891C496.65 172.408 496.722 172.983 496.722 173.617ZM495.295 173.778V173.617C495.295 173.203 495.251 172.814 495.164 172.451C495.078 172.083 494.942 171.761 494.758 171.485C494.579 171.204 494.349 170.984 494.068 170.825C493.786 170.662 493.451 170.58 493.063 170.58C492.705 170.58 492.393 170.641 492.127 170.764C491.866 170.887 491.644 171.053 491.46 171.262C491.276 171.467 491.125 171.702 491.007 171.968C490.895 172.229 490.81 172.5 490.754 172.781V174.768C490.856 175.126 490.999 175.463 491.184 175.78C491.368 176.092 491.613 176.345 491.92 176.54C492.227 176.729 492.613 176.823 493.078 176.823C493.462 176.823 493.791 176.744 494.068 176.586C494.349 176.422 494.579 176.2 494.758 175.918C494.942 175.637 495.078 175.315 495.164 174.952C495.251 174.584 495.295 174.192 495.295 173.778Z" fill="black"/>
<circle cx="94.256" cy="103.127" r="41.9727" stroke="#EEEEEE" stroke-width="1.47273"/>
<path d="M56.4 148.668H57.8727V156.223C57.8727 157.062 57.6861 157.76 57.3128 158.317C56.9395 158.875 56.4435 159.294 55.8247 159.575C55.2111 159.851 54.5437 159.989 53.8227 159.989C53.0659 159.989 52.3807 159.851 51.767 159.575C51.1585 159.294 50.6753 158.875 50.3173 158.317C49.9645 157.76 49.7881 157.062 49.7881 156.223V148.668H51.2531V156.223C51.2531 156.806 51.3605 157.287 51.5753 157.665C51.7901 158.044 52.0892 158.325 52.4727 158.509C52.8614 158.693 53.3114 158.785 53.8227 158.785C54.3392 158.785 54.7892 158.693 55.1727 158.509C55.5614 158.325 55.8631 158.044 56.0778 157.665C56.2926 157.287 56.4 156.806 56.4 156.223V148.668ZM64.8145 157.635C64.8145 157.43 64.7685 157.241 64.6764 157.067C64.5895 156.888 64.408 156.727 64.1318 156.584C63.8608 156.435 63.4517 156.308 62.9045 156.2C62.4443 156.103 62.0276 155.988 61.6543 155.855C61.2861 155.722 60.9716 155.561 60.7108 155.372C60.4551 155.183 60.2582 154.96 60.1202 154.704C59.9821 154.449 59.9131 154.15 59.9131 153.807C59.9131 153.48 59.9847 153.17 60.1278 152.879C60.2761 152.587 60.4832 152.329 60.7491 152.104C61.0202 151.879 61.3449 151.703 61.7233 151.575C62.1017 151.447 62.5236 151.383 62.9889 151.383C63.6537 151.383 64.2213 151.501 64.6918 151.736C65.1622 151.971 65.5227 152.286 65.7733 152.679C66.0239 153.068 66.1491 153.5 66.1491 153.976H64.7301C64.7301 153.746 64.6611 153.523 64.523 153.308C64.3901 153.088 64.1932 152.907 63.9324 152.764C63.6767 152.621 63.3622 152.549 62.9889 152.549C62.5952 152.549 62.2756 152.61 62.0301 152.733C61.7898 152.851 61.6134 153.002 61.5009 153.186C61.3935 153.37 61.3398 153.564 61.3398 153.769C61.3398 153.922 61.3653 154.06 61.4165 154.183C61.4727 154.3 61.5699 154.41 61.708 154.513C61.846 154.61 62.0403 154.702 62.2909 154.789C62.5415 154.876 62.8611 154.963 63.2497 155.05C63.9298 155.203 64.4898 155.387 64.9295 155.602C65.3693 155.817 65.6966 156.08 65.9114 156.392C66.1261 156.704 66.2335 157.082 66.2335 157.527C66.2335 157.89 66.1568 158.223 66.0034 158.524C65.8551 158.826 65.6378 159.087 65.3514 159.307C65.0702 159.521 64.7327 159.69 64.3389 159.813C63.9503 159.931 63.5131 159.989 63.0273 159.989C62.296 159.989 61.6773 159.859 61.171 159.598C60.6648 159.337 60.2812 159 60.0205 158.586C59.7597 158.171 59.6293 157.734 59.6293 157.274H61.056C61.0764 157.663 61.1889 157.972 61.3935 158.202C61.598 158.427 61.8486 158.588 62.1452 158.685C62.4418 158.777 62.7358 158.823 63.0273 158.823C63.4159 158.823 63.7406 158.772 64.0014 158.67C64.2673 158.568 64.4693 158.427 64.6074 158.248C64.7455 158.069 64.8145 157.865 64.8145 157.635ZM71.5415 159.989C70.9636 159.989 70.4395 159.892 69.969 159.698C69.5037 159.498 69.1023 159.22 68.7648 158.862C68.4324 158.504 68.1767 158.079 67.9977 157.588C67.8187 157.098 67.7293 156.561 67.7293 155.978V155.656C67.7293 154.981 67.829 154.38 68.0284 153.853C68.2278 153.321 68.4989 152.871 68.8415 152.503C69.1841 152.135 69.5727 151.856 70.0074 151.667C70.442 151.478 70.892 151.383 71.3574 151.383C71.9506 151.383 72.4619 151.485 72.8915 151.69C73.3261 151.894 73.6815 152.181 73.9577 152.549C74.2338 152.912 74.4384 153.342 74.5713 153.838C74.7043 154.329 74.7707 154.865 74.7707 155.448V156.085H68.573V154.927H73.3517V154.819C73.3312 154.451 73.2545 154.093 73.1216 153.746C72.9937 153.398 72.7892 153.112 72.508 152.887C72.2267 152.662 71.8432 152.549 71.3574 152.549C71.0352 152.549 70.7386 152.618 70.4676 152.756C70.1966 152.889 69.9639 153.088 69.7696 153.354C69.5753 153.62 69.4244 153.945 69.317 154.329C69.2097 154.712 69.156 155.154 69.156 155.656V155.978C69.156 156.371 69.2097 156.742 69.317 157.09C69.4295 157.433 69.5906 157.734 69.8003 157.995C70.0151 158.256 70.2733 158.46 70.575 158.609C70.8818 158.757 71.2295 158.831 71.6182 158.831C72.1193 158.831 72.5437 158.729 72.8915 158.524C73.2392 158.32 73.5435 158.046 73.8043 157.704L74.6634 158.386C74.4844 158.657 74.2568 158.915 73.9807 159.161C73.7045 159.406 73.3645 159.606 72.9605 159.759C72.5616 159.913 72.0886 159.989 71.5415 159.989ZM79.9483 155.778V155.602C79.9483 155.004 80.0352 154.449 80.2091 153.937C80.383 153.421 80.6335 152.973 80.9608 152.595C81.2881 152.212 81.6844 151.915 82.1497 151.705C82.6151 151.49 83.1366 151.383 83.7145 151.383C84.2974 151.383 84.8216 151.49 85.2869 151.705C85.7574 151.915 86.1563 152.212 86.4835 152.595C86.8159 152.973 87.069 153.421 87.2429 153.937C87.4168 154.449 87.5037 155.004 87.5037 155.602V155.778C87.5037 156.377 87.4168 156.931 87.2429 157.443C87.069 157.954 86.8159 158.402 86.4835 158.785C86.1563 159.163 85.7599 159.46 85.2946 159.675C84.8344 159.885 84.3128 159.989 83.7298 159.989C83.1469 159.989 82.6227 159.885 82.1574 159.675C81.692 159.46 81.2932 159.163 80.9608 158.785C80.6335 158.402 80.383 157.954 80.2091 157.443C80.0352 156.931 79.9483 156.377 79.9483 155.778ZM81.3673 155.602V155.778C81.3673 156.192 81.4159 156.584 81.5131 156.952C81.6102 157.315 81.756 157.637 81.9503 157.918C82.1497 158.2 82.3977 158.422 82.6943 158.586C82.9909 158.744 83.3361 158.823 83.7298 158.823C84.1185 158.823 84.4585 158.744 84.75 158.586C85.0466 158.422 85.292 158.2 85.4864 157.918C85.6807 157.637 85.8264 157.315 85.9236 156.952C86.0259 156.584 86.077 156.192 86.077 155.778V155.602C86.077 155.193 86.0259 154.807 85.9236 154.444C85.8264 154.075 85.6781 153.751 85.4787 153.469C85.2844 153.183 85.0389 152.958 84.7423 152.794C84.4509 152.631 84.1082 152.549 83.7145 152.549C83.3259 152.549 82.9832 152.631 82.6866 152.794C82.3952 152.958 82.1497 153.183 81.9503 153.469C81.756 153.751 81.6102 154.075 81.5131 154.444C81.4159 154.807 81.3673 155.193 81.3673 155.602ZM91.4003 159.836H89.9813V150.662C89.9813 150.064 90.0886 149.56 90.3034 149.151C90.5233 148.737 90.8378 148.425 91.2469 148.215C91.656 148 92.1418 147.893 92.7043 147.893C92.8679 147.893 93.0315 147.903 93.1952 147.924C93.3639 147.944 93.5276 147.975 93.6861 148.016L93.6094 149.174C93.502 149.148 93.3793 149.131 93.2412 149.12C93.1082 149.11 92.9753 149.105 92.8423 149.105C92.5406 149.105 92.2798 149.166 92.0599 149.289C91.8452 149.407 91.6815 149.581 91.569 149.811C91.4565 150.041 91.4003 150.325 91.4003 150.662V159.836ZM93.1645 151.537V152.626H88.6696V151.537H93.1645ZM99.3239 148.668H100.758L104.417 157.773L108.068 148.668H109.51L104.969 159.836H103.849L99.3239 148.668ZM98.856 148.668H100.122L100.329 155.479V159.836H98.856V148.668ZM108.705 148.668H109.97V159.836H108.498V155.479L108.705 148.668ZM117.25 158.417V154.144C117.25 153.817 117.183 153.533 117.05 153.293C116.922 153.048 116.728 152.858 116.467 152.725C116.207 152.592 115.884 152.526 115.501 152.526C115.143 152.526 114.828 152.587 114.557 152.71C114.291 152.833 114.082 152.994 113.928 153.193C113.78 153.393 113.706 153.608 113.706 153.838H112.287C112.287 153.541 112.364 153.247 112.517 152.956C112.67 152.664 112.89 152.401 113.177 152.165C113.468 151.925 113.816 151.736 114.22 151.598C114.629 151.455 115.084 151.383 115.585 151.383C116.189 151.383 116.72 151.485 117.181 151.69C117.646 151.894 118.009 152.204 118.27 152.618C118.536 153.027 118.669 153.541 118.669 154.16V158.026C118.669 158.302 118.692 158.596 118.738 158.908C118.789 159.22 118.863 159.488 118.96 159.713V159.836H117.48C117.408 159.672 117.352 159.455 117.311 159.184C117.27 158.908 117.25 158.652 117.25 158.417ZM117.495 154.804L117.511 155.801H116.076C115.672 155.801 115.312 155.835 114.995 155.901C114.678 155.962 114.412 156.057 114.197 156.185C113.982 156.313 113.818 156.474 113.706 156.668C113.593 156.857 113.537 157.08 113.537 157.335C113.537 157.596 113.596 157.834 113.714 158.049C113.831 158.263 114.008 158.435 114.243 158.563C114.483 158.685 114.777 158.747 115.125 158.747C115.56 158.747 115.943 158.655 116.276 158.471C116.608 158.287 116.871 158.062 117.066 157.796C117.265 157.53 117.372 157.271 117.388 157.021L117.994 157.704C117.958 157.918 117.861 158.156 117.702 158.417C117.544 158.678 117.332 158.928 117.066 159.169C116.805 159.404 116.493 159.601 116.13 159.759C115.772 159.913 115.368 159.989 114.918 159.989C114.355 159.989 113.862 159.879 113.437 159.66C113.018 159.44 112.691 159.146 112.456 158.777C112.226 158.404 112.111 157.987 112.111 157.527C112.111 157.082 112.197 156.691 112.371 156.354C112.545 156.011 112.796 155.727 113.123 155.502C113.45 155.272 113.844 155.098 114.304 154.981C114.764 154.863 115.278 154.804 115.846 154.804H117.495ZM125.733 157.635C125.733 157.43 125.687 157.241 125.595 157.067C125.508 156.888 125.327 156.727 125.051 156.584C124.78 156.435 124.37 156.308 123.823 156.2C123.363 156.103 122.946 155.988 122.573 155.855C122.205 155.722 121.89 155.561 121.63 155.372C121.374 155.183 121.177 154.96 121.039 154.704C120.901 154.449 120.832 154.15 120.832 153.807C120.832 153.48 120.903 153.17 121.047 152.879C121.195 152.587 121.402 152.329 121.668 152.104C121.939 151.879 122.264 151.703 122.642 151.575C123.02 151.447 123.442 151.383 123.908 151.383C124.572 151.383 125.14 151.501 125.611 151.736C126.081 151.971 126.441 152.286 126.692 152.679C126.943 153.068 127.068 153.5 127.068 153.976H125.649C125.649 153.746 125.58 153.523 125.442 153.308C125.309 153.088 125.112 152.907 124.851 152.764C124.595 152.621 124.281 152.549 123.908 152.549C123.514 152.549 123.194 152.61 122.949 152.733C122.709 152.851 122.532 153.002 122.42 153.186C122.312 153.37 122.259 153.564 122.259 153.769C122.259 153.922 122.284 154.06 122.335 154.183C122.391 154.3 122.489 154.41 122.627 154.513C122.765 154.61 122.959 154.702 123.21 154.789C123.46 154.876 123.78 154.963 124.168 155.05C124.849 155.203 125.409 155.387 125.848 155.602C126.288 155.817 126.615 156.08 126.83 156.392C127.045 156.704 127.152 157.082 127.152 157.527C127.152 157.89 127.076 158.223 126.922 158.524C126.774 158.826 126.557 159.087 126.27 159.307C125.989 159.521 125.651 159.69 125.258 159.813C124.869 159.931 124.432 159.989 123.946 159.989C123.215 159.989 122.596 159.859 122.09 159.598C121.584 159.337 121.2 159 120.939 158.586C120.678 158.171 120.548 157.734 120.548 157.274H121.975C121.995 157.663 122.108 157.972 122.312 158.202C122.517 158.427 122.767 158.588 123.064 158.685C123.361 158.777 123.655 158.823 123.946 158.823C124.335 158.823 124.659 158.772 124.92 158.67C125.186 158.568 125.388 158.427 125.526 158.248C125.664 158.069 125.733 157.865 125.733 157.635ZM130.443 148.054V159.836H129.016V148.054H130.443ZM135.513 151.537L131.893 155.41L129.868 157.512L129.753 156.001L131.202 154.267L133.78 151.537H135.513ZM134.217 159.836L131.256 155.878L131.992 154.612L135.889 159.836H134.217ZM66.9085 171.638L68.5807 170.449C68.9028 170.229 69.1508 170.01 69.3247 169.79C69.5037 169.565 69.5932 169.258 69.5932 168.869C69.5932 168.567 69.4756 168.294 69.2403 168.048C69.0051 167.798 68.6727 167.673 68.2432 167.673C67.9466 167.673 67.696 167.742 67.4915 167.88C67.2869 168.018 67.1335 168.202 67.0312 168.432C66.929 168.657 66.8778 168.905 66.8778 169.176C66.8778 169.406 66.9341 169.644 67.0466 169.889C67.1591 170.135 67.3151 170.39 67.5145 170.656C67.7139 170.922 67.9415 171.204 68.1972 171.5L73.4821 177.836H71.7793L67.4455 172.651C67.0619 172.201 66.7193 171.789 66.4176 171.416C66.1159 171.037 65.8781 170.672 65.7043 170.319C65.5355 169.966 65.4511 169.6 65.4511 169.222C65.4511 168.639 65.5662 168.148 65.7963 167.749C66.0315 167.345 66.3588 167.038 66.7781 166.829C67.1974 166.619 67.6883 166.514 68.2508 166.514C68.798 166.514 69.2685 166.624 69.6622 166.844C70.0611 167.059 70.3679 167.345 70.5827 167.703C70.7974 168.056 70.9048 168.445 70.9048 168.869C70.9048 169.227 70.8409 169.549 70.7131 169.836C70.5852 170.117 70.4062 170.375 70.1761 170.61C69.9511 170.846 69.6878 171.076 69.3861 171.301L67.1693 172.95C66.8011 173.221 66.5327 173.479 66.3639 173.725C66.1952 173.97 66.0852 174.187 66.0341 174.377C65.9881 174.566 65.9651 174.717 65.9651 174.829C65.9651 175.192 66.0443 175.525 66.2028 175.826C66.3614 176.128 66.6017 176.371 66.9239 176.555C67.2511 176.734 67.6602 176.823 68.1511 176.823C68.5807 176.823 68.9974 176.726 69.4014 176.532C69.8105 176.333 70.1761 176.051 70.4983 175.688C70.8205 175.32 71.0761 174.883 71.2653 174.377C71.4597 173.865 71.5568 173.3 71.5568 172.681H72.8301C72.8301 173.188 72.7815 173.666 72.6844 174.116C72.5872 174.566 72.4364 174.985 72.2318 175.374C72.0324 175.757 71.7767 176.108 71.4648 176.425C71.4187 176.471 71.383 176.524 71.3574 176.586C71.3318 176.647 71.296 176.701 71.25 176.747C70.8665 177.161 70.3935 177.473 69.831 177.683C69.2736 177.887 68.7136 177.989 68.1511 177.989C67.4097 177.989 66.7679 177.854 66.2258 177.583C65.6889 177.312 65.2747 176.938 64.9832 176.463C64.6918 175.987 64.546 175.443 64.546 174.829C64.546 174.359 64.6457 173.944 64.8452 173.587C65.0497 173.229 65.3284 172.894 65.6812 172.582C66.0392 172.27 66.4483 171.955 66.9085 171.638ZM86.9821 172.275V176.363C86.844 176.568 86.6241 176.798 86.3224 177.054C86.0207 177.304 85.604 177.524 85.0722 177.713C84.5455 177.897 83.8653 177.989 83.0318 177.989C82.3517 177.989 81.7253 177.872 81.1526 177.637C80.5849 177.396 80.0915 177.048 79.6722 176.593C79.258 176.133 78.9358 175.576 78.7057 174.921C78.4807 174.262 78.3682 173.515 78.3682 172.681V171.815C78.3682 170.981 78.4653 170.237 78.6597 169.583C78.8591 168.928 79.1506 168.373 79.5341 167.918C79.9176 167.458 80.3881 167.11 80.9455 166.875C81.5028 166.635 82.142 166.514 82.8631 166.514C83.717 166.514 84.4304 166.663 85.0031 166.959C85.581 167.251 86.031 167.655 86.3531 168.171C86.6804 168.688 86.8901 169.276 86.9821 169.935H85.5017C85.4352 169.531 85.3023 169.163 85.1028 168.831C84.9085 168.498 84.6298 168.233 84.2668 168.033C83.9037 167.829 83.4358 167.726 82.8631 167.726C82.3466 167.726 81.8991 167.821 81.5207 168.01C81.1423 168.199 80.8304 168.47 80.5849 168.823C80.3395 169.176 80.1554 169.603 80.0327 170.104C79.9151 170.605 79.8562 171.17 79.8562 171.799V172.681C79.8562 173.326 79.9304 173.901 80.0787 174.407C80.2321 174.913 80.4494 175.346 80.7307 175.704C81.0119 176.056 81.3469 176.325 81.7355 176.509C82.1293 176.693 82.5639 176.785 83.0395 176.785C83.5662 176.785 83.9932 176.742 84.3205 176.655C84.6477 176.563 84.9034 176.455 85.0875 176.333C85.2716 176.205 85.4122 176.085 85.5094 175.972V173.471H82.9244V172.275H86.9821ZM90.7636 166.054V177.836H89.3369V166.054H90.7636ZM92.6659 173.778V173.602C92.6659 173.004 92.7528 172.449 92.9267 171.937C93.1006 171.421 93.3511 170.973 93.6784 170.595C94.0057 170.212 94.402 169.915 94.8673 169.705C95.3327 169.49 95.8543 169.383 96.4321 169.383C97.015 169.383 97.5392 169.49 98.0045 169.705C98.475 169.915 98.8739 170.212 99.2011 170.595C99.5335 170.973 99.7866 171.421 99.9605 171.937C100.134 172.449 100.221 173.004 100.221 173.602V173.778C100.221 174.377 100.134 174.931 99.9605 175.443C99.7866 175.954 99.5335 176.402 99.2011 176.785C98.8739 177.163 98.4775 177.46 98.0122 177.675C97.552 177.885 97.0304 177.989 96.4474 177.989C95.8645 177.989 95.3403 177.885 94.875 177.675C94.4097 177.46 94.0108 177.163 93.6784 176.785C93.3511 176.402 93.1006 175.954 92.9267 175.443C92.7528 174.931 92.6659 174.377 92.6659 173.778ZM94.0849 173.602V173.778C94.0849 174.192 94.1335 174.584 94.2307 174.952C94.3278 175.315 94.4736 175.637 94.6679 175.918C94.8673 176.2 95.1153 176.422 95.4119 176.586C95.7085 176.744 96.0537 176.823 96.4474 176.823C96.8361 176.823 97.1761 176.744 97.4676 176.586C97.7642 176.422 98.0097 176.2 98.204 175.918C98.3983 175.637 98.544 175.315 98.6412 174.952C98.7435 174.584 98.7946 174.192 98.7946 173.778V173.602C98.7946 173.193 98.7435 172.807 98.6412 172.444C98.544 172.075 98.3957 171.751 98.1963 171.469C98.002 171.183 97.7565 170.958 97.4599 170.794C97.1685 170.631 96.8258 170.549 96.4321 170.549C96.0435 170.549 95.7008 170.631 95.4043 170.794C95.1128 170.958 94.8673 171.183 94.6679 171.469C94.4736 171.751 94.3278 172.075 94.2307 172.444C94.1335 172.807 94.0849 173.193 94.0849 173.602ZM104.402 176.555L106.672 169.537H108.122L105.138 177.836H104.187L104.402 176.555ZM102.507 169.537L104.847 176.593L105.008 177.836H104.057L101.05 169.537H102.507ZM112.824 177.989C112.246 177.989 111.722 177.892 111.251 177.698C110.786 177.498 110.385 177.22 110.047 176.862C109.715 176.504 109.459 176.079 109.28 175.588C109.101 175.098 109.012 174.561 109.012 173.978V173.656C109.012 172.981 109.111 172.38 109.311 171.853C109.51 171.321 109.781 170.871 110.124 170.503C110.466 170.135 110.855 169.856 111.29 169.667C111.724 169.478 112.174 169.383 112.64 169.383C113.233 169.383 113.744 169.485 114.174 169.69C114.609 169.894 114.964 170.181 115.24 170.549C115.516 170.912 115.721 171.342 115.854 171.838C115.987 172.329 116.053 172.865 116.053 173.448V174.085H109.855V172.927H114.634V172.819C114.614 172.451 114.537 172.093 114.404 171.746C114.276 171.398 114.072 171.112 113.79 170.887C113.509 170.662 113.126 170.549 112.64 170.549C112.318 170.549 112.021 170.618 111.75 170.756C111.479 170.889 111.246 171.088 111.052 171.354C110.858 171.62 110.707 171.945 110.599 172.329C110.492 172.712 110.438 173.154 110.438 173.656V173.978C110.438 174.371 110.492 174.742 110.599 175.09C110.712 175.433 110.873 175.734 111.083 175.995C111.297 176.256 111.556 176.46 111.857 176.609C112.164 176.757 112.512 176.831 112.901 176.831C113.402 176.831 113.826 176.729 114.174 176.524C114.522 176.32 114.826 176.046 115.087 175.704L115.946 176.386C115.767 176.657 115.539 176.915 115.263 177.161C114.987 177.406 114.647 177.606 114.243 177.759C113.844 177.913 113.371 177.989 112.824 177.989ZM122.542 175.635C122.542 175.43 122.496 175.241 122.404 175.067C122.317 174.888 122.136 174.727 121.86 174.584C121.589 174.435 121.18 174.308 120.632 174.2C120.172 174.103 119.755 173.988 119.382 173.855C119.014 173.722 118.699 173.561 118.439 173.372C118.183 173.183 117.986 172.96 117.848 172.704C117.71 172.449 117.641 172.15 117.641 171.807C117.641 171.48 117.712 171.17 117.856 170.879C118.004 170.587 118.211 170.329 118.477 170.104C118.748 169.879 119.073 169.703 119.451 169.575C119.83 169.447 120.251 169.383 120.717 169.383C121.382 169.383 121.949 169.501 122.42 169.736C122.89 169.971 123.251 170.286 123.501 170.679C123.752 171.068 123.877 171.5 123.877 171.976H122.458C122.458 171.746 122.389 171.523 122.251 171.308C122.118 171.088 121.921 170.907 121.66 170.764C121.405 170.621 121.09 170.549 120.717 170.549C120.323 170.549 120.003 170.61 119.758 170.733C119.518 170.851 119.341 171.002 119.229 171.186C119.121 171.37 119.068 171.564 119.068 171.769C119.068 171.922 119.093 172.06 119.144 172.183C119.201 172.3 119.298 172.41 119.436 172.513C119.574 172.61 119.768 172.702 120.019 172.789C120.269 172.876 120.589 172.963 120.978 173.05C121.658 173.203 122.218 173.387 122.657 173.602C123.097 173.817 123.424 174.08 123.639 174.392C123.854 174.704 123.961 175.082 123.961 175.527C123.961 175.89 123.885 176.223 123.731 176.524C123.583 176.826 123.366 177.087 123.079 177.307C122.798 177.521 122.461 177.69 122.067 177.813C121.678 177.931 121.241 177.989 120.755 177.989C120.024 177.989 119.405 177.859 118.899 177.598C118.393 177.337 118.009 177 117.748 176.586C117.487 176.171 117.357 175.734 117.357 175.274H118.784C118.804 175.663 118.917 175.972 119.121 176.202C119.326 176.427 119.576 176.588 119.873 176.685C120.17 176.777 120.464 176.823 120.755 176.823C121.144 176.823 121.468 176.772 121.729 176.67C121.995 176.568 122.197 176.427 122.335 176.248C122.473 176.069 122.542 175.865 122.542 175.635Z" fill="black"/>
<g clip-path="url(#clip0_2522_456)">
<path d="M114.411 114.881C113.4 113.87 114.109 112.117 115.556 112.117C120.536 112.117 124.587 108.066 124.587 103.086C124.587 98.1062 120.536 94.0548 115.556 94.0548C114.662 94.0549 113.937 93.3299 113.937 92.4355C113.937 91.5412 114.662 90.8163 115.556 90.8163C122.322 90.8162 127.826 96.3205 127.826 103.086C127.826 109.851 122.322 115.356 115.556 115.356C115.109 115.356 114.704 115.174 114.411 114.881Z" fill="#303A6D"/>
<path d="M60.6899 103.086C60.6899 96.3204 66.194 90.8163 72.9595 90.8163C73.8538 90.8162 74.5788 91.5412 74.5788 92.4355C74.5788 93.3299 73.8538 94.0548 72.9595 94.0548C67.9797 94.0548 63.9284 98.1061 63.9284 103.086C63.9284 108.066 67.9797 112.117 72.9595 112.117C73.8538 112.117 74.5788 112.842 74.5788 113.736C74.5788 114.631 73.8538 115.356 72.9595 115.356C66.1942 115.356 60.6898 109.852 60.6899 103.086Z" fill="#4D578C"/>
<path d="M115.693 119.336C93.4777 121.185 94.3784 121.115 94.2578 121.115C93.5922 121.115 72.8373 119.336 72.8228 119.336C71.9808 119.266 71.3374 118.56 71.3374 117.722C71.3374 90.7898 71.3374 120.104 71.3374 88.4514C71.3374 87.6087 71.9839 86.9072 72.8228 86.8378C97.6754 84.7658 93.4959 85.0264 95.6608 85.1699C96.9731 85.2774 114.405 86.7303 115.693 86.8378C116.532 86.9072 117.178 87.6087 117.178 88.4514C117.178 89.2624 117.178 116.656 117.178 117.722C117.178 118.565 116.532 119.266 115.693 119.336Z" fill="#86BFEC"/>
<path d="M115.695 119.335C93.4794 121.185 94.3801 121.115 94.2595 121.115C94.2595 90.0733 94.2175 85.6101 94.303 85.0788C94.6658 85.0692 108.725 86.2554 115.695 86.8375C116.533 86.907 117.18 87.6085 117.18 88.4512C117.18 89.4016 117.18 116.192 117.18 117.722C117.18 118.565 116.533 119.266 115.695 119.335Z" fill="#69B0E8"/>
<path d="M108.014 96.0819C93.2998 97.9274 95.1696 97.9216 80.5017 96.0819C79.6161 95.9712 78.9845 95.1636 79.0961 94.2737C79.2073 93.3863 80.0169 92.757 80.9042 92.8681C95.5299 94.7044 93.7062 94.6138 107.611 92.8681C108.499 92.7569 109.308 93.3862 109.419 94.2737C109.531 95.161 108.901 95.9706 108.014 96.0819Z" fill="#E6FFFF"/>
<path d="M94.2544 97.4397V94.2012C97.7098 94.2012 99.1142 93.9364 107.608 92.8701C108.495 92.7589 109.305 93.3882 109.416 94.2757C109.527 95.163 108.898 95.9727 108.01 96.0838C99.665 97.1305 97.971 97.4396 94.2544 97.4397Z" fill="#D9F2FF"/>
<path d="M108.02 111.573C93.5419 113.447 95.1198 113.466 80.4952 111.573C79.6037 111.459 78.9831 110.643 79.0972 109.76C79.2116 108.872 80.0234 108.246 80.9108 108.362C95.3804 110.234 93.7987 110.148 107.605 108.362C108.492 108.246 109.304 108.872 109.418 109.76C109.534 110.646 108.908 111.459 108.02 111.573Z" fill="#E6FFFF"/>
<path d="M109.423 109.761C109.539 110.647 108.913 111.46 108.025 111.575C99.9253 112.623 98.0892 112.962 94.2626 112.962L94.2626 109.723C97.7201 109.723 99.0487 109.471 107.61 108.363C108.497 108.248 109.309 108.874 109.423 109.761Z" fill="#D9F2FF"/>
<path d="M108.017 103.828C93.3482 105.696 95.0951 105.687 80.4983 103.828C79.6128 103.714 78.9828 102.907 79.096 102.016C79.2094 101.13 80.0201 100.502 80.9075 100.615C95.5052 102.474 93.7882 102.375 107.608 100.615C108.495 100.502 109.306 101.13 109.42 102.016C109.532 102.904 108.904 103.714 108.017 103.828Z" fill="#E6FFFF"/>
<path d="M94.2549 105.199L94.2549 101.96C97.768 101.96 99.2299 101.682 107.605 100.615C108.492 100.502 109.303 101.13 109.417 102.017C109.529 102.904 108.902 103.715 108.014 103.828C99.763 104.879 98.0269 105.199 94.2549 105.199Z" fill="#D9F2FF"/>
</g>
<defs>
<clipPath id="clip0_2522_456">
<rect width="73.6364" height="73.6364" fill="white" transform="translate(57.4375 66.3086)"/>
</clipPath>
</defs>
</svg>
