<svg width="360" height="98" viewBox="0 0 360 98" fill="none" xmlns="http://www.w3.org/2000/svg">
<rect width="360" height="98" fill="white"/>
<path d="M66.0781 38.0439V42.1319L71.5861 43.8999L77.4381 41.9439L77.0901 36.1479L66.0781 38.0439Z" fill="#F57B51"/>
<path d="M65.1977 25.7161V30.9161C65.1977 30.9161 63.5737 29.5681 62.8457 30.9161C62.1177 32.2641 64.3977 32.5401 64.7138 32.7641C65.0298 32.9881 66.9378 34.8921 66.9378 34.8921H77.1178L78.0178 32.3161C78.0178 32.3161 80.4818 32.5401 80.4818 31.1401C80.4818 29.7401 78.3498 30.2401 77.9018 30.6361C77.9018 30.6361 77.9578 25.8721 77.9018 25.7041C77.8458 25.5361 73.3098 24.0801 73.3098 24.0801L65.1977 25.7161Z" fill="#F57B51"/>
<path d="M68.7738 30.1398C68.7738 30.2403 68.744 30.3385 68.6882 30.4221C68.6324 30.5056 68.553 30.5707 68.4602 30.6092C68.3674 30.6476 68.2652 30.6577 68.1667 30.6381C68.0682 30.6185 67.9776 30.5701 67.9066 30.4991C67.8356 30.428 67.7872 30.3375 67.7676 30.239C67.748 30.1404 67.758 30.0383 67.7965 29.9454C67.8349 29.8526 67.9 29.7733 67.9836 29.7175C68.0671 29.6616 68.1653 29.6319 68.2658 29.6319C68.3323 29.6313 68.3983 29.644 68.4599 29.6691C68.5215 29.6942 68.5776 29.7312 68.6248 29.778C68.672 29.8249 68.7095 29.8806 68.7351 29.9421C68.7606 30.0035 68.7738 30.0693 68.7738 30.1359V30.1398Z" fill="#37160B"/>
<path d="M66.8594 28.5679L69.6034 28.3479V27.2759L66.8594 28.5679Z" fill="#5C2F1F"/>
<path d="M74.1797 30.1399C74.1797 30.2403 74.2095 30.3385 74.2653 30.4221C74.3211 30.5056 74.4005 30.5707 74.4933 30.6092C74.5861 30.6476 74.6883 30.6577 74.7868 30.6381C74.8853 30.6185 74.9759 30.5701 75.0469 30.4991C75.118 30.428 75.1663 30.3375 75.1859 30.239C75.2055 30.1404 75.1955 30.0383 75.157 29.9454C75.1186 29.8526 75.0535 29.7733 74.9699 29.7175C74.8864 29.6616 74.7882 29.6319 74.6877 29.6319C74.6208 29.6313 74.5545 29.6441 74.4927 29.6694C74.4308 29.6948 74.3746 29.7322 74.3273 29.7795C74.28 29.8267 74.2426 29.8829 74.2173 29.9448C74.1919 30.0067 74.1792 30.073 74.1797 30.1399Z" fill="#37160B"/>
<path d="M76.0877 28.5679L73.3438 28.3479V27.2759L76.0877 28.5679Z" fill="#5C2F1F"/>
<path d="M77.0944 32.3119C77.0944 33.0239 76.3424 33.5999 75.4144 33.5999C74.4864 33.5999 73.7344 33.0239 73.7344 32.3119C73.7344 31.5999 74.4864 31.0239 75.4144 31.0239C76.3424 31.0239 77.0944 31.5999 77.0944 32.3119Z" fill="#E25F3B"/>
<path d="M66.0781 32.3119C66.0781 33.0239 66.8341 33.5999 67.7621 33.5999C68.6901 33.5999 69.4421 33.0239 69.4421 32.3119C69.4421 31.5999 68.6901 31.0239 67.7621 31.0239C66.8341 31.0239 66.0781 31.5999 66.0781 32.3119Z" fill="#E25F3B"/>
<path d="M72.2972 33.7276H70.6172L70.8372 30.7276C70.8502 30.5678 70.9228 30.4186 71.0406 30.3097C71.1584 30.2008 71.3128 30.1401 71.4732 30.1396H71.5132C71.6761 30.1395 71.8327 30.2022 71.9505 30.3148C72.0682 30.4273 72.138 30.5809 72.1452 30.7436L72.2972 33.7276Z" fill="#B85C3D"/>
<path d="M65.195 30.924C65.195 30.924 65.143 33.612 65.195 34.9C65.247 36.188 66.183 41.612 71.471 41.648C76.759 41.684 77.911 35.068 78.027 34.396C78.143 33.724 77.911 30.644 77.911 30.644C77.911 30.644 75.543 32.716 71.239 32.772C66.935 32.828 65.195 30.924 65.195 30.924Z" fill="white"/>
<path d="M65.1939 30.9239C65.1939 30.9239 63.1419 24.9239 64.1419 22.9839C65.1419 21.0439 68.3939 19.1919 71.5939 19.1919C74.7939 19.1919 77.5939 20.6919 78.4939 22.2999C79.2259 23.5839 79.0699 26.0519 78.8379 27.2759C78.6739 28.1359 77.8979 30.6439 77.8979 30.6439C77.8979 30.6439 77.1939 25.1399 76.5659 25.6479C75.9379 26.1559 69.8059 27.5679 66.8579 25.6479C66.8579 25.6479 65.1939 26.9479 65.1939 30.9239Z" fill="black"/>
<path d="M79.9344 46.02C79.9344 46.02 78.7624 50.6 83.0744 51.44C87.3864 52.28 88.3944 49 88.3944 49L79.9344 46.02Z" fill="#491D0F"/>
<path d="M91.6641 56.4999C90.6361 50.5919 88.3961 48.9998 88.3961 48.9998L78.9441 45.6718C78.9441 45.6718 78.7081 44.5238 78.3241 43.3118C77.9401 42.0998 77.4361 41.9438 77.4361 41.9438C75.4563 42.3875 73.4531 42.72 71.4361 42.9398C70.4321 43.0598 66.0681 42.1398 66.0681 42.1398C64.9041 42.7318 64.1201 45.6798 64.1201 45.6798C64.1201 45.6798 59.9681 47.0398 56.1641 48.7198C53.6161 49.8478 52.6721 54.5279 52.3281 56.4999C52.3281 56.4999 58.9961 64.4999 71.4361 64.4999C85.4961 63.9999 91.6641 56.4999 91.6641 56.4999Z" fill="#6D6D6D"/>
<circle cx="72" cy="36" r="28.5" stroke="#EEEEEE"/>
<path d="M183.597 25.0282C183.251 25.0287 182.91 24.9611 182.59 24.8292C182.271 24.6973 181.981 24.5038 181.737 24.2596C181.493 24.0155 181.3 23.7256 181.168 23.4065C181.036 23.0874 180.968 22.7454 180.969 22.4002C180.969 21.0482 181.813 19.6842 183.269 17.7882L183.585 17.3882L183.901 17.7882C185.325 19.6002 186.205 21.0162 186.205 22.4002C186.207 23.0944 185.933 23.761 185.444 24.2537C184.955 24.7465 184.291 25.025 183.597 25.0282ZM183.597 18.6962C182.437 20.2402 181.777 21.3722 181.777 22.4082C181.765 22.6541 181.804 22.8998 181.89 23.1304C181.976 23.361 182.108 23.5718 182.278 23.7499C182.448 23.928 182.652 24.0698 182.879 24.1667C183.105 24.2635 183.349 24.3135 183.595 24.3135C183.841 24.3135 184.085 24.2635 184.311 24.1667C184.537 24.0698 184.742 23.928 184.912 23.7499C185.081 23.5718 185.214 23.361 185.3 23.1304C185.386 22.8998 185.424 22.6541 185.413 22.4082C185.405 21.3482 184.693 20.1482 183.597 18.6962Z" fill="#004CAA"/>
<path d="M168.056 39.2001C168.056 39.2001 169.504 30.7601 170.08 29.6401C170.656 28.5201 171.64 28.1081 172.388 28.2481C172.818 28.3528 173.203 28.5956 173.482 28.9394C173.762 29.2833 173.921 29.7092 173.936 30.1521C173.888 31.0641 173.164 37.9361 173.164 37.9361L188.936 28.3721C189.448 28.0561 190.912 28.1001 191.188 28.5841C191.464 29.0681 191.664 30.2761 190.94 30.8321L182.404 36.2321L182.568 36.5321C182.568 36.5321 192.028 30.5001 192.284 30.3601C192.54 30.2201 193.884 29.9921 194.5 30.9761C195.116 31.9601 194.72 32.9161 194.288 33.1921C193.856 33.4681 184.516 39.1041 184.516 39.1041L184.656 39.3601C184.656 39.3601 192.364 34.7281 192.716 34.5321C193.068 34.3361 194.032 34.5321 194.5 35.2601C194.675 35.5942 194.74 35.9752 194.684 36.3484C194.629 36.7215 194.456 37.0674 194.192 37.3361C193.82 37.5961 185.944 42.3281 185.944 42.3281L186.104 42.6161C186.104 42.6161 191.808 39.1441 192.132 38.9721C192.456 38.8001 193.552 38.9721 193.992 39.7201C194.432 40.4681 194.136 41.6681 193.552 42.0561C192.968 42.4441 182.256 49.7081 179.752 50.6001C177.248 51.4921 174.552 52.0481 171.996 50.0961C169.44 48.1441 167.42 44.0001 168.056 39.2001Z" fill="#004CAA"/>
<path d="M175.844 51.6002C174.404 51.6162 173.001 51.1392 171.868 50.2482C169.388 48.3402 167.184 44.1722 167.868 39.1562C167.928 38.8122 169.328 30.6842 169.908 29.5562C170.548 28.3162 171.636 27.9082 172.432 28.0602C172.912 28.172 173.34 28.4404 173.65 28.8228C173.96 29.2052 174.134 29.68 174.144 30.1722C174.1 30.9722 173.568 36.0682 173.412 37.5642L188.824 28.2002C189.407 27.9451 190.058 27.8957 190.672 28.0602C190.808 28.0817 190.939 28.1304 191.055 28.2032C191.172 28.276 191.273 28.3716 191.352 28.4842C191.62 28.9522 191.832 30.0322 191.316 30.7282L192.18 30.1842C192.548 29.9802 194 29.7842 194.66 30.8722C195.32 31.9602 194.916 33.0242 194.384 33.3602C194.284 33.4282 193.712 33.7602 192.892 34.2722C193.282 34.2319 193.675 34.3167 194.014 34.5143C194.352 34.7119 194.62 35.0121 194.776 35.3715C194.933 35.7309 194.971 36.1309 194.886 36.5135C194.8 36.8962 194.595 37.2417 194.3 37.5002C194.184 37.5802 193.376 38.0722 192.3 38.7002C192.662 38.6734 193.024 38.7425 193.349 38.9006C193.675 39.0586 193.954 39.3 194.156 39.6002C194.672 40.4682 194.304 41.7802 193.652 42.2042L193.252 42.4842C185.952 47.3882 181.312 50.2522 179.812 50.8002C178.544 51.288 177.203 51.5584 175.844 51.6002ZM168.244 39.2002C167.6 44.0562 169.724 48.0802 172.112 49.9202C174.58 51.8402 177.196 51.2882 179.676 50.4002C180.7 50.0362 183.848 48.3122 193.012 42.1602L193.412 41.8802C193.896 41.5602 194.176 40.4602 193.812 39.8162C193.637 39.5636 193.394 39.366 193.11 39.2463C192.827 39.1266 192.516 39.0898 192.212 39.1402C191.964 39.2762 188.168 41.5802 186.212 42.7802L186.032 42.8882L185.684 42.2482L185.848 42.1482C185.924 42.1002 193.72 37.4162 194.084 37.1642C194.305 36.9248 194.447 36.6239 194.492 36.3015C194.537 35.9792 194.483 35.6508 194.336 35.3602C193.912 34.7202 193.052 34.5602 192.816 34.6962C192.472 34.8922 184.84 39.4962 184.764 39.5202L184.588 39.6282L184.252 39.0242L184.416 38.9242C184.508 38.8682 193.756 33.2882 194.184 33.0162C194.528 32.7962 194.876 31.9562 194.332 31.0722C193.788 30.1882 192.552 30.4362 192.396 30.5362C192.24 30.6362 185.944 34.6162 182.68 36.7002L182.5 36.8162L182.144 36.1642L190.828 30.6642C191.416 30.2082 191.26 29.1282 191.004 28.6842C190.895 28.5546 190.741 28.4705 190.572 28.4482C190.062 28.3149 189.523 28.3471 189.032 28.5402L173.26 38.1082L172.912 38.3162L172.956 37.9162C172.956 37.8442 173.68 31.0362 173.728 30.1442C173.711 29.7498 173.566 29.3717 173.317 29.0656C173.068 28.7595 172.727 28.5416 172.344 28.4442C171.692 28.3202 170.792 28.6722 170.248 29.7322C169.804 30.5962 168.744 36.3162 168.244 39.2202V39.2002Z" fill="white"/>
<path d="M166.421 45.0641C166.421 45.0641 165.029 36.6281 165.221 35.3801C165.413 34.1321 166.193 33.4201 166.945 33.3041C167.387 33.2621 167.83 33.3661 168.206 33.6002C168.583 33.8344 168.872 34.1857 169.029 34.6001C169.281 35.4761 170.853 42.2001 170.853 42.2001L182.605 28.0001C182.985 27.5361 184.381 27.0961 184.801 27.4641C185.221 27.8321 185.805 28.9041 185.305 29.6681L179.021 37.5641L179.273 37.7921C179.273 37.7921 186.225 29.0001 186.421 28.8001C186.617 28.6001 187.821 27.9281 188.713 28.6561C189.605 29.3841 189.557 30.4001 189.237 30.8001C188.917 31.2001 181.945 39.6001 181.945 39.6001L182.161 39.7961C182.161 39.7961 187.925 32.8961 188.193 32.5961C188.461 32.2961 189.441 32.1961 190.117 32.7001C190.393 32.9581 190.58 33.2966 190.652 33.6673C190.724 34.0379 190.677 34.4218 190.517 34.7641C190.249 35.1321 184.361 42.1801 184.361 42.1801L184.601 42.4041C184.601 42.4041 188.849 37.2361 189.097 36.9681C189.345 36.7001 190.441 36.5161 191.097 37.0641C191.753 37.6121 191.897 38.8601 191.449 39.4161C191.001 39.9721 183.285 50.3441 181.197 52.0001C179.109 53.6561 176.741 55.0801 173.709 54.0681C170.677 53.0561 167.393 49.8041 166.421 45.0641Z" fill="#004CAA"/>
<path d="M175.724 54.612C175.022 54.6099 174.325 54.4937 173.66 54.268C170.692 53.276 167.26 50.0601 166.228 45.104C166.172 44.76 164.832 36.624 165.008 35.36C165.204 33.976 166.1 33.236 166.9 33.116C167.388 33.065 167.878 33.1776 168.295 33.4362C168.711 33.6947 169.03 34.0845 169.2 34.544C169.42 35.304 170.592 40.304 170.932 41.768C172.628 39.724 182.1 28.292 182.444 27.872C182.91 27.4395 183.51 27.1785 184.144 27.132C184.283 27.106 184.425 27.1086 184.563 27.1395C184.7 27.1705 184.83 27.2292 184.944 27.312C185.344 27.668 185.904 28.62 185.644 29.444C186.008 28.98 186.248 28.688 186.28 28.644C186.564 28.328 187.88 27.68 188.848 28.476C189.816 29.272 189.796 30.428 189.404 30.924C189.332 31.016 188.904 31.532 188.292 32.272C188.648 32.1018 189.049 32.0497 189.436 32.1236C189.823 32.1974 190.177 32.3932 190.445 32.6823C190.713 32.9714 190.882 33.3388 190.926 33.7306C190.971 34.1224 190.889 34.5182 190.692 34.86C190.608 34.976 190.008 35.704 189.212 36.664C189.544 36.5226 189.907 36.4708 190.265 36.5136C190.623 36.5564 190.963 36.6924 191.252 36.908C192.02 37.556 192.104 38.908 191.628 39.532C191.588 39.584 191.484 39.728 191.32 39.932C186.044 46.9321 182.6 51.156 181.356 52.152C179.772 53.42 177.928 54.612 175.724 54.612ZM166.624 45.012C167.604 49.812 170.928 52.92 173.784 53.872C176.744 54.8561 179.044 53.472 181.088 51.836C181.936 51.156 184.34 48.496 190.984 39.688L191.292 39.288C191.644 38.832 191.552 37.688 190.972 37.216C190.726 37.0337 190.433 36.9259 190.127 36.9053C189.822 36.8848 189.516 36.9523 189.248 37.1C189.052 37.308 186.224 40.732 184.752 42.512L184.62 42.672L184.076 42.18L184.2 42.032C184.26 41.964 190.088 34.984 190.348 34.624C190.477 34.327 190.513 33.9978 190.451 33.68C190.389 33.3622 190.231 33.0707 190 32.844C189.392 32.376 188.528 32.512 188.348 32.712C188.088 33.008 182.38 39.84 182.324 39.912L182.188 40.068L181.668 39.6L181.792 39.452C181.864 39.368 188.768 31.052 189.084 30.652C189.34 30.332 189.392 29.424 188.588 28.768C187.784 28.112 186.708 28.74 186.588 28.892C186.468 29.044 181.836 34.88 179.432 37.916L179.3 38.088L178.752 37.6L185.152 29.56C185.552 28.936 185.056 27.96 184.672 27.628C184.524 27.5449 184.351 27.5166 184.184 27.548C183.658 27.591 183.16 27.7997 182.76 28.144C182.4 28.588 171.108 42.196 170.992 42.332L170.736 42.644L170.644 42.244C170.644 42.176 169.072 35.508 168.824 34.644C168.679 34.2772 168.419 33.967 168.083 33.7595C167.747 33.552 167.353 33.4582 166.96 33.492C166.308 33.588 165.572 34.216 165.404 35.396C165.268 36.368 166.14 42.12 166.624 45.028V45.012Z" fill="white"/>
<circle cx="180" cy="36" r="28.5" stroke="#EEEEEE"/>
<path d="M296.15 20.2399C294.585 20.2374 293.039 20.5883 291.628 21.2663C290.217 21.9444 288.978 22.9321 288.002 24.1559C286.652 22.4672 284.81 21.2397 282.732 20.6432C280.654 20.0467 278.442 20.1106 276.402 20.8261C274.361 21.5416 272.594 22.8734 271.343 24.6372C270.093 26.4011 269.422 28.5099 269.422 30.6719C269.422 32.9079 269.994 35.0719 271.326 36.6719C272.778 38.4199 275.55 41.3119 278.402 44.2199C278.654 43.623 279.018 43.0798 279.474 42.6199C279.942 42.1506 280.499 41.7782 281.111 41.5241C281.724 41.27 282.381 41.1392 283.044 41.1392C283.707 41.1392 284.364 41.27 284.976 41.5241C285.589 41.7782 286.145 42.1506 286.614 42.6199L287.906 43.9119L295.426 36.3919C296.004 35.8119 296.714 35.3812 297.495 35.1373C298.277 34.8934 299.106 34.8436 299.911 34.9921C300.716 35.1406 301.473 35.4829 302.116 35.9896C302.759 36.4963 303.269 37.1519 303.602 37.8999C304.002 37.4519 304.366 37.0399 304.67 36.6759C306.002 35.0759 306.574 32.9079 306.574 30.6759C306.575 27.9099 305.477 25.2567 303.523 23.2996C301.568 21.3426 298.916 20.2421 296.15 20.2399Z" fill="#FF7918"/>
<path d="M287.923 53.7601L281.715 47.5521C281.531 47.3771 281.385 47.1672 281.283 46.9347C281.182 46.7022 281.128 46.4519 281.125 46.1983C281.122 45.9447 281.169 45.6931 281.265 45.4581C281.36 45.2232 281.502 45.0096 281.681 44.8301C281.86 44.6505 282.073 44.5085 282.307 44.4124C282.542 44.3163 282.794 44.268 283.047 44.2705C283.301 44.2729 283.551 44.326 283.784 44.4265C284.017 44.5271 284.227 44.6732 284.403 44.8561L287.919 48.3721L297.667 38.6321C298.024 38.2752 298.509 38.0748 299.014 38.0752C299.519 38.0756 300.004 38.2766 300.361 38.6341C300.718 38.9917 300.918 39.4763 300.918 39.9816C300.917 40.4868 300.716 40.9712 300.359 41.3281L287.923 53.7601Z" fill="#009342"/>
<circle cx="288" cy="36" r="28.5" stroke="#EEEEEE"/>
<path d="M46.2969 67.4167H47.2969V72.5469C47.2969 73.1163 47.1701 73.5903 46.9167 73.9687C46.6632 74.3472 46.3264 74.6319 45.9063 74.8229C45.4896 75.0104 45.0365 75.1042 44.5469 75.1042C44.033 75.1042 43.5677 75.0104 43.151 74.8229C42.7378 74.6319 42.4097 74.3472 42.1667 73.9687C41.9271 73.5903 41.8073 73.1163 41.8073 72.5469V67.4167H42.8021V72.5469C42.8021 72.9427 42.875 73.2691 43.0208 73.526C43.1667 73.783 43.3698 73.974 43.6302 74.099C43.8941 74.224 44.1997 74.2865 44.5469 74.2865C44.8976 74.2865 45.2031 74.224 45.4635 74.099C45.7274 73.974 45.9323 73.783 46.0781 73.526C46.224 73.2691 46.2969 72.9427 46.2969 72.5469V67.4167ZM52.0104 73.5052C52.0104 73.3663 51.9792 73.2378 51.9167 73.1198C51.8576 72.9983 51.7344 72.8889 51.5469 72.7917C51.3628 72.691 51.0851 72.6042 50.7135 72.5312C50.401 72.4653 50.1181 72.3872 49.8646 72.2969C49.6146 72.2066 49.401 72.0972 49.224 71.9687C49.0503 71.8403 48.9167 71.6892 48.8229 71.5156C48.7292 71.342 48.6823 71.1389 48.6823 70.9062C48.6823 70.684 48.7309 70.474 48.8281 70.276C48.9288 70.0781 49.0694 69.9028 49.25 69.75C49.434 69.5972 49.6545 69.4774 49.9115 69.3906C50.1684 69.3038 50.4549 69.2604 50.7708 69.2604C51.2222 69.2604 51.6076 69.3403 51.9271 69.5C52.2465 69.6597 52.4913 69.8733 52.6615 70.1406C52.8316 70.4045 52.9167 70.6979 52.9167 71.0208H51.9531C51.9531 70.8646 51.9063 70.7135 51.8125 70.5677C51.7222 70.4184 51.5885 70.2951 51.4115 70.1979C51.2378 70.1007 51.0243 70.0521 50.7708 70.0521C50.5035 70.0521 50.2865 70.0937 50.1198 70.1771C49.9566 70.2569 49.8368 70.3594 49.7604 70.4844C49.6875 70.6094 49.651 70.7413 49.651 70.8802C49.651 70.9844 49.6684 71.0781 49.7031 71.1615C49.7413 71.2413 49.8073 71.316 49.901 71.3854C49.9948 71.4514 50.1267 71.5139 50.2969 71.5729C50.467 71.6319 50.684 71.691 50.9479 71.75C51.4097 71.8542 51.7899 71.9792 52.0885 72.125C52.3872 72.2708 52.6094 72.4497 52.7552 72.6615C52.901 72.8733 52.974 73.1302 52.974 73.4323C52.974 73.6788 52.9219 73.9045 52.8177 74.1094C52.717 74.3142 52.5694 74.4913 52.375 74.6406C52.184 74.7865 51.9549 74.901 51.6875 74.9844C51.4236 75.0642 51.1267 75.1042 50.7969 75.1042C50.3003 75.1042 49.8802 75.0156 49.5365 74.8385C49.1927 74.6615 48.9323 74.4323 48.7552 74.151C48.5781 73.8698 48.4896 73.5729 48.4896 73.2604H49.4583C49.4722 73.5243 49.5486 73.7344 49.6875 73.8906C49.8264 74.0434 49.9965 74.1528 50.1979 74.2187C50.3993 74.2812 50.599 74.3125 50.7969 74.3125C51.0608 74.3125 51.2813 74.2778 51.4583 74.2083C51.6389 74.1389 51.776 74.0434 51.8698 73.9219C51.9635 73.8003 52.0104 73.6615 52.0104 73.5052ZM56.5781 75.1042C56.1858 75.1042 55.8299 75.0382 55.5104 74.9062C55.1944 74.7708 54.9219 74.5816 54.6927 74.3385C54.467 74.0955 54.2934 73.8073 54.1719 73.474C54.0503 73.1406 53.9896 72.776 53.9896 72.3802V72.1615C53.9896 71.7031 54.0573 71.2951 54.1927 70.9375C54.3281 70.5764 54.5122 70.2708 54.7448 70.0208C54.9774 69.7708 55.2413 69.5816 55.5365 69.4531C55.8316 69.3247 56.1372 69.2604 56.4531 69.2604C56.8559 69.2604 57.2031 69.3299 57.4948 69.4687C57.7899 69.6076 58.0313 69.8021 58.2188 70.0521C58.4063 70.2986 58.5451 70.5903 58.6354 70.9271C58.7257 71.2604 58.7708 71.625 58.7708 72.0208V72.4531H54.5625V71.6667H57.8073V71.5937C57.7934 71.3437 57.7413 71.1007 57.651 70.8646C57.5642 70.6285 57.4253 70.434 57.2344 70.2812C57.0434 70.1285 56.783 70.0521 56.4531 70.0521C56.2344 70.0521 56.033 70.099 55.849 70.1927C55.6649 70.283 55.5069 70.4184 55.375 70.599C55.2431 70.7795 55.1406 71 55.0677 71.2604C54.9948 71.5208 54.9583 71.8212 54.9583 72.1615V72.3802C54.9583 72.6476 54.9948 72.8993 55.0677 73.1354C55.1441 73.3681 55.2535 73.5729 55.3958 73.75C55.5417 73.9271 55.717 74.066 55.9219 74.1667C56.1302 74.2674 56.3663 74.3177 56.6302 74.3177C56.9705 74.3177 57.2587 74.2483 57.4948 74.1094C57.7309 73.9705 57.9375 73.7847 58.1146 73.5521L58.6979 74.0156C58.5764 74.1997 58.4219 74.375 58.2344 74.5417C58.0469 74.7083 57.816 74.8437 57.5417 74.9479C57.2708 75.0521 56.9497 75.1042 56.5781 75.1042ZM62.2865 72.2448V72.125C62.2865 71.7187 62.3455 71.342 62.4635 70.9948C62.5816 70.6441 62.7517 70.3403 62.974 70.0833C63.1962 69.8229 63.4653 69.6215 63.7813 69.4792C64.0972 69.3333 64.4514 69.2604 64.8438 69.2604C65.2396 69.2604 65.5955 69.3333 65.9115 69.4792C66.2309 69.6215 66.5017 69.8229 66.724 70.0833C66.9497 70.3403 67.1215 70.6441 67.2396 70.9948C67.3576 71.342 67.4167 71.7187 67.4167 72.125V72.2448C67.4167 72.651 67.3576 73.0278 67.2396 73.375C67.1215 73.7222 66.9497 74.026 66.724 74.2865C66.5017 74.5434 66.2326 74.7448 65.9167 74.8906C65.6042 75.033 65.25 75.1042 64.8542 75.1042C64.4583 75.1042 64.1024 75.033 63.7865 74.8906C63.4705 74.7448 63.1997 74.5434 62.974 74.2865C62.7517 74.026 62.5816 73.7222 62.4635 73.375C62.3455 73.0278 62.2865 72.651 62.2865 72.2448ZM63.25 72.125V72.2448C63.25 72.526 63.283 72.7917 63.349 73.0417C63.4149 73.2882 63.5139 73.5069 63.6458 73.6979C63.7813 73.8889 63.9497 74.0399 64.151 74.151C64.3524 74.2587 64.5868 74.3125 64.8542 74.3125C65.1181 74.3125 65.349 74.2587 65.5469 74.151C65.7483 74.0399 65.9149 73.8889 66.0469 73.6979C66.1788 73.5069 66.2778 73.2882 66.3438 73.0417C66.4132 72.7917 66.4479 72.526 66.4479 72.2448V72.125C66.4479 71.8472 66.4132 71.5851 66.3438 71.3385C66.2778 71.0885 66.1771 70.8681 66.0417 70.6771C65.9097 70.4826 65.7431 70.3299 65.5417 70.2187C65.3438 70.1076 65.1111 70.0521 64.8438 70.0521C64.5799 70.0521 64.3472 70.1076 64.1458 70.2187C63.9479 70.3299 63.7813 70.4826 63.6458 70.6771C63.5139 70.8681 63.4149 71.0885 63.349 71.3385C63.283 71.5851 63.25 71.8472 63.25 72.125ZM70.0625 75H69.099V68.7708C69.099 68.3646 69.1719 68.0226 69.3177 67.7448C69.467 67.4635 69.6806 67.2517 69.9583 67.1094C70.2361 66.9635 70.566 66.8906 70.9479 66.8906C71.059 66.8906 71.1701 66.8976 71.2813 66.9115C71.3958 66.9253 71.5069 66.9462 71.6146 66.974L71.5625 67.7604C71.4896 67.7431 71.4063 67.7309 71.3125 67.724C71.2222 67.717 71.1319 67.7135 71.0417 67.7135C70.8368 67.7135 70.6597 67.7552 70.5104 67.8385C70.3646 67.9184 70.2535 68.0365 70.1771 68.1927C70.1007 68.349 70.0625 68.5417 70.0625 68.7708V75ZM71.2604 69.3646V70.1042H68.2083V69.3646H71.2604ZM75.4427 67.4167H76.4167L78.901 73.599L81.3802 67.4167H82.3594L79.276 75H78.5156L75.4427 67.4167ZM75.125 67.4167H75.9844L76.125 72.0417V75H75.125V67.4167ZM81.8125 67.4167H82.6719V75H81.6719V72.0417L81.8125 67.4167ZM87.6146 74.0365V71.1354C87.6146 70.9132 87.5694 70.7205 87.4792 70.5573C87.3924 70.3906 87.2604 70.2622 87.0833 70.1719C86.9063 70.0816 86.6875 70.0365 86.4271 70.0365C86.184 70.0365 85.9705 70.0781 85.7865 70.1615C85.6059 70.2448 85.4635 70.3542 85.3594 70.4896C85.2587 70.625 85.2083 70.7708 85.2083 70.9271H84.2448C84.2448 70.7257 84.2969 70.526 84.401 70.3281C84.5052 70.1302 84.6545 69.9514 84.849 69.7917C85.0469 69.6285 85.283 69.5 85.5573 69.4062C85.8351 69.309 86.1441 69.2604 86.4844 69.2604C86.8941 69.2604 87.2552 69.3299 87.5677 69.4687C87.8837 69.6076 88.1302 69.8177 88.3073 70.099C88.4878 70.3767 88.5781 70.7257 88.5781 71.1458V73.7708C88.5781 73.9583 88.5938 74.158 88.625 74.3698C88.6597 74.5816 88.7101 74.7639 88.776 74.9167V75H87.7708C87.7222 74.8889 87.684 74.7413 87.6563 74.5573C87.6285 74.3698 87.6146 74.1962 87.6146 74.0365ZM87.7813 71.5833L87.7917 72.2604H86.8177C86.5434 72.2604 86.2986 72.283 86.0833 72.3281C85.8681 72.3698 85.6875 72.434 85.5417 72.5208C85.3958 72.6076 85.2847 72.717 85.2083 72.849C85.1319 72.9774 85.0938 73.1285 85.0938 73.3021C85.0938 73.4792 85.1337 73.6406 85.2135 73.7865C85.2934 73.9323 85.4132 74.0486 85.5729 74.1354C85.7361 74.2187 85.9358 74.2604 86.1719 74.2604C86.467 74.2604 86.7274 74.1979 86.9531 74.0729C87.1788 73.9479 87.3576 73.7951 87.4896 73.6146C87.625 73.434 87.6979 73.2587 87.7083 73.0885L88.1198 73.5521C88.0955 73.6979 88.0295 73.8594 87.9219 74.0365C87.8142 74.2135 87.6701 74.3837 87.4896 74.5469C87.3125 74.7066 87.1007 74.8403 86.8542 74.9479C86.6111 75.0521 86.3368 75.1042 86.0313 75.1042C85.6493 75.1042 85.3142 75.0295 85.026 74.8802C84.7413 74.7309 84.5191 74.5312 84.3594 74.2812C84.2031 74.0278 84.125 73.7448 84.125 73.4323C84.125 73.1302 84.184 72.8646 84.3021 72.6354C84.4201 72.4028 84.5903 72.2101 84.8125 72.0573C85.0347 71.901 85.3021 71.783 85.6146 71.7031C85.9271 71.6233 86.276 71.5833 86.6615 71.5833H87.7813ZM93.375 73.5052C93.375 73.3663 93.3438 73.2378 93.2813 73.1198C93.2222 72.9983 93.099 72.8889 92.9115 72.7917C92.7274 72.691 92.4497 72.6042 92.0781 72.5312C91.7656 72.4653 91.4826 72.3872 91.2292 72.2969C90.9792 72.2066 90.7656 72.0972 90.5885 71.9687C90.4149 71.8403 90.2813 71.6892 90.1875 71.5156C90.0938 71.342 90.0469 71.1389 90.0469 70.9062C90.0469 70.684 90.0955 70.474 90.1927 70.276C90.2934 70.0781 90.434 69.9028 90.6146 69.75C90.7986 69.5972 91.0191 69.4774 91.276 69.3906C91.533 69.3038 91.8194 69.2604 92.1354 69.2604C92.5868 69.2604 92.9722 69.3403 93.2917 69.5C93.6111 69.6597 93.8559 69.8733 94.026 70.1406C94.1962 70.4045 94.2813 70.6979 94.2813 71.0208H93.3177C93.3177 70.8646 93.2708 70.7135 93.1771 70.5677C93.0868 70.4184 92.9531 70.2951 92.776 70.1979C92.6024 70.1007 92.3889 70.0521 92.1354 70.0521C91.8681 70.0521 91.651 70.0937 91.4844 70.1771C91.3212 70.2569 91.2014 70.3594 91.125 70.4844C91.0521 70.6094 91.0156 70.7413 91.0156 70.8802C91.0156 70.9844 91.033 71.0781 91.0677 71.1615C91.1059 71.2413 91.1719 71.316 91.2656 71.3854C91.3594 71.4514 91.4913 71.5139 91.6615 71.5729C91.8316 71.6319 92.0486 71.691 92.3125 71.75C92.7743 71.8542 93.1545 71.9792 93.4531 72.125C93.7517 72.2708 93.974 72.4497 94.1198 72.6615C94.2656 72.8733 94.3385 73.1302 94.3385 73.4323C94.3385 73.6788 94.2865 73.9045 94.1823 74.1094C94.0816 74.3142 93.934 74.4913 93.7396 74.6406C93.5486 74.7865 93.3194 74.901 93.0521 74.9844C92.7882 75.0642 92.4913 75.1042 92.1615 75.1042C91.6649 75.1042 91.2448 75.0156 90.901 74.8385C90.5573 74.6615 90.2969 74.4323 90.1198 74.151C89.9427 73.8698 89.8542 73.5729 89.8542 73.2604H90.8229C90.8368 73.5243 90.9132 73.7344 91.0521 73.8906C91.191 74.0434 91.3611 74.1528 91.5625 74.2187C91.7639 74.2812 91.9635 74.3125 92.1615 74.3125C92.4253 74.3125 92.6458 74.2778 92.8229 74.2083C93.0035 74.1389 93.1406 74.0434 93.2344 73.9219C93.3281 73.8003 93.375 73.6615 93.375 73.5052ZM96.5729 67V75H95.6042V67H96.5729ZM100.016 69.3646L97.5573 71.9948L96.1823 73.4219L96.1042 72.3958L97.0885 71.2187L98.8385 69.3646H100.016ZM99.1354 75L97.125 72.3125L97.625 71.4531L100.271 75H99.1354ZM53.4323 83.7917L54.5677 82.9844C54.7865 82.8351 54.9549 82.6858 55.0729 82.5365C55.1944 82.3837 55.2552 82.1753 55.2552 81.9115C55.2552 81.7066 55.1753 81.5208 55.0156 81.3542C54.8559 81.184 54.6302 81.099 54.3385 81.099C54.1372 81.099 53.967 81.1458 53.8281 81.2396C53.6892 81.3333 53.5851 81.4583 53.5156 81.6146C53.4462 81.7674 53.4115 81.9358 53.4115 82.1198C53.4115 82.276 53.4497 82.4375 53.526 82.6042C53.6024 82.7708 53.7083 82.9444 53.8438 83.125C53.9792 83.3056 54.1337 83.4965 54.3073 83.6979L57.8958 88H56.7396L53.7969 84.4792C53.5365 84.1736 53.3038 83.8941 53.099 83.6406C52.8941 83.3837 52.7326 83.1354 52.6146 82.8958C52.5 82.6562 52.4427 82.408 52.4427 82.151C52.4427 81.7552 52.5208 81.4219 52.6771 81.151C52.8368 80.8767 53.059 80.6684 53.3438 80.526C53.6285 80.3837 53.9618 80.3125 54.3438 80.3125C54.7153 80.3125 55.0347 80.3872 55.3021 80.5365C55.5729 80.6823 55.7813 80.8767 55.9271 81.1198C56.0729 81.3594 56.1458 81.6233 56.1458 81.9115C56.1458 82.1545 56.1024 82.3733 56.0156 82.5677C55.9288 82.7587 55.8073 82.934 55.651 83.0937C55.4983 83.2535 55.3194 83.4097 55.1146 83.5625L53.6094 84.6823C53.3594 84.8663 53.1771 85.0417 53.0625 85.2083C52.9479 85.375 52.8733 85.5226 52.8385 85.651C52.8073 85.7795 52.7917 85.8819 52.7917 85.9583C52.7917 86.2049 52.8455 86.4306 52.9531 86.6354C53.0608 86.8403 53.224 87.0052 53.4427 87.1302C53.6649 87.2517 53.9427 87.3125 54.276 87.3125C54.5677 87.3125 54.8507 87.2465 55.125 87.1146C55.4028 86.9792 55.651 86.7882 55.8698 86.5417C56.0885 86.2917 56.2622 85.9948 56.3906 85.651C56.5226 85.3038 56.5885 84.9201 56.5885 84.5H57.4531C57.4531 84.8437 57.4201 85.1684 57.3542 85.474C57.2882 85.7795 57.1858 86.0642 57.0469 86.3281C56.9115 86.5885 56.7378 86.8264 56.526 87.0417C56.4948 87.0729 56.4705 87.1094 56.4531 87.151C56.4358 87.1927 56.4115 87.2292 56.3802 87.2604C56.1198 87.5417 55.7986 87.7535 55.4167 87.8958C55.0382 88.0347 54.658 88.1042 54.276 88.1042C53.7726 88.1042 53.3368 88.0122 52.9688 87.8281C52.6042 87.6441 52.3229 87.3906 52.125 87.0677C51.9271 86.7448 51.8281 86.375 51.8281 85.9583C51.8281 85.6389 51.8958 85.3576 52.0313 85.1146C52.1701 84.8715 52.3594 84.6441 52.599 84.4323C52.842 84.2205 53.1198 84.0069 53.4323 83.7917ZM67.0625 84.224V87C66.9688 87.1389 66.8194 87.2951 66.6146 87.4687C66.4097 87.6389 66.1267 87.7882 65.7656 87.9167C65.408 88.0417 64.9462 88.1042 64.3802 88.1042C63.9184 88.1042 63.4931 88.0243 63.1042 87.8646C62.7188 87.7014 62.3837 87.4653 62.099 87.1562C61.8177 86.8437 61.599 86.4653 61.4427 86.0208C61.2899 85.5729 61.2135 85.066 61.2135 84.5V83.9115C61.2135 83.3455 61.2795 82.8403 61.4115 82.3958C61.5469 81.9514 61.7448 81.5747 62.0052 81.2656C62.2656 80.9531 62.5851 80.717 62.9635 80.5573C63.342 80.3941 63.776 80.3125 64.2656 80.3125C64.8455 80.3125 65.3299 80.4132 65.7188 80.6146C66.1111 80.8125 66.4167 81.0868 66.6354 81.4375C66.8576 81.7882 67 82.1875 67.0625 82.6354H66.0573C66.0122 82.3611 65.9219 82.1111 65.7865 81.8854C65.6545 81.6597 65.4653 81.4792 65.2188 81.3437C64.9722 81.2049 64.6545 81.1354 64.2656 81.1354C63.9149 81.1354 63.6111 81.1997 63.3542 81.3281C63.0972 81.4566 62.8854 81.6406 62.7188 81.8802C62.5521 82.1198 62.4271 82.4097 62.3438 82.75C62.2639 83.0903 62.224 83.474 62.224 83.901V84.5C62.224 84.9375 62.2743 85.3281 62.375 85.6719C62.4792 86.0156 62.6267 86.309 62.8177 86.5521C63.0087 86.7917 63.2361 86.974 63.5 87.099C63.7674 87.224 64.0625 87.2865 64.3854 87.2865C64.7431 87.2865 65.033 87.2569 65.2552 87.1979C65.4774 87.1354 65.651 87.0625 65.776 86.9792C65.901 86.8924 65.9965 86.8108 66.0625 86.7344V85.0365H64.3073V84.224H67.0625ZM69.6302 80V88H68.6615V80H69.6302ZM70.9219 85.2448V85.125C70.9219 84.7187 70.9809 84.342 71.099 83.9948C71.217 83.6441 71.3872 83.3403 71.6094 83.0833C71.8316 82.8229 72.1007 82.6215 72.4167 82.4792C72.7326 82.3333 73.0868 82.2604 73.4792 82.2604C73.875 82.2604 74.2309 82.3333 74.5469 82.4792C74.8663 82.6215 75.1372 82.8229 75.3594 83.0833C75.5851 83.3403 75.7569 83.6441 75.875 83.9948C75.9931 84.342 76.0521 84.7187 76.0521 85.125V85.2448C76.0521 85.651 75.9931 86.0278 75.875 86.375C75.7569 86.7222 75.5851 87.026 75.3594 87.2865C75.1372 87.5434 74.8681 87.7448 74.5521 87.8906C74.2396 88.033 73.8854 88.1042 73.4896 88.1042C73.0938 88.1042 72.7378 88.033 72.4219 87.8906C72.1059 87.7448 71.8351 87.5434 71.6094 87.2865C71.3872 87.026 71.217 86.7222 71.099 86.375C70.9809 86.0278 70.9219 85.651 70.9219 85.2448ZM71.8854 85.125V85.2448C71.8854 85.526 71.9184 85.7917 71.9844 86.0417C72.0503 86.2882 72.1493 86.5069 72.2813 86.6979C72.4167 86.8889 72.5851 87.0399 72.7865 87.151C72.9878 87.2587 73.2222 87.3125 73.4896 87.3125C73.7535 87.3125 73.9844 87.2587 74.1823 87.151C74.3837 87.0399 74.5503 86.8889 74.6823 86.6979C74.8142 86.5069 74.9132 86.2882 74.9792 86.0417C75.0486 85.7917 75.0833 85.526 75.0833 85.2448V85.125C75.0833 84.8472 75.0486 84.5851 74.9792 84.3385C74.9132 84.0885 74.8125 83.8681 74.6771 83.6771C74.5451 83.4826 74.3785 83.3299 74.1771 83.2187C73.9792 83.1076 73.7465 83.0521 73.4792 83.0521C73.2153 83.0521 72.9826 83.1076 72.7813 83.2187C72.5833 83.3299 72.4167 83.4826 72.2813 83.6771C72.1493 83.8681 72.0503 84.0885 71.9844 84.3385C71.9184 84.5851 71.8854 84.8472 71.8854 85.125ZM78.8906 87.1302L80.4323 82.3646H81.4167L79.3906 88H78.7448L78.8906 87.1302ZM77.6042 82.3646L79.1927 87.1562L79.3021 88H78.6563L76.6146 82.3646H77.6042ZM84.6094 88.1042C84.217 88.1042 83.8611 88.0382 83.5417 87.9062C83.2257 87.7708 82.9531 87.5816 82.724 87.3385C82.4983 87.0955 82.3247 86.8073 82.2031 86.474C82.0816 86.1406 82.0208 85.776 82.0208 85.3802V85.1615C82.0208 84.7031 82.0885 84.2951 82.224 83.9375C82.3594 83.5764 82.5434 83.2708 82.776 83.0208C83.0087 82.7708 83.2726 82.5816 83.5677 82.4531C83.8628 82.3247 84.1684 82.2604 84.4844 82.2604C84.8872 82.2604 85.2344 82.3299 85.526 82.4687C85.8212 82.6076 86.0625 82.8021 86.25 83.0521C86.4375 83.2986 86.5764 83.5903 86.6667 83.9271C86.7569 84.2604 86.8021 84.625 86.8021 85.0208V85.4531H82.5938V84.6667H85.8385V84.5937C85.8247 84.3437 85.7726 84.1007 85.6823 83.8646C85.5955 83.6285 85.4566 83.434 85.2656 83.2812C85.0747 83.1285 84.8142 83.0521 84.4844 83.0521C84.2656 83.0521 84.0642 83.099 83.8802 83.1927C83.6962 83.283 83.5382 83.4184 83.4063 83.599C83.2743 83.7795 83.1719 84 83.099 84.2604C83.026 84.5208 82.9896 84.8212 82.9896 85.1615V85.3802C82.9896 85.6476 83.026 85.8993 83.099 86.1354C83.1753 86.3681 83.2847 86.5729 83.4271 86.75C83.5729 86.9271 83.7483 87.066 83.9531 87.1667C84.1615 87.2674 84.3976 87.3177 84.6615 87.3177C85.0017 87.3177 85.2899 87.2483 85.526 87.1094C85.7622 86.9705 85.9688 86.7847 86.1458 86.5521L86.7292 87.0156C86.6076 87.1997 86.4531 87.375 86.2656 87.5417C86.0781 87.7083 85.8472 87.8437 85.5729 87.9479C85.3021 88.0521 84.9809 88.1042 84.6094 88.1042ZM91.2083 86.5052C91.2083 86.3663 91.1771 86.2378 91.1146 86.1198C91.0556 85.9983 90.9323 85.8889 90.7448 85.7917C90.5608 85.691 90.283 85.6042 89.9115 85.5312C89.599 85.4653 89.316 85.3872 89.0625 85.2969C88.8125 85.2066 88.599 85.0972 88.4219 84.9687C88.2483 84.8403 88.1146 84.6892 88.0208 84.5156C87.9271 84.342 87.8802 84.1389 87.8802 83.9062C87.8802 83.684 87.9288 83.474 88.026 83.276C88.1267 83.0781 88.2674 82.9028 88.4479 82.75C88.6319 82.5972 88.8524 82.4774 89.1094 82.3906C89.3663 82.3038 89.6528 82.2604 89.9688 82.2604C90.4201 82.2604 90.8056 82.3403 91.125 82.5C91.4444 82.6597 91.6892 82.8733 91.8594 83.1406C92.0295 83.4045 92.1146 83.6979 92.1146 84.0208H91.151C91.151 83.8646 91.1042 83.7135 91.0104 83.5677C90.9201 83.4184 90.7865 83.2951 90.6094 83.1979C90.4358 83.1007 90.2222 83.0521 89.9688 83.0521C89.7014 83.0521 89.4844 83.0937 89.3177 83.1771C89.1545 83.2569 89.0347 83.3594 88.9583 83.4844C88.8854 83.6094 88.849 83.7413 88.849 83.8802C88.849 83.9844 88.8663 84.0781 88.901 84.1615C88.9392 84.2413 89.0052 84.316 89.099 84.3854C89.1927 84.4514 89.3247 84.5139 89.4948 84.5729C89.6649 84.6319 89.8819 84.691 90.1458 84.75C90.6076 84.8542 90.9878 84.9792 91.2865 85.125C91.5851 85.2708 91.8073 85.4497 91.9531 85.6615C92.099 85.8733 92.1719 86.1302 92.1719 86.4323C92.1719 86.6788 92.1198 86.9045 92.0156 87.1094C91.9149 87.3142 91.7674 87.4913 91.5729 87.6406C91.3819 87.7865 91.1528 87.901 90.8854 87.9844C90.6215 88.0642 90.3247 88.1042 89.9948 88.1042C89.4983 88.1042 89.0781 88.0156 88.7344 87.8385C88.3906 87.6615 88.1302 87.4323 87.9531 87.151C87.776 86.8698 87.6875 86.5729 87.6875 86.2604H88.6563C88.6701 86.5243 88.7465 86.7344 88.8854 86.8906C89.0243 87.0434 89.1944 87.1528 89.3958 87.2187C89.5972 87.2812 89.7969 87.3125 89.9948 87.3125C90.2587 87.3125 90.4792 87.2778 90.6563 87.2083C90.8368 87.1389 90.974 87.0434 91.0677 86.9219C91.1615 86.8003 91.2083 86.6615 91.2083 86.5052Z" fill="black"/>
<path d="M160.068 67.4167V75H159.062V67.4167H160.068ZM163.245 70.8281V71.651H159.849V70.8281H163.245ZM163.76 67.4167V68.2396H159.849V67.4167H163.76ZM164.443 72.2448V72.125C164.443 71.7187 164.502 71.342 164.62 70.9948C164.738 70.6441 164.908 70.3403 165.13 70.0833C165.352 69.8229 165.622 69.6215 165.937 69.4792C166.253 69.3333 166.608 69.2604 167 69.2604C167.396 69.2604 167.752 69.3333 168.068 69.4792C168.387 69.6215 168.658 69.8229 168.88 70.0833C169.106 70.3403 169.278 70.6441 169.396 70.9948C169.514 71.342 169.573 71.7187 169.573 72.125V72.2448C169.573 72.651 169.514 73.0278 169.396 73.375C169.278 73.7222 169.106 74.026 168.88 74.2865C168.658 74.5434 168.389 74.7448 168.073 74.8906C167.76 75.033 167.406 75.1042 167.01 75.1042C166.615 75.1042 166.259 75.033 165.943 74.8906C165.627 74.7448 165.356 74.5434 165.13 74.2865C164.908 74.026 164.738 73.7222 164.62 73.375C164.502 73.0278 164.443 72.651 164.443 72.2448ZM165.406 72.125V72.2448C165.406 72.526 165.439 72.7917 165.505 73.0417C165.571 73.2882 165.67 73.5069 165.802 73.6979C165.937 73.8889 166.106 74.0399 166.307 74.151C166.509 74.2587 166.743 74.3125 167.01 74.3125C167.274 74.3125 167.505 74.2587 167.703 74.151C167.905 74.0399 168.071 73.8889 168.203 73.6979C168.335 73.5069 168.434 73.2882 168.5 73.0417C168.569 72.7917 168.604 72.526 168.604 72.2448V72.125C168.604 71.8472 168.569 71.5851 168.5 71.3385C168.434 71.0885 168.333 70.8681 168.198 70.6771C168.066 70.4826 167.899 70.3299 167.698 70.2187C167.5 70.1076 167.267 70.0521 167 70.0521C166.736 70.0521 166.503 70.1076 166.302 70.2187C166.104 70.3299 165.937 70.4826 165.802 70.6771C165.67 70.8681 165.571 71.0885 165.505 71.3385C165.439 71.5851 165.406 71.8472 165.406 72.125ZM171.828 67V75H170.859V67H171.828ZM174.422 67V75H173.453V67H174.422ZM175.714 72.2448V72.125C175.714 71.7187 175.773 71.342 175.891 70.9948C176.009 70.6441 176.179 70.3403 176.401 70.0833C176.623 69.8229 176.892 69.6215 177.208 69.4792C177.524 69.3333 177.878 69.2604 178.271 69.2604C178.667 69.2604 179.023 69.3333 179.339 69.4792C179.658 69.6215 179.929 69.8229 180.151 70.0833C180.377 70.3403 180.549 70.6441 180.667 70.9948C180.785 71.342 180.844 71.7187 180.844 72.125V72.2448C180.844 72.651 180.785 73.0278 180.667 73.375C180.549 73.7222 180.377 74.026 180.151 74.2865C179.929 74.5434 179.66 74.7448 179.344 74.8906C179.031 75.033 178.677 75.1042 178.281 75.1042C177.885 75.1042 177.53 75.033 177.214 74.8906C176.898 74.7448 176.627 74.5434 176.401 74.2865C176.179 74.026 176.009 73.7222 175.891 73.375C175.773 73.0278 175.714 72.651 175.714 72.2448ZM176.677 72.125V72.2448C176.677 72.526 176.71 72.7917 176.776 73.0417C176.842 73.2882 176.941 73.5069 177.073 73.6979C177.208 73.8889 177.377 74.0399 177.578 74.151C177.78 74.2587 178.014 74.3125 178.281 74.3125C178.545 74.3125 178.776 74.2587 178.974 74.151C179.175 74.0399 179.342 73.8889 179.474 73.6979C179.606 73.5069 179.705 73.2882 179.771 73.0417C179.84 72.7917 179.875 72.526 179.875 72.2448V72.125C179.875 71.8472 179.84 71.5851 179.771 71.3385C179.705 71.0885 179.604 70.8681 179.469 70.6771C179.337 70.4826 179.17 70.3299 178.969 70.2187C178.771 70.1076 178.538 70.0521 178.271 70.0521C178.007 70.0521 177.774 70.1076 177.573 70.2187C177.375 70.3299 177.208 70.4826 177.073 70.6771C176.941 70.8681 176.842 71.0885 176.776 71.3385C176.71 71.5851 176.677 71.8472 176.677 72.125ZM183.479 74L184.927 69.3646H185.563L185.438 70.2865L183.964 75H183.344L183.479 74ZM182.505 69.3646L183.74 74.0521L183.828 75H183.177L181.542 69.3646H182.505ZM186.948 74.0156L188.125 69.3646H189.083L187.448 75H186.802L186.948 74.0156ZM185.703 69.3646L187.12 73.9219L187.281 75H186.667L185.151 70.276L185.026 69.3646H185.703ZM191.12 69.3646V75H190.151V69.3646H191.12ZM190.078 67.8698C190.078 67.7135 190.125 67.5816 190.219 67.474C190.316 67.3663 190.458 67.3125 190.646 67.3125C190.83 67.3125 190.97 67.3663 191.068 67.474C191.168 67.5816 191.219 67.7135 191.219 67.8698C191.219 68.0191 191.168 68.1476 191.068 68.2552C190.97 68.3594 190.83 68.4115 190.646 68.4115C190.458 68.4115 190.316 68.3594 190.219 68.2552C190.125 68.1476 190.078 68.0191 190.078 67.8698ZM193.63 70.5677V75H192.667V69.3646H193.578L193.63 70.5677ZM193.401 71.9687L193 71.9531C193.003 71.5677 193.061 71.2118 193.172 70.8854C193.283 70.5556 193.439 70.2691 193.641 70.026C193.842 69.783 194.082 69.5955 194.359 69.4635C194.641 69.3281 194.951 69.2604 195.292 69.2604C195.569 69.2604 195.819 69.2986 196.042 69.375C196.264 69.4479 196.453 69.566 196.609 69.7292C196.769 69.8924 196.891 70.1042 196.974 70.3646C197.057 70.6215 197.099 70.9358 197.099 71.3073V75H196.13V71.2969C196.13 71.0017 196.087 70.7656 196 70.5885C195.913 70.408 195.786 70.2778 195.62 70.1979C195.453 70.1146 195.248 70.0729 195.005 70.0729C194.766 70.0729 194.547 70.1233 194.349 70.224C194.155 70.3247 193.986 70.4635 193.844 70.6406C193.705 70.8177 193.595 71.0208 193.516 71.25C193.439 71.4757 193.401 71.7153 193.401 71.9687ZM202.214 69.3646H203.089V74.8802C203.089 75.3767 202.988 75.8003 202.786 76.151C202.585 76.5017 202.304 76.7674 201.943 76.9479C201.585 77.1319 201.172 77.224 200.703 77.224C200.509 77.224 200.28 77.1927 200.016 77.1302C199.755 77.0712 199.498 76.9688 199.245 76.8229C198.995 76.6806 198.785 76.4878 198.615 76.2448L199.12 75.6719C199.356 75.9566 199.602 76.1545 199.859 76.2656C200.12 76.3767 200.377 76.4323 200.63 76.4323C200.936 76.4323 201.2 76.375 201.422 76.2604C201.644 76.1458 201.816 75.9757 201.938 75.75C202.063 75.5278 202.125 75.2535 202.125 74.9271V70.6042L202.214 69.3646ZM198.333 72.2448V72.1354C198.333 71.7049 198.384 71.3142 198.484 70.9635C198.589 70.6094 198.736 70.3056 198.927 70.0521C199.122 69.7986 199.356 69.6042 199.63 69.4687C199.905 69.3299 200.214 69.2604 200.557 69.2604C200.911 69.2604 201.22 69.3229 201.484 69.4479C201.752 69.5694 201.977 69.7483 202.161 69.9844C202.349 70.217 202.497 70.4983 202.604 70.8281C202.712 71.158 202.786 71.5312 202.828 71.9479V72.4271C202.79 72.8403 202.715 73.2118 202.604 73.5417C202.497 73.8715 202.349 74.1528 202.161 74.3854C201.977 74.6181 201.752 74.7969 201.484 74.9219C201.217 75.0434 200.905 75.1042 200.547 75.1042C200.21 75.1042 199.905 75.033 199.63 74.8906C199.359 74.7483 199.127 74.5486 198.932 74.2917C198.738 74.0347 198.589 73.7326 198.484 73.3854C198.384 73.0347 198.333 72.6545 198.333 72.2448ZM199.297 72.1354V72.2448C199.297 72.526 199.325 72.7899 199.38 73.0365C199.439 73.283 199.528 73.5 199.646 73.6875C199.767 73.875 199.922 74.0226 200.109 74.1302C200.297 74.2344 200.521 74.2865 200.781 74.2865C201.101 74.2865 201.365 74.2187 201.573 74.0833C201.781 73.9479 201.946 73.7691 202.068 73.5469C202.193 73.3247 202.29 73.0833 202.359 72.8229V71.5677C202.321 71.3767 202.262 71.1927 202.182 71.0156C202.106 70.8351 202.005 70.6753 201.88 70.5365C201.759 70.3941 201.608 70.2812 201.427 70.1979C201.247 70.1146 201.035 70.0729 200.792 70.0729C200.528 70.0729 200.3 70.1285 200.109 70.2396C199.922 70.3472 199.767 70.4965 199.646 70.6875C199.528 70.875 199.439 71.0937 199.38 71.3437C199.325 71.5903 199.297 71.8542 199.297 72.1354ZM143.01 85.7083L144.516 80.4167H145.245L144.823 82.474L143.203 88H142.479L143.01 85.7083ZM141.453 80.4167L142.651 85.6042L143.01 88H142.292L140.453 80.4167H141.453ZM147.193 85.599L148.365 80.4167H149.37L147.536 88H146.818L147.193 85.599ZM145.354 80.4167L146.818 85.7083L147.349 88H146.625L145.062 82.474L144.635 80.4167H145.354ZM149.708 87.4896C149.708 87.3264 149.759 87.1892 149.859 87.0781C149.964 86.9635 150.113 86.9062 150.307 86.9062C150.502 86.9062 150.649 86.9635 150.75 87.0781C150.854 87.1892 150.906 87.3264 150.906 87.4896C150.906 87.6493 150.854 87.7847 150.75 87.8958C150.649 88.0069 150.502 88.0625 150.307 88.0625C150.113 88.0625 149.964 88.0069 149.859 87.8958C149.759 87.7847 149.708 87.6493 149.708 87.4896ZM157.604 83.6771V84.4948H153.5V83.6771H157.604ZM153.656 80.4167V88H152.651V80.4167H153.656ZM158.479 80.4167V88H157.479V80.4167H158.479ZM160.135 87.4896C160.135 87.3264 160.186 87.1892 160.286 87.0781C160.391 86.9635 160.54 86.9062 160.734 86.9062C160.929 86.9062 161.076 86.9635 161.177 87.0781C161.281 87.1892 161.333 87.3264 161.333 87.4896C161.333 87.6493 161.281 87.7847 161.177 87.8958C161.076 88.0069 160.929 88.0625 160.734 88.0625C160.54 88.0625 160.391 88.0069 160.286 87.8958C160.186 87.7847 160.135 87.6493 160.135 87.4896ZM168.917 83.9687V84.4479C168.917 85.0174 168.845 85.5278 168.703 85.9792C168.561 86.4306 168.356 86.8142 168.089 87.1302C167.821 87.4462 167.5 87.6875 167.125 87.8542C166.753 88.0208 166.337 88.1042 165.875 88.1042C165.427 88.1042 165.016 88.0208 164.641 87.8542C164.269 87.6875 163.946 87.4462 163.672 87.1302C163.401 86.8142 163.191 86.4306 163.042 85.9792C162.892 85.5278 162.818 85.0174 162.818 84.4479V83.9687C162.818 83.3993 162.891 82.8906 163.036 82.4427C163.186 81.9913 163.396 81.6076 163.667 81.2917C163.937 80.9722 164.259 80.7292 164.63 80.5625C165.005 80.3958 165.417 80.3125 165.865 80.3125C166.326 80.3125 166.743 80.3958 167.115 80.5625C167.49 80.7292 167.811 80.9722 168.078 81.2917C168.349 81.6076 168.556 81.9913 168.698 82.4427C168.844 82.8906 168.917 83.3993 168.917 83.9687ZM167.922 84.4479V83.9583C167.922 83.5069 167.875 83.1076 167.781 82.7604C167.691 82.4132 167.557 82.1215 167.38 81.8854C167.203 81.6493 166.986 81.4705 166.729 81.349C166.476 81.2274 166.187 81.1667 165.865 81.1667C165.552 81.1667 165.269 81.2274 165.016 81.349C164.766 81.4705 164.55 81.6493 164.37 81.8854C164.193 82.1215 164.056 82.4132 163.958 82.7604C163.861 83.1076 163.812 83.5069 163.812 83.9583V84.4479C163.812 84.9028 163.861 85.3056 163.958 85.6562C164.056 86.0035 164.194 86.2969 164.375 86.5365C164.559 86.7726 164.776 86.9514 165.026 87.0729C165.28 87.1944 165.562 87.2552 165.875 87.2552C166.201 87.2552 166.491 87.1944 166.745 87.0729C166.998 86.9514 167.212 86.7726 167.385 86.5365C167.562 86.2969 167.696 86.0035 167.786 85.6562C167.877 85.3056 167.922 84.9028 167.922 84.4479ZM178.672 84.224V87C178.578 87.1389 178.429 87.2951 178.224 87.4687C178.019 87.6389 177.736 87.7882 177.375 87.9167C177.017 88.0417 176.556 88.1042 175.99 88.1042C175.528 88.1042 175.102 88.0243 174.714 87.8646C174.328 87.7014 173.993 87.4653 173.708 87.1562C173.427 86.8437 173.208 86.4653 173.052 86.0208C172.899 85.5729 172.823 85.066 172.823 84.5V83.9115C172.823 83.3455 172.889 82.8403 173.021 82.3958C173.156 81.9514 173.354 81.5747 173.615 81.2656C173.875 80.9531 174.194 80.717 174.573 80.5573C174.951 80.3941 175.385 80.3125 175.875 80.3125C176.455 80.3125 176.939 80.4132 177.328 80.6146C177.72 80.8125 178.026 81.0868 178.245 81.4375C178.467 81.7882 178.609 82.1875 178.672 82.6354H177.667C177.622 82.3611 177.531 82.1111 177.396 81.8854C177.264 81.6597 177.075 81.4792 176.828 81.3437C176.582 81.2049 176.264 81.1354 175.875 81.1354C175.524 81.1354 175.22 81.1997 174.964 81.3281C174.707 81.4566 174.495 81.6406 174.328 81.8802C174.161 82.1198 174.036 82.4097 173.953 82.75C173.873 83.0903 173.833 83.474 173.833 83.901V84.5C173.833 84.9375 173.884 85.3281 173.984 85.6719C174.089 86.0156 174.236 86.309 174.427 86.5521C174.618 86.7917 174.845 86.974 175.109 87.099C175.377 87.224 175.672 87.2865 175.995 87.2865C176.352 87.2865 176.642 87.2569 176.865 87.1979C177.087 87.1354 177.26 87.0625 177.385 86.9792C177.51 86.8924 177.606 86.8108 177.672 86.7344V85.0365H175.917V84.224H178.672ZM183.641 86.6979V82.3646H184.609V88H183.687L183.641 86.6979ZM183.823 85.5104L184.224 85.5C184.224 85.875 184.184 86.2222 184.104 86.5417C184.028 86.8576 183.903 87.1319 183.729 87.3646C183.556 87.5972 183.328 87.7795 183.047 87.9115C182.766 88.0399 182.424 88.1042 182.021 88.1042C181.747 88.1042 181.495 88.0642 181.266 87.9844C181.04 87.9045 180.845 87.7812 180.682 87.6146C180.519 87.4479 180.392 87.2309 180.302 86.9635C180.215 86.6962 180.172 86.375 180.172 86V82.3646H181.135V86.0104C181.135 86.2639 181.163 86.474 181.219 86.6406C181.278 86.8038 181.356 86.934 181.453 87.0312C181.554 87.125 181.665 87.191 181.786 87.2292C181.911 87.2674 182.04 87.2865 182.172 87.2865C182.582 87.2865 182.906 87.2083 183.146 87.0521C183.385 86.8924 183.557 86.6788 183.661 86.4115C183.769 86.1406 183.823 85.8403 183.823 85.5104ZM187.125 82.3646V88H186.156V82.3646H187.125ZM186.083 80.8698C186.083 80.7135 186.13 80.5816 186.224 80.474C186.321 80.3663 186.464 80.3125 186.651 80.3125C186.835 80.3125 186.976 80.3663 187.073 80.474C187.174 80.5816 187.224 80.7135 187.224 80.8698C187.224 81.0191 187.174 81.1476 187.073 81.2552C186.976 81.3594 186.835 81.4115 186.651 81.4115C186.464 81.4115 186.321 81.3594 186.224 81.2552C186.13 81.1476 186.083 81.0191 186.083 80.8698ZM192.224 86.9062V80H193.193V88H192.307L192.224 86.9062ZM188.432 85.2448V85.1354C188.432 84.7049 188.484 84.3142 188.589 83.9635C188.696 83.6094 188.847 83.3056 189.042 83.0521C189.24 82.7986 189.474 82.6042 189.745 82.4687C190.019 82.3299 190.325 82.2604 190.661 82.2604C191.016 82.2604 191.325 82.3229 191.589 82.4479C191.856 82.5694 192.082 82.7483 192.266 82.9844C192.453 83.217 192.601 83.4983 192.708 83.8281C192.816 84.158 192.891 84.5312 192.932 84.9479V85.4271C192.894 85.8403 192.819 86.2118 192.708 86.5417C192.601 86.8715 192.453 87.1528 192.266 87.3854C192.082 87.6181 191.856 87.7969 191.589 87.9219C191.321 88.0434 191.009 88.1042 190.651 88.1042C190.321 88.1042 190.019 88.033 189.745 87.8906C189.474 87.7483 189.24 87.5486 189.042 87.2917C188.847 87.0347 188.696 86.7326 188.589 86.3854C188.484 86.0347 188.432 85.6545 188.432 85.2448ZM189.401 85.1354V85.2448C189.401 85.526 189.429 85.7899 189.484 86.0365C189.543 86.283 189.634 86.5 189.755 86.6875C189.877 86.875 190.031 87.0226 190.219 87.1302C190.406 87.2344 190.63 87.2865 190.891 87.2865C191.21 87.2865 191.472 87.2187 191.677 87.0833C191.885 86.9479 192.052 86.7691 192.177 86.5469C192.302 86.3247 192.399 86.0833 192.469 85.8229V84.5677C192.427 84.3767 192.366 84.1927 192.286 84.0156C192.21 83.8351 192.109 83.6753 191.984 83.5365C191.863 83.3941 191.712 83.2812 191.531 83.1979C191.354 83.1146 191.144 83.0729 190.901 83.0729C190.637 83.0729 190.41 83.1285 190.219 83.2396C190.031 83.3472 189.877 83.4965 189.755 83.6875C189.634 83.875 189.543 84.0937 189.484 84.3437C189.429 84.5903 189.401 84.8542 189.401 85.1354ZM197.031 88.1042C196.639 88.1042 196.283 88.0382 195.964 87.9062C195.648 87.7708 195.375 87.5816 195.146 87.3385C194.92 87.0955 194.747 86.8073 194.625 86.474C194.503 86.1406 194.443 85.776 194.443 85.3802V85.1615C194.443 84.7031 194.51 84.2951 194.646 83.9375C194.781 83.5764 194.965 83.2708 195.198 83.0208C195.431 82.7708 195.694 82.5816 195.99 82.4531C196.285 82.3247 196.59 82.2604 196.906 82.2604C197.309 82.2604 197.656 82.3299 197.948 82.4687C198.243 82.6076 198.484 82.8021 198.672 83.0521C198.859 83.2986 198.998 83.5903 199.089 83.9271C199.179 84.2604 199.224 84.625 199.224 85.0208V85.4531H195.016V84.6667H198.26V84.5937C198.247 84.3437 198.194 84.1007 198.104 83.8646C198.017 83.6285 197.878 83.434 197.687 83.2812C197.497 83.1285 197.236 83.0521 196.906 83.0521C196.687 83.0521 196.486 83.099 196.302 83.1927C196.118 83.283 195.96 83.4184 195.828 83.599C195.696 83.7795 195.594 84 195.521 84.2604C195.448 84.5208 195.411 84.8212 195.411 85.1615V85.3802C195.411 85.6476 195.448 85.8993 195.521 86.1354C195.597 86.3681 195.707 86.5729 195.849 86.75C195.995 86.9271 196.17 87.066 196.375 87.1667C196.583 87.2674 196.819 87.3177 197.083 87.3177C197.424 87.3177 197.712 87.2483 197.948 87.1094C198.184 86.9705 198.391 86.7847 198.568 86.5521L199.151 87.0156C199.03 87.1997 198.875 87.375 198.687 87.5417C198.5 87.7083 198.269 87.8437 197.995 87.9479C197.724 88.0521 197.403 88.1042 197.031 88.1042ZM201.396 80V88H200.427V80H201.396ZM203.99 82.3646V88H203.021V82.3646H203.99ZM202.948 80.8698C202.948 80.7135 202.995 80.5816 203.089 80.474C203.186 80.3663 203.328 80.3125 203.516 80.3125C203.7 80.3125 203.84 80.3663 203.937 80.474C204.038 80.5816 204.089 80.7135 204.089 80.8698C204.089 81.0191 204.038 81.1476 203.937 81.2552C203.84 81.3594 203.7 81.4115 203.516 81.4115C203.328 81.4115 203.186 81.3594 203.089 81.2552C202.995 81.1476 202.948 81.0191 202.948 80.8698ZM206.5 83.5677V88H205.536V82.3646H206.448L206.5 83.5677ZM206.271 84.9687L205.87 84.9531C205.873 84.5677 205.931 84.2118 206.042 83.8854C206.153 83.5556 206.309 83.2691 206.51 83.026C206.712 82.783 206.951 82.5955 207.229 82.4635C207.51 82.3281 207.821 82.2604 208.161 82.2604C208.439 82.2604 208.689 82.2986 208.911 82.375C209.134 82.4479 209.323 82.566 209.479 82.7292C209.639 82.8924 209.76 83.1042 209.844 83.3646C209.927 83.6215 209.969 83.9358 209.969 84.3073V88H209V84.2969C209 84.0017 208.957 83.7656 208.87 83.5885C208.783 83.408 208.656 83.2778 208.49 83.1979C208.323 83.1146 208.118 83.0729 207.875 83.0729C207.635 83.0729 207.417 83.1233 207.219 83.224C207.024 83.3247 206.856 83.4635 206.714 83.6406C206.575 83.8177 206.465 84.0208 206.385 84.25C206.309 84.4757 206.271 84.7153 206.271 84.9687ZM213.771 88.1042C213.378 88.1042 213.023 88.0382 212.703 87.9062C212.387 87.7708 212.115 87.5816 211.885 87.3385C211.66 87.0955 211.486 86.8073 211.365 86.474C211.243 86.1406 211.182 85.776 211.182 85.3802V85.1615C211.182 84.7031 211.25 84.2951 211.385 83.9375C211.521 83.5764 211.705 83.2708 211.937 83.0208C212.17 82.7708 212.434 82.5816 212.729 82.4531C213.024 82.3247 213.33 82.2604 213.646 82.2604C214.049 82.2604 214.396 82.3299 214.687 82.4687C214.983 82.6076 215.224 82.8021 215.411 83.0521C215.599 83.2986 215.738 83.5903 215.828 83.9271C215.918 84.2604 215.964 84.625 215.964 85.0208V85.4531H211.755V84.6667H215V84.5937C214.986 84.3437 214.934 84.1007 214.844 83.8646C214.757 83.6285 214.618 83.434 214.427 83.2812C214.236 83.1285 213.976 83.0521 213.646 83.0521C213.427 83.0521 213.226 83.099 213.042 83.1927C212.858 83.283 212.7 83.4184 212.568 83.599C212.436 83.7795 212.333 84 212.26 84.2604C212.187 84.5208 212.151 84.8212 212.151 85.1615V85.3802C212.151 85.6476 212.187 85.8993 212.26 86.1354C212.337 86.3681 212.446 86.5729 212.589 86.75C212.734 86.9271 212.91 87.066 213.115 87.1667C213.323 87.2674 213.559 87.3177 213.823 87.3177C214.163 87.3177 214.451 87.2483 214.687 87.1094C214.924 86.9705 215.13 86.7847 215.307 86.5521L215.891 87.0156C215.769 87.1997 215.615 87.375 215.427 87.5417C215.24 87.7083 215.009 87.8437 214.734 87.9479C214.464 88.0521 214.142 88.1042 213.771 88.1042ZM220.37 86.5052C220.37 86.3663 220.339 86.2378 220.276 86.1198C220.217 85.9983 220.094 85.8889 219.906 85.7917C219.722 85.691 219.444 85.6042 219.073 85.5312C218.76 85.4653 218.477 85.3872 218.224 85.2969C217.974 85.2066 217.76 85.0972 217.583 84.9687C217.41 84.8403 217.276 84.6892 217.182 84.5156C217.089 84.342 217.042 84.1389 217.042 83.9062C217.042 83.684 217.09 83.474 217.187 83.276C217.288 83.0781 217.429 82.9028 217.609 82.75C217.793 82.5972 218.014 82.4774 218.271 82.3906C218.528 82.3038 218.814 82.2604 219.13 82.2604C219.582 82.2604 219.967 82.3403 220.286 82.5C220.606 82.6597 220.851 82.8733 221.021 83.1406C221.191 83.4045 221.276 83.6979 221.276 84.0208H220.312C220.312 83.8646 220.266 83.7135 220.172 83.5677C220.082 83.4184 219.948 83.2951 219.771 83.1979C219.597 83.1007 219.384 83.0521 219.13 83.0521C218.863 83.0521 218.646 83.0937 218.479 83.1771C218.316 83.2569 218.196 83.3594 218.12 83.4844C218.047 83.6094 218.01 83.7413 218.01 83.8802C218.01 83.9844 218.028 84.0781 218.062 84.1615C218.101 84.2413 218.167 84.316 218.26 84.3854C218.354 84.4514 218.486 84.5139 218.656 84.5729C218.826 84.6319 219.043 84.691 219.307 84.75C219.769 84.8542 220.149 84.9792 220.448 85.125C220.747 85.2708 220.969 85.4497 221.115 85.6615C221.26 85.8733 221.333 86.1302 221.333 86.4323C221.333 86.6788 221.281 86.9045 221.177 87.1094C221.076 87.3142 220.929 87.4913 220.734 87.6406C220.543 87.7865 220.314 87.901 220.047 87.9844C219.783 88.0642 219.486 88.1042 219.156 88.1042C218.66 88.1042 218.24 88.0156 217.896 87.8385C217.552 87.6615 217.292 87.4323 217.115 87.151C216.937 86.8698 216.849 86.5729 216.849 86.2604H217.818C217.832 86.5243 217.908 86.7344 218.047 86.8906C218.186 87.0434 218.356 87.1528 218.557 87.2187C218.759 87.2812 218.958 87.3125 219.156 87.3125C219.42 87.3125 219.641 87.2778 219.818 87.2083C219.998 87.1389 220.135 87.0434 220.229 86.9219C220.323 86.8003 220.37 86.6615 220.37 86.5052Z" fill="black"/>
<path d="M266.651 73.0833C266.651 72.9062 266.623 72.75 266.568 72.6146C266.516 72.4757 266.422 72.3507 266.286 72.2396C266.155 72.1285 265.97 72.0226 265.734 71.9219C265.502 71.8212 265.207 71.7187 264.849 71.6146C264.474 71.5035 264.135 71.3802 263.833 71.2448C263.531 71.1059 263.273 70.9479 263.057 70.7708C262.842 70.5937 262.677 70.3906 262.562 70.1615C262.448 69.9323 262.391 69.6701 262.391 69.375C262.391 69.0799 262.451 68.8073 262.573 68.5573C262.694 68.3073 262.868 68.0903 263.094 67.9062C263.323 67.7187 263.595 67.5729 263.911 67.4687C264.227 67.3646 264.58 67.3125 264.969 67.3125C265.538 67.3125 266.021 67.4219 266.417 67.6406C266.816 67.8559 267.12 68.1389 267.328 68.4896C267.536 68.8368 267.641 69.2083 267.641 69.6042H266.641C266.641 69.3194 266.58 69.0677 266.458 68.849C266.337 68.6267 266.153 68.4531 265.906 68.3281C265.66 68.1997 265.347 68.1354 264.969 68.1354C264.611 68.1354 264.316 68.1892 264.083 68.2969C263.851 68.4045 263.677 68.5503 263.562 68.7344C263.451 68.9184 263.396 69.1285 263.396 69.3646C263.396 69.5243 263.429 69.6701 263.495 69.8021C263.564 69.9306 263.67 70.0503 263.812 70.1615C263.958 70.2726 264.142 70.375 264.365 70.4687C264.59 70.5625 264.859 70.6528 265.172 70.7396C265.602 70.8611 265.974 70.9965 266.286 71.1458C266.599 71.2951 266.856 71.4635 267.057 71.651C267.262 71.8351 267.413 72.0451 267.51 72.2812C267.611 72.5139 267.661 72.7778 267.661 73.0729C267.661 73.3819 267.599 73.6615 267.474 73.9115C267.349 74.1615 267.17 74.375 266.937 74.5521C266.705 74.7292 266.425 74.8663 266.099 74.9635C265.776 75.0573 265.415 75.1042 265.016 75.1042C264.665 75.1042 264.319 75.0556 263.979 74.9583C263.642 74.8611 263.335 74.7153 263.057 74.5208C262.783 74.3264 262.562 74.0868 262.396 73.8021C262.233 73.5139 262.151 73.1806 262.151 72.8021H263.151C263.151 73.0625 263.201 73.2865 263.302 73.474C263.403 73.658 263.54 73.8108 263.714 73.9323C263.891 74.0538 264.09 74.1441 264.312 74.2031C264.538 74.2587 264.773 74.2865 265.016 74.2865C265.366 74.2865 265.663 74.2378 265.906 74.1406C266.149 74.0434 266.333 73.9045 266.458 73.724C266.587 73.5434 266.651 73.3299 266.651 73.0833ZM272.12 74.0365V71.1354C272.12 70.9132 272.075 70.7205 271.984 70.5573C271.898 70.3906 271.766 70.2622 271.589 70.1719C271.411 70.0816 271.193 70.0365 270.932 70.0365C270.689 70.0365 270.476 70.0781 270.292 70.1615C270.111 70.2448 269.969 70.3542 269.865 70.4896C269.764 70.625 269.714 70.7708 269.714 70.9271H268.75C268.75 70.7257 268.802 70.526 268.906 70.3281C269.01 70.1302 269.16 69.9514 269.354 69.7917C269.552 69.6285 269.788 69.5 270.063 69.4062C270.34 69.309 270.649 69.2604 270.99 69.2604C271.399 69.2604 271.76 69.3299 272.073 69.4687C272.389 69.6076 272.635 69.8177 272.813 70.099C272.993 70.3767 273.083 70.7257 273.083 71.1458V73.7708C273.083 73.9583 273.099 74.158 273.13 74.3698C273.165 74.5816 273.215 74.7639 273.281 74.9167V75H272.276C272.227 74.8889 272.189 74.7413 272.161 74.5573C272.134 74.3698 272.12 74.1962 272.12 74.0365ZM272.286 71.5833L272.297 72.2604H271.323C271.049 72.2604 270.804 72.283 270.589 72.3281C270.373 72.3698 270.193 72.434 270.047 72.5208C269.901 72.6076 269.79 72.717 269.714 72.849C269.637 72.9774 269.599 73.1285 269.599 73.3021C269.599 73.4792 269.639 73.6406 269.719 73.7865C269.799 73.9323 269.918 74.0486 270.078 74.1354C270.241 74.2187 270.441 74.2604 270.677 74.2604C270.972 74.2604 271.233 74.1979 271.458 74.0729C271.684 73.9479 271.863 73.7951 271.995 73.6146C272.13 73.434 272.203 73.2587 272.214 73.0885L272.625 73.5521C272.601 73.6979 272.535 73.8594 272.427 74.0365C272.319 74.2135 272.175 74.3837 271.995 74.5469C271.818 74.7066 271.606 74.8403 271.359 74.9479C271.116 75.0521 270.842 75.1042 270.536 75.1042C270.155 75.1042 269.819 75.0295 269.531 74.8802C269.247 74.7309 269.024 74.5312 268.865 74.2812C268.708 74.0278 268.63 73.7448 268.63 73.4323C268.63 73.1302 268.689 72.8646 268.807 72.6354C268.925 72.4028 269.095 72.2101 269.318 72.0573C269.54 71.901 269.807 71.783 270.12 71.7031C270.432 71.6233 270.781 71.5833 271.167 71.5833H272.286ZM276.036 75H275.073V68.7708C275.073 68.3646 275.146 68.0226 275.292 67.7448C275.441 67.4635 275.655 67.2517 275.932 67.1094C276.21 66.9635 276.54 66.8906 276.922 66.8906C277.033 66.8906 277.144 66.8976 277.255 66.9115C277.37 66.9253 277.481 66.9462 277.589 66.974L277.536 67.7604C277.464 67.7431 277.38 67.7309 277.286 67.724C277.196 67.717 277.106 67.7135 277.016 67.7135C276.811 67.7135 276.634 67.7552 276.484 67.8385C276.339 67.9184 276.227 68.0365 276.151 68.1927C276.075 68.349 276.036 68.5417 276.036 68.7708V75ZM277.234 69.3646V70.1042H274.182V69.3646H277.234ZM280.521 75.1042C280.128 75.1042 279.773 75.0382 279.453 74.9062C279.137 74.7708 278.865 74.5816 278.635 74.3385C278.41 74.0955 278.236 73.8073 278.115 73.474C277.993 73.1406 277.932 72.776 277.932 72.3802V72.1615C277.932 71.7031 278 71.2951 278.135 70.9375C278.271 70.5764 278.455 70.2708 278.687 70.0208C278.92 69.7708 279.184 69.5816 279.479 69.4531C279.774 69.3247 280.08 69.2604 280.396 69.2604C280.799 69.2604 281.146 69.3299 281.437 69.4687C281.733 69.6076 281.974 69.8021 282.161 70.0521C282.349 70.2986 282.488 70.5903 282.578 70.9271C282.668 71.2604 282.714 71.625 282.714 72.0208V72.4531H278.505V71.6667H281.75V71.5937C281.736 71.3437 281.684 71.1007 281.594 70.8646C281.507 70.6285 281.368 70.434 281.177 70.2812C280.986 70.1285 280.726 70.0521 280.396 70.0521C280.177 70.0521 279.976 70.099 279.792 70.1927C279.608 70.283 279.45 70.4184 279.318 70.599C279.186 70.7795 279.083 71 279.01 71.2604C278.937 71.5208 278.901 71.8212 278.901 72.1615V72.3802C278.901 72.6476 278.937 72.8993 279.01 73.1354C279.087 73.3681 279.196 73.5729 279.339 73.75C279.484 73.9271 279.66 74.066 279.865 74.1667C280.073 74.2674 280.309 74.3177 280.573 74.3177C280.913 74.3177 281.201 74.2483 281.437 74.1094C281.674 73.9705 281.88 73.7847 282.057 73.5521L282.641 74.0156C282.519 74.1997 282.365 74.375 282.177 74.5417C281.99 74.7083 281.759 74.8437 281.484 74.9479C281.214 75.0521 280.892 75.1042 280.521 75.1042ZM286.198 69.3646V70.1042H283.151V69.3646H286.198ZM284.182 67.9948H285.146V73.6042C285.146 73.7951 285.175 73.9392 285.234 74.0365C285.293 74.1337 285.37 74.1979 285.464 74.2292C285.557 74.2604 285.658 74.276 285.766 74.276C285.845 74.276 285.929 74.2691 286.016 74.2552C286.106 74.2378 286.174 74.224 286.219 74.2135L286.224 75C286.148 75.0243 286.047 75.0469 285.922 75.0677C285.8 75.092 285.653 75.1042 285.479 75.1042C285.243 75.1042 285.026 75.0573 284.828 74.9635C284.63 74.8698 284.472 74.7135 284.354 74.4948C284.24 74.2726 284.182 73.974 284.182 73.599V67.9948ZM288.911 74.4167L290.479 69.3646H291.51L289.25 75.8698C289.198 76.0087 289.128 76.158 289.042 76.3177C288.958 76.4809 288.851 76.6354 288.719 76.7813C288.587 76.9271 288.427 77.0451 288.24 77.1354C288.056 77.2292 287.835 77.276 287.578 77.276C287.502 77.276 287.405 77.2656 287.286 77.2448C287.168 77.224 287.085 77.2066 287.036 77.1927L287.031 76.4115C287.059 76.4149 287.102 76.4184 287.161 76.4219C287.224 76.4288 287.267 76.4323 287.292 76.4323C287.51 76.4323 287.696 76.4028 287.849 76.3438C288.002 76.2882 288.13 76.1927 288.234 76.0573C288.342 75.9253 288.434 75.7431 288.51 75.5104L288.911 74.4167ZM287.76 69.3646L289.224 73.7396L289.474 74.7552L288.781 75.1094L286.708 69.3646H287.76ZM296.453 74L297.901 69.3646H298.536L298.411 70.2865L296.937 75H296.318L296.453 74ZM295.479 69.3646L296.714 74.0521L296.802 75H296.151L294.516 69.3646H295.479ZM299.922 74.0156L301.099 69.3646H302.057L300.422 75H299.776L299.922 74.0156ZM298.677 69.3646L300.094 73.9219L300.255 75H299.641L298.125 70.276L298 69.3646H298.677ZM304.094 69.3646V75H303.125V69.3646H304.094ZM303.052 67.8698C303.052 67.7135 303.099 67.5816 303.193 67.474C303.29 67.3663 303.432 67.3125 303.62 67.3125C303.804 67.3125 303.944 67.3663 304.042 67.474C304.142 67.5816 304.193 67.7135 304.193 67.8698C304.193 68.0191 304.142 68.1476 304.042 68.2552C303.944 68.3594 303.804 68.4115 303.62 68.4115C303.432 68.4115 303.29 68.3594 303.193 68.2552C303.099 68.1476 303.052 68.0191 303.052 67.8698ZM308 69.3646V70.1042H304.953V69.3646H308ZM305.984 67.9948H306.948V73.6042C306.948 73.7951 306.977 73.9392 307.036 74.0365C307.095 74.1337 307.172 74.1979 307.266 74.2292C307.359 74.2604 307.46 74.276 307.568 74.276C307.648 74.276 307.731 74.2691 307.818 74.2552C307.908 74.2378 307.976 74.224 308.021 74.2135L308.026 75C307.95 75.0243 307.849 75.0469 307.724 75.0677C307.602 75.092 307.455 75.1042 307.281 75.1042C307.045 75.1042 306.828 75.0573 306.63 74.9635C306.432 74.8698 306.274 74.7135 306.156 74.4948C306.042 74.2726 305.984 73.974 305.984 73.599V67.9948ZM310.094 67V75H309.13V67H310.094ZM309.865 71.9687L309.464 71.9531C309.467 71.5677 309.524 71.2118 309.635 70.8854C309.747 70.5556 309.903 70.2691 310.104 70.026C310.306 69.783 310.545 69.5955 310.823 69.4635C311.104 69.3281 311.415 69.2604 311.755 69.2604C312.033 69.2604 312.283 69.2986 312.505 69.375C312.727 69.4479 312.917 69.566 313.073 69.7292C313.233 69.8924 313.354 70.1042 313.438 70.3646C313.521 70.6215 313.563 70.9358 313.563 71.3073V75H312.594V71.2969C312.594 71.0017 312.55 70.7656 312.464 70.5885C312.377 70.408 312.25 70.2778 312.083 70.1979C311.917 70.1146 311.712 70.0729 311.469 70.0729C311.229 70.0729 311.01 70.1233 310.813 70.224C310.618 70.3247 310.45 70.4635 310.307 70.6406C310.168 70.8177 310.059 71.0208 309.979 71.25C309.903 71.4757 309.865 71.7153 309.865 71.9687ZM249.911 81.0885L247.401 88H246.375L249.266 80.4167H249.927L249.911 81.0885ZM252.016 88L249.5 81.0885L249.484 80.4167H250.146L253.047 88H252.016ZM251.885 85.1927V86.0156H247.625V85.1927H251.885ZM257.24 87.0365V84.1354C257.24 83.9132 257.194 83.7205 257.104 83.5573C257.017 83.3906 256.885 83.2622 256.708 83.1719C256.531 83.0816 256.312 83.0365 256.052 83.0365C255.809 83.0365 255.595 83.0781 255.411 83.1615C255.231 83.2448 255.089 83.3542 254.984 83.4896C254.884 83.625 254.833 83.7708 254.833 83.9271H253.87C253.87 83.7257 253.922 83.526 254.026 83.3281C254.13 83.1302 254.28 82.9514 254.474 82.7917C254.672 82.6285 254.908 82.5 255.182 82.4062C255.46 82.309 255.769 82.2604 256.109 82.2604C256.519 82.2604 256.88 82.3299 257.193 82.4687C257.509 82.6076 257.755 82.8177 257.932 83.099C258.113 83.3767 258.203 83.7257 258.203 84.1458V86.7708C258.203 86.9583 258.219 87.158 258.25 87.3698C258.285 87.5816 258.335 87.7639 258.401 87.9167V88H257.396C257.347 87.8889 257.309 87.7413 257.281 87.5573C257.253 87.3698 257.24 87.1962 257.24 87.0365ZM257.406 84.5833L257.417 85.2604H256.443C256.168 85.2604 255.924 85.283 255.708 85.3281C255.493 85.3698 255.312 85.434 255.167 85.5208C255.021 85.6076 254.91 85.717 254.833 85.849C254.757 85.9774 254.719 86.1285 254.719 86.3021C254.719 86.4792 254.759 86.6406 254.839 86.7865C254.918 86.9323 255.038 87.0486 255.198 87.1354C255.361 87.2187 255.561 87.2604 255.797 87.2604C256.092 87.2604 256.352 87.1979 256.578 87.0729C256.804 86.9479 256.983 86.7951 257.115 86.6146C257.25 86.434 257.323 86.2587 257.333 86.0885L257.745 86.5521C257.72 86.6979 257.655 86.8594 257.547 87.0365C257.439 87.2135 257.295 87.3837 257.115 87.5469C256.937 87.7066 256.726 87.8403 256.479 87.9479C256.236 88.0521 255.962 88.1042 255.656 88.1042C255.274 88.1042 254.939 88.0295 254.651 87.8802C254.366 87.7309 254.144 87.5312 253.984 87.2812C253.828 87.0278 253.75 86.7448 253.75 86.4323C253.75 86.1302 253.809 85.8646 253.927 85.6354C254.045 85.4028 254.215 85.2101 254.437 85.0573C254.66 84.901 254.927 84.783 255.24 84.7031C255.552 84.6233 255.901 84.5833 256.286 84.5833H257.406ZM260.682 83.25V88H259.719V82.3646H260.656L260.682 83.25ZM262.443 82.3333L262.438 83.2292C262.358 83.2118 262.281 83.2014 262.208 83.1979C262.139 83.191 262.059 83.1875 261.969 83.1875C261.747 83.1875 261.55 83.2222 261.38 83.2917C261.21 83.3611 261.066 83.4583 260.948 83.5833C260.83 83.7083 260.736 83.8576 260.667 84.0312C260.601 84.2014 260.557 84.3889 260.536 84.5937L260.266 84.75C260.266 84.4097 260.299 84.0903 260.365 83.7917C260.434 83.4931 260.54 83.2292 260.682 83C260.825 82.7674 261.005 82.5868 261.224 82.4583C261.446 82.3264 261.71 82.2604 262.016 82.2604C262.085 82.2604 262.165 82.2691 262.255 82.2865C262.345 82.3003 262.408 82.316 262.443 82.3333ZM262.974 85.2448V85.125C262.974 84.7187 263.033 84.342 263.151 83.9948C263.269 83.6441 263.439 83.3403 263.661 83.0833C263.884 82.8229 264.153 82.6215 264.469 82.4792C264.785 82.3333 265.139 82.2604 265.531 82.2604C265.927 82.2604 266.283 82.3333 266.599 82.4792C266.918 82.6215 267.189 82.8229 267.411 83.0833C267.637 83.3403 267.809 83.6441 267.927 83.9948C268.045 84.342 268.104 84.7187 268.104 85.125V85.2448C268.104 85.651 268.045 86.0278 267.927 86.375C267.809 86.7222 267.637 87.026 267.411 87.2865C267.189 87.5434 266.92 87.7448 266.604 87.8906C266.292 88.033 265.937 88.1042 265.542 88.1042C265.146 88.1042 264.79 88.033 264.474 87.8906C264.158 87.7448 263.887 87.5434 263.661 87.2865C263.439 87.026 263.269 86.7222 263.151 86.375C263.033 86.0278 262.974 85.651 262.974 85.2448ZM263.937 85.125V85.2448C263.937 85.526 263.97 85.7917 264.036 86.0417C264.102 86.2882 264.201 86.5069 264.333 86.6979C264.469 86.8889 264.637 87.0399 264.839 87.151C265.04 87.2587 265.274 87.3125 265.542 87.3125C265.806 87.3125 266.036 87.2587 266.234 87.151C266.436 87.0399 266.602 86.8889 266.734 86.6979C266.866 86.5069 266.965 86.2882 267.031 86.0417C267.101 85.7917 267.135 85.526 267.135 85.2448V85.125C267.135 84.8472 267.101 84.5851 267.031 84.3385C266.965 84.0885 266.865 83.8681 266.729 83.6771C266.597 83.4826 266.431 83.3299 266.229 83.2187C266.031 83.1076 265.799 83.0521 265.531 83.0521C265.267 83.0521 265.035 83.1076 264.833 83.2187C264.635 83.3299 264.469 83.4826 264.333 83.6771C264.201 83.8681 264.102 84.0885 264.036 84.3385C263.97 84.5851 263.937 84.8472 263.937 85.125ZM272.964 82.3646H273.839V87.8802C273.839 88.3767 273.738 88.8003 273.536 89.151C273.335 89.5017 273.054 89.7674 272.693 89.9479C272.335 90.1319 271.922 90.224 271.453 90.224C271.259 90.224 271.03 90.1927 270.766 90.1302C270.505 90.0712 270.248 89.9688 269.995 89.8229C269.745 89.6806 269.535 89.4878 269.365 89.2448L269.87 88.6719C270.106 88.9566 270.352 89.1545 270.609 89.2656C270.87 89.3767 271.127 89.4323 271.38 89.4323C271.686 89.4323 271.95 89.375 272.172 89.2604C272.394 89.1458 272.566 88.9757 272.688 88.75C272.813 88.5278 272.875 88.2535 272.875 87.9271V83.6042L272.964 82.3646ZM269.083 85.2448V85.1354C269.083 84.7049 269.134 84.3142 269.234 83.9635C269.339 83.6094 269.486 83.3056 269.677 83.0521C269.872 82.7986 270.106 82.6042 270.38 82.4687C270.655 82.3299 270.964 82.2604 271.307 82.2604C271.661 82.2604 271.97 82.3229 272.234 82.4479C272.502 82.5694 272.727 82.7483 272.911 82.9844C273.099 83.217 273.247 83.4983 273.354 83.8281C273.462 84.158 273.536 84.5312 273.578 84.9479V85.4271C273.54 85.8403 273.465 86.2118 273.354 86.5417C273.247 86.8715 273.099 87.1528 272.911 87.3854C272.727 87.6181 272.502 87.7969 272.234 87.9219C271.967 88.0434 271.655 88.1042 271.297 88.1042C270.96 88.1042 270.655 88.033 270.38 87.8906C270.109 87.7483 269.877 87.5486 269.682 87.2917C269.488 87.0347 269.339 86.7326 269.234 86.3854C269.134 86.0347 269.083 85.6545 269.083 85.2448ZM270.047 85.1354V85.2448C270.047 85.526 270.075 85.7899 270.13 86.0365C270.189 86.283 270.278 86.5 270.396 86.6875C270.517 86.875 270.672 87.0226 270.859 87.1302C271.047 87.2344 271.271 87.2865 271.531 87.2865C271.851 87.2865 272.115 87.2187 272.323 87.0833C272.531 86.9479 272.696 86.7691 272.818 86.5469C272.943 86.3247 273.04 86.0833 273.109 85.8229V84.5677C273.071 84.3767 273.012 84.1927 272.932 84.0156C272.856 83.8351 272.755 83.6753 272.63 83.5365C272.509 83.3941 272.358 83.2812 272.177 83.1979C271.997 83.1146 271.785 83.0729 271.542 83.0729C271.278 83.0729 271.05 83.1285 270.859 83.2396C270.672 83.3472 270.517 83.4965 270.396 83.6875C270.278 83.875 270.189 84.0937 270.13 84.3437C270.075 84.5903 270.047 84.8542 270.047 85.1354ZM276.885 87.4167L278.453 82.3646H279.484L277.224 88.8698C277.172 89.0087 277.102 89.158 277.016 89.3177C276.932 89.4809 276.825 89.6354 276.693 89.7813C276.561 89.9271 276.401 90.0451 276.214 90.1354C276.03 90.2292 275.809 90.276 275.552 90.276C275.476 90.276 275.378 90.2656 275.26 90.2448C275.142 90.224 275.059 90.2066 275.01 90.1927L275.005 89.4115C275.033 89.4149 275.076 89.4184 275.135 89.4219C275.198 89.4288 275.241 89.4323 275.266 89.4323C275.484 89.4323 275.67 89.4028 275.823 89.3438C275.976 89.2882 276.104 89.1927 276.208 89.0573C276.316 88.9253 276.408 88.7431 276.484 88.5104L276.885 87.4167ZM275.734 82.3646L277.198 86.7396L277.448 87.7552L276.755 88.1094L274.682 82.3646H275.734ZM283.594 87.0365V84.1354C283.594 83.9132 283.549 83.7205 283.458 83.5573C283.372 83.3906 283.24 83.2622 283.062 83.1719C282.885 83.0816 282.667 83.0365 282.406 83.0365C282.163 83.0365 281.95 83.0781 281.766 83.1615C281.585 83.2448 281.443 83.3542 281.339 83.4896C281.238 83.625 281.187 83.7708 281.187 83.9271H280.224C280.224 83.7257 280.276 83.526 280.38 83.3281C280.484 83.1302 280.634 82.9514 280.828 82.7917C281.026 82.6285 281.262 82.5 281.536 82.4062C281.814 82.309 282.123 82.2604 282.464 82.2604C282.873 82.2604 283.234 82.3299 283.547 82.4687C283.863 82.6076 284.109 82.8177 284.286 83.099C284.467 83.3767 284.557 83.7257 284.557 84.1458V86.7708C284.557 86.9583 284.573 87.158 284.604 87.3698C284.639 87.5816 284.689 87.7639 284.755 87.9167V88H283.75C283.701 87.8889 283.663 87.7413 283.635 87.5573C283.608 87.3698 283.594 87.1962 283.594 87.0365ZM283.76 84.5833L283.771 85.2604H282.797C282.523 85.2604 282.278 85.283 282.062 85.3281C281.847 85.3698 281.667 85.434 281.521 85.5208C281.375 85.6076 281.264 85.717 281.187 85.849C281.111 85.9774 281.073 86.1285 281.073 86.3021C281.073 86.4792 281.113 86.6406 281.193 86.7865C281.273 86.9323 281.392 87.0486 281.552 87.1354C281.715 87.2187 281.915 87.2604 282.151 87.2604C282.446 87.2604 282.707 87.1979 282.932 87.0729C283.158 86.9479 283.337 86.7951 283.469 86.6146C283.604 86.434 283.677 86.2587 283.687 86.0885L284.099 86.5521C284.075 86.6979 284.009 86.8594 283.901 87.0365C283.793 87.2135 283.649 87.3837 283.469 87.5469C283.292 87.7066 283.08 87.8403 282.833 87.9479C282.59 88.0521 282.316 88.1042 282.01 88.1042C281.628 88.1042 281.293 88.0295 281.005 87.8802C280.72 87.7309 280.498 87.5312 280.339 87.2812C280.182 87.0278 280.104 86.7448 280.104 86.4323C280.104 86.1302 280.163 85.8646 280.281 85.6354C280.399 85.4028 280.569 85.2101 280.792 85.0573C281.014 84.901 281.281 84.783 281.594 84.7031C281.906 84.6233 282.255 84.5833 282.641 84.5833H283.76ZM292.906 86.0833C292.906 85.9062 292.878 85.75 292.823 85.6146C292.771 85.4757 292.677 85.3507 292.542 85.2396C292.41 85.1285 292.226 85.0226 291.99 84.9219C291.757 84.8212 291.462 84.7187 291.104 84.6146C290.729 84.5035 290.391 84.3802 290.089 84.2448C289.786 84.1059 289.528 83.9479 289.313 83.7708C289.097 83.5937 288.932 83.3906 288.818 83.1615C288.703 82.9323 288.646 82.6701 288.646 82.375C288.646 82.0799 288.707 81.8073 288.828 81.5573C288.95 81.3073 289.123 81.0903 289.349 80.9062C289.578 80.7187 289.851 80.5729 290.167 80.4687C290.483 80.3646 290.835 80.3125 291.224 80.3125C291.793 80.3125 292.276 80.4219 292.672 80.6406C293.071 80.8559 293.375 81.1389 293.583 81.4896C293.792 81.8368 293.896 82.2083 293.896 82.6042H292.896C292.896 82.3194 292.835 82.0677 292.714 81.849C292.592 81.6267 292.408 81.4531 292.161 81.3281C291.915 81.1997 291.602 81.1354 291.224 81.1354C290.866 81.1354 290.571 81.1892 290.339 81.2969C290.106 81.4045 289.932 81.5503 289.818 81.7344C289.707 81.9184 289.651 82.1285 289.651 82.3646C289.651 82.5243 289.684 82.6701 289.75 82.8021C289.819 82.9306 289.925 83.0503 290.068 83.1615C290.214 83.2726 290.398 83.375 290.62 83.4687C290.845 83.5625 291.115 83.6528 291.427 83.7396C291.858 83.8611 292.229 83.9965 292.542 84.1458C292.854 84.2951 293.111 84.4635 293.313 84.651C293.517 84.8351 293.668 85.0451 293.766 85.2812C293.866 85.5139 293.917 85.7778 293.917 86.0729C293.917 86.3819 293.854 86.6615 293.729 86.9115C293.604 87.1615 293.425 87.375 293.193 87.5521C292.96 87.7292 292.681 87.8663 292.354 87.9635C292.031 88.0573 291.67 88.1042 291.271 88.1042C290.92 88.1042 290.575 88.0556 290.234 87.9583C289.898 87.8611 289.59 87.7153 289.313 87.5208C289.038 87.3264 288.818 87.0868 288.651 86.8021C288.488 86.5139 288.406 86.1806 288.406 85.8021H289.406C289.406 86.0625 289.457 86.2865 289.557 86.474C289.658 86.658 289.795 86.8108 289.969 86.9323C290.146 87.0538 290.345 87.1441 290.568 87.2031C290.793 87.2587 291.028 87.2865 291.271 87.2865C291.622 87.2865 291.918 87.2378 292.161 87.1406C292.405 87.0434 292.589 86.9045 292.714 86.724C292.842 86.5434 292.906 86.3299 292.906 86.0833ZM297.391 88.1042C296.998 88.1042 296.642 88.0382 296.323 87.9062C296.007 87.7708 295.734 87.5816 295.505 87.3385C295.28 87.0955 295.106 86.8073 294.984 86.474C294.863 86.1406 294.802 85.776 294.802 85.3802V85.1615C294.802 84.7031 294.87 84.2951 295.005 83.9375C295.141 83.5764 295.325 83.2708 295.557 83.0208C295.79 82.7708 296.054 82.5816 296.349 82.4531C296.644 82.3247 296.95 82.2604 297.266 82.2604C297.668 82.2604 298.016 82.3299 298.307 82.4687C298.602 82.6076 298.844 82.8021 299.031 83.0521C299.219 83.2986 299.358 83.5903 299.448 83.9271C299.538 84.2604 299.583 84.625 299.583 85.0208V85.4531H295.375V84.6667H298.62V84.5937C298.606 84.3437 298.554 84.1007 298.464 83.8646C298.377 83.6285 298.238 83.434 298.047 83.2812C297.856 83.1285 297.595 83.0521 297.266 83.0521C297.047 83.0521 296.845 83.099 296.661 83.1927C296.477 83.283 296.319 83.4184 296.187 83.599C296.056 83.7795 295.953 84 295.88 84.2604C295.807 84.5208 295.771 84.8212 295.771 85.1615V85.3802C295.771 85.6476 295.807 85.8993 295.88 86.1354C295.957 86.3681 296.066 86.5729 296.208 86.75C296.354 86.9271 296.53 87.066 296.734 87.1667C296.943 87.2674 297.179 87.3177 297.443 87.3177C297.783 87.3177 298.071 87.2483 298.307 87.1094C298.543 86.9705 298.75 86.7847 298.927 86.5521L299.51 87.0156C299.389 87.1997 299.234 87.375 299.047 87.5417C298.859 87.7083 298.628 87.8437 298.354 87.9479C298.083 88.0521 297.762 88.1042 297.391 88.1042ZM303.068 82.3646V83.1042H300.021V82.3646H303.068ZM301.052 80.9948H302.016V86.6042C302.016 86.7951 302.045 86.9392 302.104 87.0365C302.163 87.1337 302.24 87.1979 302.333 87.2292C302.427 87.2604 302.528 87.276 302.635 87.276C302.715 87.276 302.799 87.2691 302.885 87.2552C302.976 87.2378 303.043 87.224 303.089 87.2135L303.094 88C303.017 88.0243 302.917 88.0469 302.792 88.0677C302.67 88.092 302.523 88.1042 302.349 88.1042C302.113 88.1042 301.896 88.0573 301.698 87.9635C301.5 87.8698 301.342 87.7135 301.224 87.4948C301.109 87.2726 301.052 86.974 301.052 86.599V80.9948ZM307.646 86.6979V82.3646H308.615V88H307.693L307.646 86.6979ZM307.828 85.5104L308.229 85.5C308.229 85.875 308.189 86.2222 308.109 86.5417C308.033 86.8576 307.908 87.1319 307.734 87.3646C307.561 87.5972 307.333 87.7795 307.052 87.9115C306.771 88.0399 306.429 88.1042 306.026 88.1042C305.752 88.1042 305.5 88.0642 305.271 87.9844C305.045 87.9045 304.851 87.7812 304.688 87.6146C304.524 87.4479 304.398 87.2309 304.307 86.9635C304.22 86.6962 304.177 86.375 304.177 86V82.3646H305.141V86.0104C305.141 86.2639 305.168 86.474 305.224 86.6406C305.283 86.8038 305.361 86.934 305.458 87.0312C305.559 87.125 305.67 87.191 305.792 87.2292C305.917 87.2674 306.045 87.2865 306.177 87.2865C306.587 87.2865 306.911 87.2083 307.151 87.0521C307.391 86.8924 307.563 86.6788 307.667 86.4115C307.774 86.1406 307.828 85.8403 307.828 85.5104ZM316.052 87.0365V84.1354C316.052 83.9132 316.007 83.7205 315.917 83.5573C315.83 83.3906 315.698 83.2622 315.521 83.1719C315.344 83.0816 315.125 83.0365 314.865 83.0365C314.622 83.0365 314.408 83.0781 314.224 83.1615C314.043 83.2448 313.901 83.3542 313.797 83.4896C313.696 83.625 313.646 83.7708 313.646 83.9271H312.682C312.682 83.7257 312.734 83.526 312.839 83.3281C312.943 83.1302 313.092 82.9514 313.286 82.7917C313.484 82.6285 313.72 82.5 313.995 82.4062C314.273 82.309 314.582 82.2604 314.922 82.2604C315.332 82.2604 315.693 82.3299 316.005 82.4687C316.321 82.6076 316.568 82.8177 316.745 83.099C316.925 83.3767 317.016 83.7257 317.016 84.1458V86.7708C317.016 86.9583 317.031 87.158 317.063 87.3698C317.097 87.5816 317.148 87.7639 317.214 87.9167V88H316.208C316.16 87.8889 316.122 87.7413 316.094 87.5573C316.066 87.3698 316.052 87.1962 316.052 87.0365ZM316.219 84.5833L316.229 85.2604H315.255C314.981 85.2604 314.736 85.283 314.521 85.3281C314.306 85.3698 314.125 85.434 313.979 85.5208C313.833 85.6076 313.722 85.717 313.646 85.849C313.569 85.9774 313.531 86.1285 313.531 86.3021C313.531 86.4792 313.571 86.6406 313.651 86.7865C313.731 86.9323 313.851 87.0486 314.01 87.1354C314.174 87.2187 314.373 87.2604 314.609 87.2604C314.905 87.2604 315.165 87.1979 315.391 87.0729C315.616 86.9479 315.795 86.7951 315.927 86.6146C316.063 86.434 316.135 86.2587 316.146 86.0885L316.557 86.5521C316.533 86.6979 316.467 86.8594 316.359 87.0365C316.252 87.2135 316.108 87.3837 315.927 87.5469C315.75 87.7066 315.538 87.8403 315.292 87.9479C315.049 88.0521 314.774 88.1042 314.469 88.1042C314.087 88.1042 313.752 88.0295 313.464 87.8802C313.179 87.7309 312.957 87.5312 312.797 87.2812C312.641 87.0278 312.563 86.7448 312.563 86.4323C312.563 86.1302 312.622 85.8646 312.74 85.6354C312.858 85.4028 313.028 85.2101 313.25 85.0573C313.472 84.901 313.74 84.783 314.052 84.7031C314.365 84.6233 314.714 84.5833 315.099 84.5833H316.219ZM319.495 83.4479V90.1667H318.526V82.3646H319.411L319.495 83.4479ZM323.292 85.1354V85.2448C323.292 85.6545 323.243 86.0347 323.146 86.3854C323.049 86.7326 322.906 87.0347 322.719 87.2917C322.535 87.5486 322.307 87.7483 322.036 87.8906C321.766 88.033 321.455 88.1042 321.104 88.1042C320.747 88.1042 320.431 88.0451 320.156 87.9271C319.882 87.809 319.649 87.6372 319.458 87.4115C319.267 87.1858 319.115 86.9149 319 86.599C318.889 86.283 318.813 85.9271 318.771 85.5312V84.9479C318.813 84.5312 318.891 84.158 319.005 83.8281C319.12 83.4983 319.271 83.217 319.458 82.9844C319.649 82.7483 319.88 82.5694 320.151 82.4479C320.422 82.3229 320.734 82.2604 321.089 82.2604C321.443 82.2604 321.757 82.3299 322.031 82.4687C322.306 82.6042 322.536 82.7986 322.724 83.0521C322.911 83.3056 323.052 83.6094 323.146 83.9635C323.243 84.3142 323.292 84.7049 323.292 85.1354ZM322.323 85.2448V85.1354C322.323 84.8542 322.293 84.5903 322.234 84.3437C322.175 84.0937 322.083 83.875 321.958 83.6875C321.837 83.4965 321.681 83.3472 321.49 83.2396C321.299 83.1285 321.071 83.0729 320.807 83.0729C320.564 83.0729 320.352 83.1146 320.172 83.1979C319.995 83.2812 319.844 83.3941 319.719 83.5365C319.594 83.6753 319.491 83.8351 319.411 84.0156C319.335 84.1927 319.278 84.3767 319.24 84.5677V85.9167C319.309 86.1597 319.406 86.3889 319.531 86.6042C319.656 86.816 319.823 86.9878 320.031 87.1198C320.24 87.2483 320.502 87.3125 320.818 87.3125C321.078 87.3125 321.302 87.2587 321.49 87.151C321.681 87.0399 321.837 86.8889 321.958 86.6979C322.083 86.5069 322.175 86.2882 322.234 86.0417C322.293 85.7917 322.323 85.526 322.323 85.2448ZM325.484 83.4479V90.1667H324.516V82.3646H325.401L325.484 83.4479ZM329.281 85.1354V85.2448C329.281 85.6545 329.233 86.0347 329.135 86.3854C329.038 86.7326 328.896 87.0347 328.708 87.2917C328.524 87.5486 328.297 87.7483 328.026 87.8906C327.755 88.033 327.444 88.1042 327.094 88.1042C326.736 88.1042 326.42 88.0451 326.146 87.9271C325.872 87.809 325.639 87.6372 325.448 87.4115C325.257 87.1858 325.104 86.9149 324.99 86.599C324.878 86.283 324.802 85.9271 324.76 85.5312V84.9479C324.802 84.5312 324.88 84.158 324.995 83.8281C325.109 83.4983 325.26 83.217 325.448 82.9844C325.639 82.7483 325.87 82.5694 326.141 82.4479C326.411 82.3229 326.724 82.2604 327.078 82.2604C327.432 82.2604 327.747 82.3299 328.021 82.4687C328.295 82.6042 328.526 82.7986 328.714 83.0521C328.901 83.3056 329.042 83.6094 329.135 83.9635C329.233 84.3142 329.281 84.7049 329.281 85.1354ZM328.312 85.2448V85.1354C328.312 84.8542 328.283 84.5903 328.224 84.3437C328.165 84.0937 328.073 83.875 327.948 83.6875C327.826 83.4965 327.67 83.3472 327.479 83.2396C327.288 83.1285 327.061 83.0729 326.797 83.0729C326.554 83.0729 326.342 83.1146 326.161 83.1979C325.984 83.2812 325.833 83.3941 325.708 83.5365C325.583 83.6753 325.481 83.8351 325.401 84.0156C325.325 84.1927 325.267 84.3767 325.229 84.5677V85.9167C325.299 86.1597 325.396 86.3889 325.521 86.6042C325.646 86.816 325.812 86.9878 326.021 87.1198C326.229 87.2483 326.491 87.3125 326.807 87.3125C327.068 87.3125 327.292 87.2587 327.479 87.151C327.67 87.0399 327.826 86.8889 327.948 86.6979C328.073 86.5069 328.165 86.2882 328.224 86.0417C328.283 85.7917 328.312 85.526 328.312 85.2448Z" fill="black"/>
</svg>
