<svg width="360" height="91" viewBox="0 0 360 91" fill="none" xmlns="http://www.w3.org/2000/svg">
<path d="M0 0H360V91H0V0Z" fill="white"/>
<path d="M177.974 33.2V43H176.952V38.478H170.82V43H169.784V33.2H170.82V37.568H176.952V33.2H177.974ZM183.539 35.58C184.5 35.58 185.238 35.8227 185.751 36.308C186.264 36.784 186.521 37.4933 186.521 38.436V43H185.569V41.852C185.345 42.2347 185.014 42.5333 184.575 42.748C184.146 42.9627 183.632 43.07 183.035 43.07C182.214 43.07 181.56 42.874 181.075 42.482C180.59 42.09 180.347 41.572 180.347 40.928C180.347 40.3027 180.571 39.7987 181.019 39.416C181.476 39.0333 182.2 38.842 183.189 38.842H185.527V38.394C185.527 37.7593 185.35 37.2787 184.995 36.952C184.64 36.616 184.122 36.448 183.441 36.448C182.974 36.448 182.526 36.5273 182.097 36.686C181.668 36.8353 181.299 37.0453 180.991 37.316L180.543 36.574C180.916 36.2567 181.364 36.014 181.887 35.846C182.41 35.6687 182.96 35.58 183.539 35.58ZM183.189 42.286C183.749 42.286 184.23 42.16 184.631 41.908C185.032 41.6467 185.331 41.2733 185.527 40.788V39.584H183.217C181.957 39.584 181.327 40.0227 181.327 40.9C181.327 41.3293 181.49 41.67 181.817 41.922C182.144 42.1647 182.601 42.286 183.189 42.286ZM191.195 43.07C190.598 43.07 190.024 42.986 189.473 42.818C188.932 42.6407 188.507 42.4213 188.199 42.16L188.647 41.376C188.955 41.6187 189.342 41.8193 189.809 41.978C190.276 42.1273 190.761 42.202 191.265 42.202C191.937 42.202 192.432 42.0993 192.749 41.894C193.076 41.6793 193.239 41.3807 193.239 40.998C193.239 40.7273 193.15 40.5173 192.973 40.368C192.796 40.2093 192.572 40.0927 192.301 40.018C192.03 39.934 191.671 39.8547 191.223 39.78C190.626 39.668 190.145 39.556 189.781 39.444C189.417 39.3227 189.104 39.122 188.843 38.842C188.591 38.562 188.465 38.1747 188.465 37.68C188.465 37.064 188.722 36.56 189.235 36.168C189.748 35.776 190.462 35.58 191.377 35.58C191.853 35.58 192.329 35.6453 192.805 35.776C193.281 35.8973 193.673 36.0607 193.981 36.266L193.547 37.064C192.94 36.644 192.217 36.434 191.377 36.434C190.742 36.434 190.262 36.546 189.935 36.77C189.618 36.994 189.459 37.288 189.459 37.652C189.459 37.932 189.548 38.156 189.725 38.324C189.912 38.492 190.14 38.618 190.411 38.702C190.682 38.7767 191.055 38.856 191.531 38.94C192.119 39.052 192.59 39.164 192.945 39.276C193.3 39.388 193.603 39.5793 193.855 39.85C194.107 40.1207 194.233 40.494 194.233 40.97C194.233 41.614 193.962 42.1273 193.421 42.51C192.889 42.8833 192.147 43.07 191.195 43.07ZM198.045 43.07C197.447 43.07 196.873 42.986 196.323 42.818C195.781 42.6407 195.357 42.4213 195.049 42.16L195.497 41.376C195.805 41.6187 196.192 41.8193 196.659 41.978C197.125 42.1273 197.611 42.202 198.115 42.202C198.787 42.202 199.281 42.0993 199.599 41.894C199.925 41.6793 200.089 41.3807 200.089 40.998C200.089 40.7273 200 40.5173 199.823 40.368C199.645 40.2093 199.421 40.0927 199.151 40.018C198.88 39.934 198.521 39.8547 198.073 39.78C197.475 39.668 196.995 39.556 196.631 39.444C196.267 39.3227 195.954 39.122 195.693 38.842C195.441 38.562 195.315 38.1747 195.315 37.68C195.315 37.064 195.571 36.56 196.085 36.168C196.598 35.776 197.312 35.58 198.227 35.58C198.703 35.58 199.179 35.6453 199.655 35.776C200.131 35.8973 200.523 36.0607 200.831 36.266L200.397 37.064C199.79 36.644 199.067 36.434 198.227 36.434C197.592 36.434 197.111 36.546 196.785 36.77C196.467 36.994 196.309 37.288 196.309 37.652C196.309 37.932 196.397 38.156 196.575 38.324C196.761 38.492 196.99 38.618 197.261 38.702C197.531 38.7767 197.905 38.856 198.381 38.94C198.969 39.052 199.44 39.164 199.795 39.276C200.149 39.388 200.453 39.5793 200.705 39.85C200.957 40.1207 201.083 40.494 201.083 40.97C201.083 41.614 200.812 42.1273 200.271 42.51C199.739 42.8833 198.997 43.07 198.045 43.07ZM202.92 32.612H203.914V43H202.92V32.612ZM213.092 39.626H206.932C206.988 40.3913 207.282 41.012 207.814 41.488C208.346 41.9547 209.018 42.188 209.83 42.188C210.287 42.188 210.707 42.1087 211.09 41.95C211.473 41.782 211.804 41.5393 212.084 41.222L212.644 41.866C212.317 42.258 211.907 42.5567 211.412 42.762C210.927 42.9673 210.39 43.07 209.802 43.07C209.046 43.07 208.374 42.9113 207.786 42.594C207.207 42.2673 206.755 41.8193 206.428 41.25C206.101 40.6807 205.938 40.0367 205.938 39.318C205.938 38.5993 206.092 37.9553 206.4 37.386C206.717 36.8167 207.147 36.3733 207.688 36.056C208.239 35.7387 208.855 35.58 209.536 35.58C210.217 35.58 210.829 35.7387 211.37 36.056C211.911 36.3733 212.336 36.8167 212.644 37.386C212.952 37.946 213.106 38.59 213.106 39.318L213.092 39.626ZM209.536 36.434C208.827 36.434 208.229 36.6627 207.744 37.12C207.268 37.568 206.997 38.156 206.932 38.884H212.154C212.089 38.156 211.813 37.568 211.328 37.12C210.852 36.6627 210.255 36.434 209.536 36.434ZM221.229 33.382C220.8 33.382 220.473 33.4987 220.249 33.732C220.035 33.9653 219.927 34.3107 219.927 34.768V35.636H222.195V36.476H219.955V43H218.961V36.476H217.645V35.636H218.961V34.726C218.961 34.054 219.153 33.522 219.535 33.13C219.927 32.738 220.478 32.542 221.187 32.542C221.467 32.542 221.738 32.584 221.999 32.668C222.261 32.7427 222.48 32.8547 222.657 33.004L222.321 33.746C222.032 33.5033 221.668 33.382 221.229 33.382ZM225.61 37.078C225.844 36.5833 226.189 36.21 226.646 35.958C227.113 35.706 227.687 35.58 228.368 35.58V36.546L228.13 36.532C227.356 36.532 226.749 36.77 226.31 37.246C225.872 37.722 225.652 38.3893 225.652 39.248V43H224.658V35.636H225.61V37.078ZM236.512 39.626H230.352C230.408 40.3913 230.702 41.012 231.234 41.488C231.766 41.9547 232.438 42.188 233.25 42.188C233.707 42.188 234.127 42.1087 234.51 41.95C234.893 41.782 235.224 41.5393 235.504 41.222L236.064 41.866C235.737 42.258 235.327 42.5567 234.832 42.762C234.347 42.9673 233.81 43.07 233.222 43.07C232.466 43.07 231.794 42.9113 231.206 42.594C230.627 42.2673 230.175 41.8193 229.848 41.25C229.521 40.6807 229.358 40.0367 229.358 39.318C229.358 38.5993 229.512 37.9553 229.82 37.386C230.137 36.8167 230.567 36.3733 231.108 36.056C231.659 35.7387 232.275 35.58 232.956 35.58C233.637 35.58 234.249 35.7387 234.79 36.056C235.331 36.3733 235.756 36.8167 236.064 37.386C236.372 37.946 236.526 38.59 236.526 39.318L236.512 39.626ZM232.956 36.434C232.247 36.434 231.649 36.6627 231.164 37.12C230.688 37.568 230.417 38.156 230.352 38.884H235.574C235.509 38.156 235.233 37.568 234.748 37.12C234.272 36.6627 233.675 36.434 232.956 36.434ZM244.961 39.626H238.801C238.857 40.3913 239.151 41.012 239.683 41.488C240.215 41.9547 240.887 42.188 241.699 42.188C242.156 42.188 242.576 42.1087 242.959 41.95C243.342 41.782 243.673 41.5393 243.953 41.222L244.513 41.866C244.186 42.258 243.776 42.5567 243.281 42.762C242.796 42.9673 242.259 43.07 241.671 43.07C240.915 43.07 240.243 42.9113 239.655 42.594C239.076 42.2673 238.624 41.8193 238.297 41.25C237.97 40.6807 237.807 40.0367 237.807 39.318C237.807 38.5993 237.961 37.9553 238.269 37.386C238.586 36.8167 239.016 36.3733 239.557 36.056C240.108 35.7387 240.724 35.58 241.405 35.58C242.086 35.58 242.698 35.7387 243.239 36.056C243.78 36.3733 244.205 36.8167 244.513 37.386C244.821 37.946 244.975 38.59 244.975 39.318L244.961 39.626ZM241.405 36.434C240.696 36.434 240.098 36.6627 239.613 37.12C239.137 37.568 238.866 38.156 238.801 38.884H244.023C243.958 38.156 243.682 37.568 243.197 37.12C242.721 36.6627 242.124 36.434 241.405 36.434ZM252.636 43.07C252.039 43.07 251.465 42.986 250.914 42.818C250.373 42.6407 249.948 42.4213 249.64 42.16L250.088 41.376C250.396 41.6187 250.784 41.8193 251.25 41.978C251.717 42.1273 252.202 42.202 252.706 42.202C253.378 42.202 253.873 42.0993 254.19 41.894C254.517 41.6793 254.68 41.3807 254.68 40.998C254.68 40.7273 254.592 40.5173 254.414 40.368C254.237 40.2093 254.013 40.0927 253.742 40.018C253.472 39.934 253.112 39.8547 252.664 39.78C252.067 39.668 251.586 39.556 251.222 39.444C250.858 39.3227 250.546 39.122 250.284 38.842C250.032 38.562 249.906 38.1747 249.906 37.68C249.906 37.064 250.163 36.56 250.676 36.168C251.19 35.776 251.904 35.58 252.818 35.58C253.294 35.58 253.77 35.6453 254.246 35.776C254.722 35.8973 255.114 36.0607 255.422 36.266L254.988 37.064C254.382 36.644 253.658 36.434 252.818 36.434C252.184 36.434 251.703 36.546 251.376 36.77C251.059 36.994 250.9 37.288 250.9 37.652C250.9 37.932 250.989 38.156 251.166 38.324C251.353 38.492 251.582 38.618 251.852 38.702C252.123 38.7767 252.496 38.856 252.972 38.94C253.56 39.052 254.032 39.164 254.386 39.276C254.741 39.388 255.044 39.5793 255.296 39.85C255.548 40.1207 255.674 40.494 255.674 40.97C255.674 41.614 255.404 42.1273 254.862 42.51C254.33 42.8833 253.588 43.07 252.636 43.07ZM263.924 39.626H257.764C257.82 40.3913 258.114 41.012 258.646 41.488C259.178 41.9547 259.85 42.188 260.662 42.188C261.119 42.188 261.539 42.1087 261.922 41.95C262.305 41.782 262.636 41.5393 262.916 41.222L263.476 41.866C263.149 42.258 262.739 42.5567 262.244 42.762C261.759 42.9673 261.222 43.07 260.634 43.07C259.878 43.07 259.206 42.9113 258.618 42.594C258.039 42.2673 257.587 41.8193 257.26 41.25C256.933 40.6807 256.77 40.0367 256.77 39.318C256.77 38.5993 256.924 37.9553 257.232 37.386C257.549 36.8167 257.979 36.3733 258.52 36.056C259.071 35.7387 259.687 35.58 260.368 35.58C261.049 35.58 261.661 35.7387 262.202 36.056C262.743 36.3733 263.168 36.8167 263.476 37.386C263.784 37.946 263.938 38.59 263.938 39.318L263.924 39.626ZM260.368 36.434C259.659 36.434 259.061 36.6627 258.576 37.12C258.1 37.568 257.829 38.156 257.764 38.884H262.986C262.921 38.156 262.645 37.568 262.16 37.12C261.684 36.6627 261.087 36.434 260.368 36.434ZM266.913 37.078C267.147 36.5833 267.492 36.21 267.949 35.958C268.416 35.706 268.99 35.58 269.671 35.58V36.546L269.433 36.532C268.659 36.532 268.052 36.77 267.613 37.246C267.175 37.722 266.955 38.3893 266.955 39.248V43H265.961V35.636H266.913V37.078ZM277.973 35.636L274.697 43H273.675L270.413 35.636H271.449L274.207 41.908L276.993 35.636H277.973ZM279.373 35.636H280.367V43H279.373V35.636ZM279.877 34.026C279.672 34.026 279.499 33.956 279.359 33.816C279.219 33.676 279.149 33.508 279.149 33.312C279.149 33.1253 279.219 32.962 279.359 32.822C279.499 32.682 279.672 32.612 279.877 32.612C280.083 32.612 280.255 32.682 280.395 32.822C280.535 32.9527 280.605 33.1113 280.605 33.298C280.605 33.5033 280.535 33.676 280.395 33.816C280.255 33.956 280.083 34.026 279.877 34.026ZM286.185 43.07C285.457 43.07 284.804 42.9113 284.225 42.594C283.656 42.2767 283.208 41.8333 282.881 41.264C282.554 40.6853 282.391 40.0367 282.391 39.318C282.391 38.5993 282.554 37.9553 282.881 37.386C283.208 36.8167 283.656 36.3733 284.225 36.056C284.804 35.7387 285.457 35.58 286.185 35.58C286.82 35.58 287.384 35.706 287.879 35.958C288.383 36.2007 288.78 36.56 289.069 37.036L288.327 37.54C288.084 37.176 287.776 36.9053 287.403 36.728C287.03 36.5413 286.624 36.448 286.185 36.448C285.653 36.448 285.172 36.5693 284.743 36.812C284.323 37.0453 283.992 37.3813 283.749 37.82C283.516 38.2587 283.399 38.758 283.399 39.318C283.399 39.8873 283.516 40.3913 283.749 40.83C283.992 41.2593 284.323 41.5953 284.743 41.838C285.172 42.0713 285.653 42.188 286.185 42.188C286.624 42.188 287.03 42.0993 287.403 41.922C287.776 41.7447 288.084 41.474 288.327 41.11L289.069 41.614C288.78 42.09 288.383 42.454 287.879 42.706C287.375 42.9487 286.81 43.07 286.185 43.07ZM297.311 39.626H291.151C291.207 40.3913 291.501 41.012 292.033 41.488C292.565 41.9547 293.237 42.188 294.049 42.188C294.506 42.188 294.926 42.1087 295.309 41.95C295.691 41.782 296.023 41.5393 296.303 41.222L296.863 41.866C296.536 42.258 296.125 42.5567 295.631 42.762C295.145 42.9673 294.609 43.07 294.021 43.07C293.265 43.07 292.593 42.9113 292.005 42.594C291.426 42.2673 290.973 41.8193 290.647 41.25C290.32 40.6807 290.157 40.0367 290.157 39.318C290.157 38.5993 290.311 37.9553 290.619 37.386C290.936 36.8167 291.365 36.3733 291.907 36.056C292.457 35.7387 293.073 35.58 293.755 35.58C294.436 35.58 295.047 35.7387 295.589 36.056C296.13 36.3733 296.555 36.8167 296.863 37.386C297.171 37.946 297.325 38.59 297.325 39.318L297.311 39.626ZM293.755 36.434C293.045 36.434 292.448 36.6627 291.963 37.12C291.487 37.568 291.216 38.156 291.151 38.884H296.373C296.307 38.156 296.032 37.568 295.547 37.12C295.071 36.6627 294.473 36.434 293.755 36.434ZM301.322 43.07C300.725 43.07 300.151 42.986 299.6 42.818C299.059 42.6407 298.634 42.4213 298.326 42.16L298.774 41.376C299.082 41.6187 299.469 41.8193 299.936 41.978C300.403 42.1273 300.888 42.202 301.392 42.202C302.064 42.202 302.559 42.0993 302.876 41.894C303.203 41.6793 303.366 41.3807 303.366 40.998C303.366 40.7273 303.277 40.5173 303.1 40.368C302.923 40.2093 302.699 40.0927 302.428 40.018C302.157 39.934 301.798 39.8547 301.35 39.78C300.753 39.668 300.272 39.556 299.908 39.444C299.544 39.3227 299.231 39.122 298.97 38.842C298.718 38.562 298.592 38.1747 298.592 37.68C298.592 37.064 298.849 36.56 299.362 36.168C299.875 35.776 300.589 35.58 301.504 35.58C301.98 35.58 302.456 35.6453 302.932 35.776C303.408 35.8973 303.8 36.0607 304.108 36.266L303.674 37.064C303.067 36.644 302.344 36.434 301.504 36.434C300.869 36.434 300.389 36.546 300.062 36.77C299.745 36.994 299.586 37.288 299.586 37.652C299.586 37.932 299.675 38.156 299.852 38.324C300.039 38.492 300.267 38.618 300.538 38.702C300.809 38.7767 301.182 38.856 301.658 38.94C302.246 39.052 302.717 39.164 303.072 39.276C303.427 39.388 303.73 39.5793 303.982 39.85C304.234 40.1207 304.36 40.494 304.36 40.97C304.36 41.614 304.089 42.1273 303.548 42.51C303.016 42.8833 302.274 43.07 301.322 43.07ZM200.323 52.636L197.537 60H196.599L194.275 53.966L191.951 60H191.013L188.241 52.636H189.193L191.503 58.894L193.869 52.636H194.723L197.075 58.894L199.413 52.636H200.323ZM201.82 52.636H202.814V60H201.82V52.636ZM202.324 51.026C202.118 51.026 201.946 50.956 201.806 50.816C201.666 50.676 201.596 50.508 201.596 50.312C201.596 50.1253 201.666 49.962 201.806 49.822C201.946 49.682 202.118 49.612 202.324 49.612C202.529 49.612 202.702 49.682 202.842 49.822C202.982 49.9527 203.052 50.1113 203.052 50.298C203.052 50.5033 202.982 50.676 202.842 50.816C202.702 50.956 202.529 51.026 202.324 51.026ZM209.457 59.552C209.271 59.72 209.037 59.8507 208.757 59.944C208.487 60.028 208.202 60.07 207.903 60.07C207.213 60.07 206.681 59.8833 206.307 59.51C205.934 59.1367 205.747 58.6093 205.747 57.928V53.476H204.431V52.636H205.747V51.026H206.741V52.636H208.981V53.476H206.741V57.872C206.741 58.3107 206.849 58.6467 207.063 58.88C207.287 59.104 207.605 59.216 208.015 59.216C208.221 59.216 208.417 59.1833 208.603 59.118C208.799 59.0527 208.967 58.9593 209.107 58.838L209.457 59.552ZM215.019 52.58C215.943 52.58 216.676 52.8507 217.217 53.392C217.768 53.924 218.043 54.7033 218.043 55.73V60H217.049V55.828C217.049 55.0627 216.858 54.4793 216.475 54.078C216.092 53.6767 215.546 53.476 214.837 53.476C214.044 53.476 213.414 53.714 212.947 54.19C212.49 54.6567 212.261 55.3053 212.261 56.136V60H211.267V49.612H212.261V53.924C212.532 53.4947 212.905 53.1633 213.381 52.93C213.857 52.6967 214.403 52.58 215.019 52.58ZM228.9 60.084C227.929 60.084 227.047 59.8693 226.254 59.44C225.47 59.0013 224.854 58.404 224.406 57.648C223.967 56.892 223.748 56.0427 223.748 55.1C223.748 54.1573 223.967 53.308 224.406 52.552C224.854 51.796 225.47 51.2033 226.254 50.774C227.047 50.3353 227.929 50.116 228.9 50.116C229.87 50.116 230.743 50.3307 231.518 50.76C232.302 51.1893 232.918 51.7867 233.366 52.552C233.814 53.308 234.038 54.1573 234.038 55.1C234.038 56.0427 233.814 56.8967 233.366 57.662C232.918 58.418 232.302 59.0107 231.518 59.44C230.743 59.8693 229.87 60.084 228.9 60.084ZM228.9 59.16C229.674 59.16 230.374 58.9873 231 58.642C231.625 58.2873 232.115 57.802 232.47 57.186C232.824 56.5607 233.002 55.8653 233.002 55.1C233.002 54.3347 232.824 53.644 232.47 53.028C232.115 52.4027 231.625 51.9173 231 51.572C230.374 51.2173 229.674 51.04 228.9 51.04C228.125 51.04 227.42 51.2173 226.786 51.572C226.16 51.9173 225.666 52.4027 225.302 53.028C224.947 53.644 224.77 54.3347 224.77 55.1C224.77 55.8653 224.947 56.5607 225.302 57.186C225.666 57.802 226.16 58.2873 226.786 58.642C227.42 58.9873 228.125 59.16 228.9 59.16ZM242.338 52.636L238.656 60.882C238.357 61.5727 238.012 62.0627 237.62 62.352C237.228 62.6413 236.756 62.786 236.206 62.786C235.851 62.786 235.52 62.73 235.212 62.618C234.904 62.506 234.638 62.338 234.414 62.114L234.876 61.372C235.249 61.7453 235.697 61.932 236.22 61.932C236.556 61.932 236.84 61.8387 237.074 61.652C237.316 61.4653 237.54 61.148 237.746 60.7L238.068 59.986L234.778 52.636H235.814L238.586 58.894L241.358 52.636H242.338ZM249.944 56.626H243.784C243.84 57.3913 244.134 58.012 244.666 58.488C245.198 58.9547 245.87 59.188 246.682 59.188C247.14 59.188 247.56 59.1087 247.942 58.95C248.325 58.782 248.656 58.5393 248.936 58.222L249.496 58.866C249.17 59.258 248.759 59.5567 248.264 59.762C247.779 59.9673 247.242 60.07 246.654 60.07C245.898 60.07 245.226 59.9113 244.638 59.594C244.06 59.2673 243.607 58.8193 243.28 58.25C242.954 57.6807 242.79 57.0367 242.79 56.318C242.79 55.5993 242.944 54.9553 243.252 54.386C243.57 53.8167 243.999 53.3733 244.54 53.056C245.091 52.7387 245.707 52.58 246.388 52.58C247.07 52.58 247.681 52.7387 248.222 53.056C248.764 53.3733 249.188 53.8167 249.496 54.386C249.804 54.946 249.958 55.59 249.958 56.318L249.944 56.626ZM246.388 53.434C245.679 53.434 245.082 53.6627 244.596 54.12C244.12 54.568 243.85 55.156 243.784 55.884H249.006C248.941 55.156 248.666 54.568 248.18 54.12C247.704 53.6627 247.107 53.434 246.388 53.434ZM258.366 54.946C259.01 55.086 259.504 55.366 259.85 55.786C260.204 56.1967 260.382 56.7287 260.382 57.382C260.382 58.222 260.069 58.8707 259.444 59.328C258.828 59.776 257.913 60 256.7 60H252.192V50.2H256.42C257.512 50.2 258.356 50.4193 258.954 50.858C259.56 51.2967 259.864 51.9173 259.864 52.72C259.864 53.2613 259.728 53.7233 259.458 54.106C259.196 54.4793 258.832 54.7593 258.366 54.946ZM253.228 51.054V54.61H256.35C257.143 54.61 257.754 54.4607 258.184 54.162C258.613 53.854 258.828 53.4107 258.828 52.832C258.828 52.2533 258.613 51.8147 258.184 51.516C257.754 51.208 257.143 51.054 256.35 51.054H253.228ZM256.686 59.146C257.563 59.146 258.226 58.9967 258.674 58.698C259.122 58.3993 259.346 57.9327 259.346 57.298C259.346 56.0753 258.459 55.464 256.686 55.464H253.228V59.146H256.686ZM269.172 52.636V60H268.22V58.656C267.959 59.104 267.6 59.454 267.142 59.706C266.685 59.9487 266.162 60.07 265.574 60.07C264.613 60.07 263.852 59.804 263.292 59.272C262.742 58.7307 262.466 57.942 262.466 56.906V52.636H263.46V56.808C263.46 57.5827 263.652 58.1707 264.034 58.572C264.417 58.9733 264.963 59.174 265.672 59.174C266.447 59.174 267.058 58.9407 267.506 58.474C267.954 57.998 268.178 57.34 268.178 56.5V52.636H269.172ZM273.93 60.07C273.333 60.07 272.759 59.986 272.208 59.818C271.667 59.6407 271.242 59.4213 270.934 59.16L271.382 58.376C271.69 58.6187 272.078 58.8193 272.544 58.978C273.011 59.1273 273.496 59.202 274 59.202C274.672 59.202 275.167 59.0993 275.484 58.894C275.811 58.6793 275.974 58.3807 275.974 57.998C275.974 57.7273 275.886 57.5173 275.708 57.368C275.531 57.2093 275.307 57.0927 275.036 57.018C274.766 56.934 274.406 56.8547 273.958 56.78C273.361 56.668 272.88 56.556 272.516 56.444C272.152 56.3227 271.84 56.122 271.578 55.842C271.326 55.562 271.2 55.1747 271.2 54.68C271.2 54.064 271.457 53.56 271.97 53.168C272.484 52.776 273.198 52.58 274.112 52.58C274.588 52.58 275.064 52.6453 275.54 52.776C276.016 52.8973 276.408 53.0607 276.716 53.266L276.282 54.064C275.676 53.644 274.952 53.434 274.112 53.434C273.478 53.434 272.997 53.546 272.67 53.77C272.353 53.994 272.194 54.288 272.194 54.652C272.194 54.932 272.283 55.156 272.46 55.324C272.647 55.492 272.876 55.618 273.146 55.702C273.417 55.7767 273.79 55.856 274.266 55.94C274.854 56.052 275.326 56.164 275.68 56.276C276.035 56.388 276.338 56.5793 276.59 56.85C276.842 57.1207 276.968 57.494 276.968 57.97C276.968 58.614 276.698 59.1273 276.156 59.51C275.624 59.8833 274.882 60.07 273.93 60.07ZM284.857 52.636L281.175 60.882C280.877 61.5727 280.531 62.0627 280.139 62.352C279.747 62.6413 279.276 62.786 278.725 62.786C278.371 62.786 278.039 62.73 277.731 62.618C277.423 62.506 277.157 62.338 276.933 62.114L277.395 61.372C277.769 61.7453 278.217 61.932 278.739 61.932C279.075 61.932 279.36 61.8387 279.593 61.652C279.836 61.4653 280.06 61.148 280.265 60.7L280.587 59.986L277.297 52.636H278.333L281.105 58.894L283.877 52.636H284.857Z" fill="black"/>
<path d="M84.9994 72.9491C78.2381 72.9579 71.72 70.4273 66.7359 65.8586C61.7518 61.2898 58.6651 55.0159 58.0871 48.2794C57.5091 41.5429 59.4818 34.8349 63.6147 29.4838C67.7476 24.1327 73.7393 20.5287 80.4033 19.3855C87.0672 18.2423 93.9175 19.6433 99.5976 23.311C105.278 26.9787 109.373 32.6456 111.074 39.1897C112.774 45.7337 111.955 52.6776 108.778 58.6463C105.602 64.615 100.3 69.1733 93.9221 71.4185C91.0557 72.4291 88.0387 72.9466 84.9994 72.9491ZM84.9994 19.5838C80.784 19.5923 76.6317 20.6086 72.8887 22.5478C69.1458 24.487 65.9208 27.2929 63.4825 30.7316C61.0443 34.1704 59.4635 38.1422 58.8719 42.3159C58.2804 46.4896 58.6953 50.7443 60.0821 54.7251C61.6885 59.2864 64.5178 63.3183 68.2609 66.3801C72.004 69.442 76.5167 71.416 81.3059 72.0864C86.095 72.7568 90.9763 72.0978 95.4163 70.1814C99.8562 68.265 103.684 65.165 106.481 61.2202C109.278 57.2753 110.937 52.6375 111.276 47.8136C111.616 42.9896 110.623 38.1652 108.405 33.8677C106.188 29.5701 102.832 25.9647 98.7041 23.4456C94.5762 20.9264 89.8352 19.5905 84.9994 19.5838Z" fill="#002177"/>
<path d="M84.9989 71.6904C78.55 71.6903 72.3361 69.2689 67.5875 64.9055C62.8389 60.5421 59.9017 54.5547 59.3575 48.1288C58.8132 41.7029 60.7015 35.3069 64.6486 30.2069C68.5957 25.107 74.3138 21.675 80.6708 20.5903C87.0279 19.5056 93.5605 20.8474 98.9753 24.3499C104.39 27.8525 108.293 33.2605 109.91 39.5033C111.527 45.7461 110.742 52.3687 107.709 58.0598C104.676 63.751 99.6163 68.0959 93.5322 70.2344C90.7901 71.1968 87.905 71.6891 84.9989 71.6904ZM84.9989 21.909C79.8885 21.9036 74.9089 23.5239 70.7801 26.5354C66.6514 29.5469 63.5875 33.7936 62.0316 38.6613C60.4757 43.5291 60.5084 48.7655 62.125 53.6135C63.7416 58.4614 66.8583 62.6695 71.0243 65.6292C75.1904 68.5889 80.1899 70.1467 85.2998 70.0775C90.4097 70.0082 95.3651 68.3155 99.4495 65.244C103.534 62.1725 106.535 57.8815 108.02 52.9916C109.505 48.1016 109.395 42.8662 107.708 38.0424C106.056 33.335 102.985 29.2558 98.9177 26.3664C94.8506 23.4771 89.9878 21.9198 84.9989 21.909Z" fill="#002177"/>
<path d="M84.999 62.2398C80.9269 62.2479 77.0003 60.7259 73.9974 57.9754C70.9946 55.2249 69.1346 51.4467 68.7862 47.3895C68.4377 43.3323 69.6262 39.2923 72.116 36.07C74.6059 32.8478 78.2154 30.6785 82.2293 29.9922C86.2432 29.3058 90.3684 30.1524 93.7875 32.3642C97.2066 34.576 99.67 37.9916 100.689 41.9341C101.709 45.8765 101.21 50.0581 99.2918 53.6501C97.3735 57.2421 94.1758 59.9823 90.3323 61.3278C88.6179 61.9274 86.8152 62.2357 84.999 62.2398ZM84.999 30.2824C81.6643 30.2809 78.4155 31.34 75.7224 33.3066C73.0293 35.2732 71.0315 38.0455 70.0179 41.2224C69.0043 44.3993 69.0274 47.8163 70.0839 50.9793C71.1404 54.1422 73.1755 56.8871 75.8949 58.8172C78.6144 60.7472 81.8772 61.7623 85.2116 61.7156C88.546 61.6689 91.7791 60.5629 94.4435 58.5575C97.1078 56.5521 99.0653 53.7513 100.033 50.56C101 47.3687 100.928 43.9524 99.8257 40.8051C98.7451 37.7337 96.7392 35.0727 94.0841 33.1883C91.4289 31.3039 88.2549 30.2887 84.999 30.2824Z" fill="#002177"/>
<path d="M68.9516 31.8668C69.2902 31.7316 69.6609 31.6983 70.0182 31.7708C70.3952 31.837 70.7482 32.0006 71.0422 32.2455C71.3434 32.477 71.5803 32.7818 71.7302 33.1308C71.8731 33.4558 71.9211 33.8144 71.8689 34.1655C71.8191 34.5265 71.6694 34.8663 71.4369 35.1468C71.2116 35.4329 70.9157 35.6553 70.5782 35.7922C70.24 35.9286 69.8694 35.9638 69.5116 35.8935C69.1376 35.8201 68.7867 35.6577 68.4887 35.4201C68.1907 35.1824 67.9543 34.8765 67.7996 34.5282C67.6524 34.1931 67.6061 33.8225 67.6662 33.4615C67.7292 33.1077 67.8805 32.7755 68.1062 32.4958C68.3318 32.2161 68.6244 31.9979 68.9569 31.8615L68.9516 31.8668ZM68.1622 33.5362C68.1254 33.7976 68.1643 34.0641 68.2742 34.3042C68.3952 34.5709 68.578 34.805 68.8076 34.9868C69.0353 35.1776 69.3063 35.3094 69.5969 35.3708C69.8578 35.4384 70.133 35.4254 70.3862 35.3335C70.6352 35.2327 70.8538 35.0691 71.0209 34.8588C71.188 34.6511 71.2966 34.4026 71.3356 34.1388C71.373 33.8774 71.3341 33.6107 71.2236 33.3708C71.0906 33.107 70.9021 32.8751 70.671 32.691C70.44 32.5068 70.1718 32.3749 69.8849 32.3042C69.6264 32.2496 69.3576 32.2719 69.1116 32.3682C68.865 32.4654 68.6494 32.6276 68.4876 32.8375C68.3207 33.0385 68.2086 33.2791 68.1622 33.5362Z" fill="#002177"/>
<path d="M72.7652 28.1543L73.2986 31.0023L74.2799 32.2236L73.8586 32.565L72.8932 31.3436L70.2266 30.1916L70.7119 29.8023L72.7332 30.725L72.2692 28.533L72.7652 28.1543Z" fill="#002177"/>
<path d="M74.3957 27.7016L75.073 28.9336L76.465 28.1923L76.6624 28.5496L75.2864 29.3016L75.9744 30.571L77.5104 29.7336L77.7184 30.1123L75.713 31.179L73.7344 27.5523L75.7344 26.459L75.9424 26.8377L74.3957 27.7016Z" fill="#002177"/>
<path d="M80.1035 27.3814C80.3067 27.5018 80.4599 27.691 80.5355 27.9148C80.5898 28.0565 80.6118 28.2086 80.5998 28.36C80.5878 28.5113 80.5421 28.658 80.4661 28.7894C80.267 29.0876 79.9652 29.3021 79.6181 29.3921L78.1621 29.8774L76.8555 25.9521L78.2901 25.4721C78.605 25.3455 78.9544 25.3342 79.2768 25.4401C79.5072 25.5553 79.6881 25.75 79.7862 25.9882C79.8842 26.2265 79.8927 26.4921 79.8101 26.7361C79.7245 26.9356 79.5767 27.1021 79.3888 27.2108C79.6397 27.1812 79.893 27.2417 80.1035 27.3814ZM77.9328 27.5254L78.7808 27.2428C78.9992 27.1963 79.1906 27.0661 79.3141 26.8801C79.3591 26.7994 79.3858 26.7098 79.3923 26.6176C79.3987 26.5254 79.3848 26.433 79.3515 26.3468C79.3274 26.257 79.2832 26.1738 79.2222 26.1036C79.1612 26.0333 79.085 25.9779 78.9995 25.9414C78.7899 25.8619 78.5584 25.8619 78.3488 25.9414L77.5221 26.2188L77.9328 27.5254ZM79.9435 28.6294C79.9962 28.542 80.028 28.4435 80.0363 28.3417C80.0447 28.24 80.0293 28.1376 79.9915 28.0428C79.9639 27.9437 79.914 27.8523 79.8456 27.7756C79.7772 27.6988 79.6921 27.6388 79.5968 27.6001C79.3748 27.518 79.1308 27.518 78.9088 27.6001L78.0661 27.9041L78.5301 29.3068L79.3888 29.0188C79.6141 28.959 79.8107 28.821 79.9435 28.6294Z" fill="#002177"/>
<path d="M81.3615 24.7094L81.6708 27.1734C81.6849 27.4959 81.8179 27.8017 82.0441 28.032C82.1527 28.118 82.2781 28.18 82.4123 28.214C82.5465 28.248 82.6864 28.2532 82.8228 28.2294C82.957 28.223 83.0882 28.1872 83.2071 28.1245C83.326 28.0619 83.4297 27.9738 83.5108 27.8667C83.6759 27.5893 83.7311 27.2601 83.6655 26.944L83.3615 24.48L83.8948 24.416L84.1988 26.88C84.2816 27.3286 84.1859 27.7917 83.9321 28.1707C83.7995 28.3269 83.6366 28.4547 83.4533 28.5463C83.27 28.638 83.07 28.6916 82.8655 28.704C82.6635 28.7392 82.4564 28.7322 82.2573 28.6836C82.0581 28.6349 81.8712 28.5457 81.7081 28.4214C81.537 28.2675 81.398 28.0814 81.2991 27.8736C81.2003 27.6658 81.1435 27.4405 81.1321 27.2107L80.8281 24.7467L81.3615 24.7094Z" fill="#002177"/>
<path d="M87.5547 28.1708C87.4408 28.3379 87.2817 28.4692 87.096 28.5494C86.8683 28.6432 86.6211 28.6798 86.376 28.6561C86.1252 28.6412 85.8809 28.5702 85.6613 28.4481C85.4649 28.3457 85.2992 28.193 85.1813 28.0054C85.0653 27.8217 85.0025 27.6094 85 27.3921L85.5653 27.4348C85.5721 27.5576 85.6048 27.6775 85.6613 27.7868C85.7239 27.9073 85.8178 28.0087 85.9333 28.0801C86.068 28.1696 86.2251 28.2195 86.3867 28.2241C86.5764 28.2466 86.7674 28.195 86.92 28.0801C86.9869 28.0209 87.0412 27.9488 87.0796 27.8682C87.1181 27.7875 87.14 27.7 87.144 27.6108C87.1608 27.4645 87.1249 27.3169 87.0427 27.1948C86.9614 27.0825 86.8579 26.9881 86.7387 26.9174C86.6107 26.8481 86.44 26.7734 86.2053 26.6828C85.995 26.5999 85.7901 26.5038 85.592 26.3948C85.4363 26.3043 85.306 26.1758 85.2133 26.0214C85.1081 25.8353 85.0651 25.6204 85.0907 25.4081C85.107 25.2157 85.1752 25.0314 85.288 24.8748C85.4089 24.7153 85.574 24.5948 85.7627 24.5281C85.9821 24.4461 86.2178 24.4168 86.4507 24.4428C86.7996 24.4465 87.1352 24.5774 87.3947 24.8108C87.6138 25.0122 87.7442 25.2921 87.7573 25.5894L87.1813 25.5468C87.1623 25.3767 87.0851 25.2184 86.9627 25.0988C86.8214 24.956 86.6301 24.8737 86.4293 24.8694C86.2418 24.844 86.0515 24.8896 85.896 24.9974C85.8258 25.0518 85.7688 25.1212 85.7291 25.2006C85.6894 25.28 85.6681 25.3673 85.6667 25.4561C85.6502 25.5949 85.6843 25.735 85.7627 25.8508C85.8413 25.9592 85.9434 26.0486 86.0613 26.1121C86.2223 26.196 86.3879 26.2708 86.5573 26.3361C86.7708 26.4218 86.9791 26.5198 87.1813 26.6294C87.3061 26.7099 87.4136 26.8144 87.4979 26.9366C87.5821 27.0589 87.6412 27.1967 87.672 27.3419C87.7027 27.4872 87.7044 27.6371 87.6769 27.783C87.6495 27.9289 87.5934 28.0679 87.512 28.1921L87.5547 28.1708Z" fill="#002177"/>
<path d="M92.092 25.5629L90.124 27.6963L89.724 29.2109L89.1906 29.0723L89.5906 27.5576L88.9453 24.7256L89.548 24.8856L90.0173 27.0776L91.5053 25.4029L92.092 25.5629Z" fill="#002177"/>
<path d="M85.0016 60.8589C82.2749 60.8622 79.5999 60.1152 77.2695 58.6996C74.9391 57.284 73.0432 55.2544 71.7893 52.8331C70.5354 50.4119 69.9719 47.6923 70.1606 44.9721C70.3493 42.252 71.2828 39.6362 72.859 37.4113C74.4351 35.1863 76.5931 33.4379 79.0966 32.3576C81.6002 31.2773 84.3527 30.9067 87.0528 31.2864C89.7529 31.6661 92.2965 32.7814 94.405 34.5103C96.5134 36.2392 98.1056 38.5149 99.0069 41.0883C99.7898 43.3268 100.026 45.7202 99.6948 48.0685C99.364 50.4168 98.4761 52.6519 97.1052 54.5871C95.7344 56.5222 93.9204 58.1013 91.8148 59.1924C89.7092 60.2834 87.3731 60.8549 85.0016 60.8589ZM85.0016 32.7416C82.1887 32.7414 79.4486 33.6358 77.1775 35.2956C74.9064 36.9553 73.2221 39.2944 72.368 41.9745C71.5139 44.6546 71.5343 47.537 72.4263 50.2047C73.3183 52.8725 75.0357 55.1874 77.3301 56.8148C79.6244 58.4422 82.3769 59.2977 85.1896 59.2576C88.0022 59.2175 90.7292 58.2839 92.9763 56.5919C95.2234 54.8998 96.8741 52.5369 97.6898 49.8448C98.5054 47.1527 98.4437 44.271 97.5136 41.6163C96.6022 39.0245 94.9095 36.7791 92.6686 35.1897C90.4277 33.6002 87.749 32.7449 85.0016 32.7416Z" fill="#002177"/>
<path d="M79.3079 63.4985C79.5148 63.831 79.6014 64.2245 79.5532 64.6131L79.0199 64.4105C79.0212 64.1531 78.943 63.9016 78.7959 63.6905C78.6343 63.463 78.4074 63.29 78.1452 63.1945C77.9079 63.0948 77.648 63.0617 77.3932 63.0985C77.1442 63.1385 76.9114 63.2475 76.7212 63.4131C76.5058 63.6048 76.3409 63.8466 76.2412 64.1171C76.1256 64.3859 76.078 64.6789 76.1026 64.9705C76.1255 65.2262 76.2239 65.4694 76.3852 65.6691C76.5528 65.8787 76.774 66.039 77.0252 66.1331C77.2413 66.2215 77.4755 66.2563 77.7079 66.2345C77.9391 66.2106 78.1599 66.126 78.3479 65.9891C78.5532 65.8385 78.7196 65.641 78.8332 65.4131L77.3719 64.8318L77.5159 64.4691L79.3826 65.2158L79.2066 65.6638C79.0644 65.9384 78.8598 66.1759 78.6092 66.3571C78.3611 66.5327 78.0735 66.6444 77.7719 66.6825C77.4453 66.7173 77.1152 66.6696 76.8119 66.5438C76.4746 66.4172 76.1778 66.2015 75.9532 65.9198C75.7461 65.6525 75.6169 65.3332 75.5799 64.9971C75.5459 64.6334 75.6027 64.2669 75.7452 63.9305C75.8767 63.5852 76.091 63.2775 76.3692 63.0345C76.6272 62.8147 76.941 62.6707 77.2759 62.6185C77.6369 62.5647 78.0058 62.6108 78.3426 62.7518C78.7355 62.8918 79.0736 63.1533 79.3079 63.4985Z" fill="#002177"/>
<path d="M80.9662 63.6317L80.5555 65.9997C80.4751 66.3028 80.5132 66.6251 80.6622 66.901C80.7364 67.012 80.8341 67.1054 80.9484 67.1745C81.0627 67.2437 81.1907 67.2868 81.3235 67.301C81.4526 67.3307 81.5866 67.3323 81.7164 67.3056C81.8462 67.2789 81.9686 67.2246 82.0755 67.1463C82.3018 66.9307 82.4437 66.6413 82.4755 66.3303L82.8862 63.9623L83.4195 64.053L83.0035 66.421C82.9835 66.6422 82.9194 66.8571 82.8149 67.0532C82.7105 67.2492 82.5679 67.4223 82.3955 67.5623C82.2297 67.6756 82.0423 67.7535 81.845 67.7911C81.6477 67.8288 81.4448 67.8253 81.2489 67.781C81.0513 67.7571 80.861 67.6921 80.6901 67.5901C80.5193 67.4882 80.3717 67.3515 80.2569 67.189C80.1401 66.9997 80.0629 66.7886 80.03 66.5686C79.997 66.3487 80.0088 66.1243 80.0649 65.909L80.4755 63.541L80.9662 63.6317Z" fill="#002177"/>
<path d="M86.3268 67.1205L84.5668 67.1578L84.2521 68.0911H83.7188L85.0948 64.1338H85.6761L87.2388 68.0378H86.7054L86.3268 67.1205ZM86.1721 66.7205L85.3934 64.7098L84.7054 66.7525L86.1721 66.7205Z" fill="#002177"/>
<path d="M90.2788 67.4401L88.9241 66.0481L88.3908 66.1654L88.7215 67.7654L88.1881 67.8721L87.3828 63.9468L88.6735 63.6801C89.0303 63.5798 89.412 63.6199 89.7401 63.7921C89.9839 63.9695 90.1575 64.227 90.2306 64.5195C90.3037 64.812 90.2717 65.1208 90.1401 65.3921C89.9758 65.6475 89.7264 65.8364 89.4361 65.9254L90.8655 67.3334L90.2788 67.4401ZM88.2948 65.7974L89.0361 65.6428C89.6121 65.5254 89.8468 65.2108 89.7455 64.7094C89.6441 64.2081 89.3028 64.0108 88.7321 64.1334L87.9908 64.2881L88.2948 65.7974Z" fill="#002177"/>
<path d="M93.6835 65.2904L92.0462 65.9464L92.0782 66.9331L91.5448 67.1411L91.4648 62.9331L91.9982 62.7197L94.8302 65.8237L94.2968 66.0264L93.6835 65.2904ZM93.3955 64.9704L91.9662 63.3704L92.0355 65.5037L93.3955 64.9704Z" fill="#002177"/>
<path d="M98.3586 63.6374L97.9266 63.9201L94.4546 62.4001L96.1826 65.0668L95.7453 65.3494L93.5586 62.0001L93.9959 61.7174L97.4679 63.2374L95.7399 60.5708L96.1719 60.2881L98.3586 63.6374Z" fill="#002177"/>
<path d="M98.3743 58.2129L98.6623 58.5222L97.8357 59.2956L100.294 61.9089L99.9157 62.2662L97.457 59.6529L96.6357 60.4262L96.3477 60.1222L98.3743 58.2129Z" fill="#002177"/>
<path d="M99.1957 57.8456L100.262 58.6883L101.206 57.4936L101.532 57.7336L100.588 58.9336L101.686 59.7976L102.753 58.4643L103.084 58.7256L101.713 60.4643L98.5664 57.9843L99.9317 56.251L100.262 56.5123L99.1957 57.8456Z" fill="#002177"/>
<path d="M100.772 55.6429L101.962 56.3202L102.719 55.0029L103.066 55.2002L102.303 56.5229L103.519 57.2162L104.362 55.7496L104.724 55.9576L103.626 57.8722L100.148 55.8829L101.252 53.9629L101.615 54.1709L100.772 55.6429Z" fill="#002177"/>
<path d="M51.1133 51.3016L114.58 29.0723L110.847 36.8269L118.889 40.6989L55.2093 63.0029L59.1666 54.7843L51.1133 51.3016Z" fill="#002177"/>
<path d="M72.4736 48.0693L73.9936 52.4L73.4283 52.5973L72.7349 50.6027L70.5322 51.376L71.2362 53.3813L70.6762 53.5787L69.1562 49.2373L69.6896 49.04L70.3509 50.9173L72.5536 50.1493L71.8922 48.272L72.4736 48.0693Z" fill="white"/>
<path d="M77.0809 50.2028L75.1769 50.8694V52.0001L74.5742 52.2135L74.6862 47.4135L75.3209 47.1895L78.4142 50.8855L77.8116 51.0988L77.0809 50.2028ZM76.7716 49.8188L75.2089 47.9095V50.3788L76.7716 49.8188Z" fill="white"/>
<path d="M78.9166 48.7253L79.5299 50.4747L78.9966 50.6667L77.4766 46.3307L78.8526 45.8453C79.2449 45.6757 79.6868 45.6605 80.0899 45.8027C80.2576 45.8836 80.4067 45.9984 80.5278 46.1397C80.649 46.2811 80.7396 46.4459 80.7939 46.624C80.8608 46.7953 80.8911 46.9787 80.8828 47.1624C80.8745 47.3461 80.8279 47.5261 80.7459 47.6907C80.5181 48.0462 80.1665 48.3046 79.7592 48.416L78.9166 48.7253ZM80.2019 47.5147C80.2857 47.2926 80.2889 47.0482 80.2109 46.824C80.1329 46.5998 79.9787 46.4101 79.7752 46.288C79.5093 46.1998 79.2198 46.2151 78.9646 46.3307L78.1966 46.6027L78.7726 48.256L79.5459 47.9893C79.8168 47.9199 80.0512 47.7503 80.2019 47.5147Z" fill="white"/>
<path d="M82.4283 47.4934L83.0416 49.2427L82.5083 49.44L80.9883 45.0987L82.3323 44.6134C82.7246 44.4423 83.1677 44.4289 83.5696 44.576C83.738 44.6551 83.8875 44.7693 84.008 44.9109C84.1285 45.0526 84.2173 45.2185 84.2683 45.3974C84.3382 45.568 84.3702 45.7518 84.3619 45.936C84.3536 46.1202 84.3053 46.3004 84.2203 46.464C83.996 46.8206 83.6456 47.0796 83.2389 47.1894L82.4283 47.4934ZM83.6923 46.2827C83.7767 46.0602 83.7796 45.8149 83.7006 45.5904C83.6215 45.3659 83.4655 45.1766 83.2603 45.056C82.9961 44.9677 82.7083 44.9829 82.455 45.0987L81.6816 45.3707L82.2629 47.024L83.0309 46.7574C83.3031 46.6877 83.5392 46.5183 83.6923 46.2827Z" fill="white"/>
<path d="M85.0355 43.6689L86.5555 48.0103L86.0222 48.2076L84.4648 43.8663L85.0355 43.6689Z" fill="white"/>
<path d="M90.8243 46.5331L90.2909 46.7304L86.8403 44.0638L88.0403 47.4931L87.4803 47.6904L85.9336 43.3331L86.4669 43.1411L89.9229 45.8078L88.7336 42.3731L89.2669 42.1758L90.8243 46.5331Z" fill="white"/>
<path d="M90.927 42.1228L91.4604 43.6054L93.1084 43.0241L93.263 43.4561L91.6097 44.0321L92.143 45.5468L93.9617 44.9334L94.1217 45.3868L91.727 46.2241L90.207 41.8881L92.6017 41.0508L92.7617 41.5041L90.927 42.1228Z" fill="white"/>
<path d="M97.267 43.6482C97.2257 43.8684 97.1221 44.072 96.9683 44.2349C96.7808 44.433 96.5459 44.5798 96.2857 44.6616C96.0236 44.7596 95.743 44.7979 95.4643 44.7736C95.2176 44.753 94.9804 44.6684 94.7763 44.5282C94.5794 44.3966 94.424 44.2116 94.3283 43.9949L94.9257 43.7869C94.9876 43.9169 95.0801 44.0299 95.1953 44.1163C95.3105 44.2026 95.4449 44.2598 95.587 44.2829C95.7663 44.3133 95.9505 44.2949 96.1203 44.2296C96.2253 44.2005 96.3233 44.1505 96.4085 44.0827C96.4937 44.0149 96.5644 43.9306 96.6163 43.8349C96.6548 43.7437 96.6746 43.6458 96.6746 43.5469C96.6746 43.448 96.6548 43.35 96.6163 43.2589C96.5684 43.1009 96.464 42.9661 96.323 42.8802C96.1922 42.7992 96.0442 42.7499 95.891 42.7362C95.6832 42.7218 95.4747 42.7218 95.267 42.7362C95.0166 42.7518 94.7654 42.7518 94.515 42.7362C94.323 42.7109 94.14 42.6396 93.9816 42.5282C93.7634 42.3795 93.6048 42.1585 93.5336 41.9042C93.468 41.6923 93.468 41.4655 93.5336 41.2536C93.5719 41.0324 93.676 40.8279 93.8323 40.6669C94.0235 40.4888 94.2509 40.3542 94.499 40.2722C94.8565 40.1221 95.2564 40.1069 95.6243 40.2296C95.9361 40.3399 96.1926 40.5676 96.339 40.8642L95.7363 41.0776C95.638 40.9129 95.488 40.7854 95.3097 40.7149C95.1006 40.6323 94.868 40.6323 94.659 40.7149C94.4582 40.7725 94.2868 40.904 94.179 41.0829C94.1314 41.1686 94.1038 41.264 94.0983 41.3619C94.0927 41.4598 94.1094 41.5577 94.147 41.6482C94.1912 41.7993 94.2901 41.9286 94.4243 42.0109C94.5512 42.086 94.6934 42.1316 94.8403 42.1442C94.9896 42.1442 95.1923 42.1442 95.4483 42.1442C95.704 42.1265 95.9606 42.1265 96.2163 42.1442C96.4092 42.1727 96.5923 42.2478 96.7497 42.3629C96.9474 42.5148 97.0913 42.726 97.1603 42.9656C97.263 43.1774 97.3001 43.4151 97.267 43.6482Z" fill="white"/>
<path d="M100.74 42.4213C100.698 42.6411 100.594 42.8444 100.441 43.008C100.252 43.2058 100.015 43.3525 99.7534 43.4347C99.4914 43.5327 99.2108 43.571 98.9321 43.5467C98.6887 43.5334 98.4523 43.4601 98.2441 43.3333C98.0494 43.1992 97.8946 43.0149 97.7961 42.8L98.3934 42.5867C98.4512 42.7112 98.537 42.8207 98.6441 42.9067C98.7642 42.9996 98.9051 43.0619 99.0547 43.088C99.2346 43.1167 99.4188 43.0965 99.5881 43.0293C99.693 43.0002 99.791 42.9503 99.8762 42.8825C99.9615 42.8147 100.032 42.7304 100.084 42.6347C100.124 42.5448 100.144 42.4476 100.144 42.3493C100.144 42.251 100.124 42.1539 100.084 42.064C100.034 41.907 99.9329 41.7716 99.7961 41.68C99.6646 41.6005 99.517 41.5513 99.3641 41.536C99.1545 41.5243 98.9444 41.5243 98.7347 41.536C98.4843 41.551 98.2332 41.551 97.9827 41.536C97.7904 41.5087 97.6075 41.4355 97.4494 41.3227C97.2422 41.1586 97.1003 40.926 97.0494 40.6667C96.968 40.4587 96.9509 40.2311 97.0003 40.0134C97.0498 39.7956 97.1635 39.5977 97.3267 39.4453C97.5193 39.2729 97.7467 39.1438 97.9934 39.0667C98.3513 38.9195 98.7496 38.9025 99.1187 39.0187C99.4318 39.1298 99.6885 39.3597 99.8334 39.6587L99.2307 39.8667C99.1329 39.7037 98.9852 39.5765 98.8094 39.504C98.5985 39.4216 98.3643 39.4216 98.1534 39.504C97.9558 39.5647 97.7858 39.6931 97.6734 39.8667C97.6257 39.9533 97.5981 40.0496 97.5926 40.1484C97.587 40.2471 97.6037 40.3459 97.6414 40.4373C97.6887 40.5869 97.7868 40.7152 97.9187 40.8C98.0466 40.872 98.1885 40.9156 98.3347 40.928C98.539 40.9398 98.7438 40.9398 98.9481 40.928C99.2021 40.9129 99.4567 40.9129 99.7107 40.928C99.915 40.954 100.109 41.0311 100.276 41.152C100.473 41.3023 100.617 41.5115 100.687 41.7493C100.766 41.9641 100.785 42.1967 100.74 42.4213Z" fill="white"/>
</svg>
