<svg width="1058" height="267" viewBox="0 0 1058 267" fill="none" xmlns="http://www.w3.org/2000/svg">
<path d="M0 0H1058V267H0V0Z" fill="white"/>
<path d="M523.657 100.558V110.962H510.625V100.558H505.945V125.758H510.625V114.958H523.657V125.758H528.337V100.558H523.657ZM542.002 106.318C538.906 106.318 535.918 107.11 533.866 108.694L535.63 111.97C537.07 110.782 539.302 110.062 541.462 110.062C544.666 110.062 546.25 111.61 546.25 114.238V114.526H541.282C535.45 114.526 533.29 117.046 533.29 120.25C533.29 123.598 536.062 126.01 540.454 126.01C543.334 126.01 545.422 125.074 546.502 123.418V125.758H550.75V114.49C550.75 108.946 547.546 106.318 542.002 106.318ZM541.39 122.734C539.086 122.734 537.718 121.69 537.718 120.07C537.718 118.666 538.546 117.514 541.606 117.514H546.25V119.746C545.494 121.726 543.586 122.734 541.39 122.734ZM562.465 126.01C567.865 126.01 571.177 123.67 571.177 120.07C571.177 112.546 559.297 116.002 559.297 112.114C559.297 110.854 560.593 109.954 563.329 109.954C565.165 109.954 567.001 110.314 568.837 111.394L570.565 107.974C568.837 106.93 565.921 106.318 563.365 106.318C558.181 106.318 554.905 108.694 554.905 112.33C554.905 119.998 566.785 116.542 566.785 120.214C566.785 121.546 565.597 122.338 562.753 122.338C560.341 122.338 557.749 121.546 556.057 120.43L554.329 123.85C556.057 125.074 559.261 126.01 562.465 126.01ZM580.992 126.01C586.392 126.01 589.704 123.67 589.704 120.07C589.704 112.546 577.824 116.002 577.824 112.114C577.824 110.854 579.12 109.954 581.856 109.954C583.692 109.954 585.528 110.314 587.364 111.394L589.092 107.974C587.364 106.93 584.448 106.318 581.892 106.318C576.708 106.318 573.432 108.694 573.432 112.33C573.432 119.998 585.312 116.542 585.312 120.214C585.312 121.546 584.124 122.338 581.28 122.338C578.868 122.338 576.276 121.546 574.584 120.43L572.856 123.85C574.584 125.074 577.788 126.01 580.992 126.01ZM593.579 125.758H598.079V99.0458H593.579V125.758ZM622.058 116.254C622.058 110.242 617.954 106.318 612.338 106.318C606.614 106.318 602.402 110.422 602.402 116.146C602.402 121.87 606.578 126.01 613.022 126.01C616.334 126.01 619.034 124.93 620.762 122.878L618.35 120.106C616.982 121.51 615.29 122.194 613.13 122.194C609.782 122.194 607.442 120.394 606.902 117.586H621.986C622.022 117.154 622.058 116.614 622.058 116.254ZM612.338 109.918C615.29 109.918 617.414 111.826 617.774 114.598H606.866C607.298 111.79 609.422 109.918 612.338 109.918ZM644.141 102.43C645.077 102.43 645.941 102.754 646.625 103.222L647.885 99.8378C646.877 99.1178 645.365 98.7938 643.817 98.7938C639.353 98.7938 636.941 101.422 636.941 105.454V106.678H633.773V110.278H636.941V125.758H641.441V110.278H646.589V106.678H641.297V105.526C641.297 103.474 642.269 102.43 644.141 102.43ZM656.785 109.342V106.534H652.501V125.758H657.001V116.434C657.001 112.51 659.161 110.494 662.581 110.494C662.905 110.494 663.229 110.53 663.625 110.602V106.318C660.421 106.318 658.081 107.326 656.785 109.342ZM685.339 116.254C685.339 110.242 681.235 106.318 675.619 106.318C669.895 106.318 665.683 110.422 665.683 116.146C665.683 121.87 669.859 126.01 676.303 126.01C679.615 126.01 682.315 124.93 684.043 122.878L681.631 120.106C680.263 121.51 678.571 122.194 676.411 122.194C673.063 122.194 670.723 120.394 670.183 117.586H685.267C685.303 117.154 685.339 116.614 685.339 116.254ZM675.619 109.918C678.571 109.918 680.695 111.826 681.055 114.598H670.147C670.579 111.79 672.703 109.918 675.619 109.918ZM707.734 116.254C707.734 110.242 703.63 106.318 698.014 106.318C692.29 106.318 688.078 110.422 688.078 116.146C688.078 121.87 692.254 126.01 698.698 126.01C702.01 126.01 704.71 124.93 706.438 122.878L704.026 120.106C702.658 121.51 700.966 122.194 698.806 122.194C695.458 122.194 693.118 120.394 692.578 117.586H707.662C707.698 117.154 707.734 116.614 707.734 116.254ZM698.014 109.918C700.966 109.918 703.09 111.826 703.45 114.598H692.542C692.974 111.79 695.098 109.918 698.014 109.918ZM727.945 126.01C733.345 126.01 736.657 123.67 736.657 120.07C736.657 112.546 724.777 116.002 724.777 112.114C724.777 110.854 726.073 109.954 728.809 109.954C730.645 109.954 732.481 110.314 734.317 111.394L736.045 107.974C734.317 106.93 731.401 106.318 728.845 106.318C723.661 106.318 720.385 108.694 720.385 112.33C720.385 119.998 732.265 116.542 732.265 120.214C732.265 121.546 731.077 122.338 728.233 122.338C725.821 122.338 723.229 121.546 721.537 120.43L719.809 123.85C721.537 125.074 724.741 126.01 727.945 126.01ZM758.605 116.254C758.605 110.242 754.501 106.318 748.885 106.318C743.161 106.318 738.949 110.422 738.949 116.146C738.949 121.87 743.125 126.01 749.569 126.01C752.881 126.01 755.581 124.93 757.309 122.878L754.897 120.106C753.529 121.51 751.837 122.194 749.677 122.194C746.329 122.194 743.989 120.394 743.449 117.586H758.533C758.569 117.154 758.605 116.614 758.605 116.254ZM748.885 109.918C751.837 109.918 753.961 111.826 754.321 114.598H743.413C743.845 111.79 745.969 109.918 748.885 109.918ZM767.211 109.342V106.534H762.927V125.758H767.427V116.434C767.427 112.51 769.587 110.494 773.007 110.494C773.331 110.494 773.655 110.53 774.051 110.602V106.318C770.847 106.318 768.507 107.326 767.211 109.342ZM792.252 106.534L786.096 120.79L780.12 106.534H775.44L783.684 125.758H788.328L796.572 106.534H792.252ZM801.652 103.366C803.344 103.366 804.532 102.142 804.532 100.558C804.532 99.0818 803.308 97.9658 801.652 97.9658C799.996 97.9658 798.772 99.1538 798.772 100.666C798.772 102.178 799.996 103.366 801.652 103.366ZM799.384 125.758H803.884V106.534H799.384V125.758ZM818.61 126.01C822.354 126.01 825.342 124.39 826.818 121.51L823.362 119.494C822.21 121.33 820.482 122.158 818.574 122.158C815.262 122.158 812.742 119.89 812.742 116.146C812.742 112.438 815.262 110.134 818.574 110.134C820.482 110.134 822.21 110.962 823.362 112.798L826.818 110.782C825.342 107.866 822.354 106.318 818.61 106.318C812.526 106.318 808.206 110.386 808.206 116.146C808.206 121.906 812.526 126.01 818.61 126.01ZM848.499 116.254C848.499 110.242 844.395 106.318 838.779 106.318C833.055 106.318 828.843 110.422 828.843 116.146C828.843 121.87 833.019 126.01 839.463 126.01C842.775 126.01 845.475 124.93 847.203 122.878L844.791 120.106C843.423 121.51 841.731 122.194 839.571 122.194C836.223 122.194 833.883 120.394 833.343 117.586H848.427C848.463 117.154 848.499 116.614 848.499 116.254ZM838.779 109.918C841.731 109.918 843.855 111.826 844.215 114.598H833.307C833.739 111.79 835.863 109.918 838.779 109.918ZM858.762 126.01C864.162 126.01 867.474 123.67 867.474 120.07C867.474 112.546 855.594 116.002 855.594 112.114C855.594 110.854 856.89 109.954 859.626 109.954C861.462 109.954 863.298 110.314 865.134 111.394L866.862 107.974C865.134 106.93 862.218 106.318 859.662 106.318C854.478 106.318 851.202 108.694 851.202 112.33C851.202 119.998 863.082 116.542 863.082 120.214C863.082 121.546 861.894 122.338 859.05 122.338C856.638 122.338 854.046 121.546 852.354 120.43L850.626 123.85C852.354 125.074 855.558 126.01 858.762 126.01ZM907.29 106.534L902.07 120.79L896.886 106.534H893.106L887.814 120.718L882.738 106.534H878.49L885.546 125.758H889.866L894.906 112.51L899.874 125.758H904.194L911.286 106.534H907.29ZM916.648 103.366C918.34 103.366 919.528 102.142 919.528 100.558C919.528 99.0818 918.304 97.9658 916.648 97.9658C914.992 97.9658 913.768 99.1538 913.768 100.666C913.768 102.178 914.992 103.366 916.648 103.366ZM914.38 125.758H918.88V106.534H914.38V125.758ZM935.083 121.51C934.399 122.05 933.499 122.302 932.563 122.302C930.835 122.302 929.899 121.294 929.899 119.422V110.278H935.047V106.678H929.899V102.286H925.399V106.678H922.231V110.278H925.399V119.53C925.399 123.778 927.811 126.01 932.023 126.01C933.643 126.01 935.263 125.578 936.343 124.714L935.083 121.51ZM950.952 106.318C948.288 106.318 946.02 107.182 944.544 108.766V99.0458H940.044V125.758H944.544V116.038C944.544 112.186 946.704 110.242 949.908 110.242C952.788 110.242 954.48 111.898 954.48 115.318V125.758H958.98V114.742C958.98 108.946 955.56 106.318 950.952 106.318ZM665.373 170.118C673.185 170.118 678.945 164.646 678.945 157.158C678.945 149.67 673.185 144.198 665.373 144.198C657.561 144.198 651.801 149.706 651.801 157.158C651.801 164.61 657.561 170.118 665.373 170.118ZM665.373 166.014C660.297 166.014 656.517 162.306 656.517 157.158C656.517 152.01 660.297 148.302 665.373 148.302C670.449 148.302 674.229 152.01 674.229 157.158C674.229 162.306 670.449 166.014 665.373 166.014ZM697.154 150.534L691.07 164.754L685.022 150.534H680.342L688.73 169.83L688.406 170.586C687.542 172.494 686.606 173.25 685.022 173.25C683.798 173.25 682.574 172.746 681.71 171.918L679.91 175.23C681.134 176.346 683.15 176.994 685.058 176.994C688.262 176.994 690.71 175.662 692.474 171.306L701.474 150.534H697.154ZM721.831 160.254C721.831 154.242 717.727 150.318 712.111 150.318C706.387 150.318 702.175 154.422 702.175 160.146C702.175 165.87 706.351 170.01 712.795 170.01C716.107 170.01 718.807 168.93 720.535 166.878L718.123 164.106C716.755 165.51 715.063 166.194 712.903 166.194C709.555 166.194 707.215 164.394 706.675 161.586H721.759C721.795 161.154 721.831 160.614 721.831 160.254ZM712.111 153.918C715.063 153.918 717.187 155.826 717.547 158.598H706.639C707.071 155.79 709.195 153.918 712.111 153.918ZM744.442 156.654C746.386 155.61 747.682 153.702 747.682 151.11C747.682 147.114 744.442 144.558 738.394 144.558H726.586V169.758H739.114C745.594 169.758 748.978 167.238 748.978 162.918C748.978 159.642 747.142 157.518 744.442 156.654ZM737.89 148.23C741.13 148.23 742.966 149.382 742.966 151.722C742.966 154.026 741.13 155.178 737.89 155.178H731.266V148.23H737.89ZM738.826 166.086H731.266V158.814H738.826C742.354 158.814 744.262 159.93 744.262 162.45C744.262 164.97 742.354 166.086 738.826 166.086ZM767.652 150.534V160.254C767.652 164.106 765.528 166.05 762.396 166.05C759.552 166.05 757.896 164.394 757.896 160.902V150.534H753.396V161.514C753.396 167.31 756.744 170.01 761.676 170.01C764.16 170.01 766.428 169.074 767.868 167.31V169.758H772.152V150.534H767.652ZM783.984 170.01C789.384 170.01 792.696 167.67 792.696 164.07C792.696 156.546 780.816 160.002 780.816 156.114C780.816 154.854 782.112 153.954 784.848 153.954C786.684 153.954 788.52 154.314 790.356 155.394L792.084 151.974C790.356 150.93 787.44 150.318 784.884 150.318C779.7 150.318 776.424 152.694 776.424 156.33C776.424 163.998 788.304 160.542 788.304 164.214C788.304 165.546 787.116 166.338 784.272 166.338C781.86 166.338 779.268 165.546 777.576 164.43L775.848 167.85C777.576 169.074 780.78 170.01 783.984 170.01ZM809.9 150.534L803.816 164.754L797.768 150.534H793.088L801.476 169.83L801.152 170.586C800.288 172.494 799.352 173.25 797.768 173.25C796.544 173.25 795.32 172.746 794.456 171.918L792.656 175.23C793.88 176.346 795.896 176.994 797.804 176.994C801.008 176.994 803.456 175.662 805.22 171.306L814.22 150.534H809.9Z" fill="black"/>
<path d="M249.805 214.038C229.934 214.064 210.778 206.639 196.13 193.234C181.483 179.829 172.411 161.421 170.712 141.656C169.013 121.89 174.811 102.208 186.957 86.508C199.104 70.8075 216.712 60.2332 236.297 56.879C255.882 53.5249 276.014 57.6354 292.707 68.3966C309.4 79.1578 321.437 95.7851 326.433 114.986C331.43 134.186 329.023 154.56 319.688 172.073C310.352 189.585 294.77 202.96 276.027 209.547C267.603 212.512 258.737 214.031 249.805 214.038ZM249.805 57.4607C237.416 57.4858 225.213 60.4675 214.213 66.1573C203.213 71.847 193.735 80.0798 186.569 90.1693C179.403 100.259 174.757 111.912 173.019 124.158C171.28 136.404 172.5 148.888 176.575 160.568C181.296 173.951 189.611 185.781 200.612 194.764C211.612 203.748 224.875 209.54 238.95 211.507C253.024 213.474 267.37 211.54 280.419 205.917C293.467 200.295 304.716 191.199 312.937 179.625C321.157 168.05 326.032 154.443 327.03 140.289C328.027 126.135 325.108 111.98 318.592 99.3705C312.075 86.7611 302.213 76.1827 290.081 68.7914C277.95 61.4001 264.017 57.4805 249.805 57.4607Z" fill="#002177"/>
<path d="M249.807 210.346C230.854 210.346 212.592 203.241 198.637 190.438C184.681 177.636 176.049 160.069 174.45 141.215C172.85 122.36 178.4 103.594 190 88.6305C201.6 73.667 218.404 63.5972 237.087 60.4147C255.77 57.2322 274.968 61.169 290.882 71.4457C306.796 81.7224 318.264 97.5899 323.018 115.907C327.771 134.224 325.462 153.655 316.548 170.353C307.635 187.051 292.766 199.799 274.885 206.074C266.826 208.897 258.348 210.342 249.807 210.346ZM249.807 64.284C234.788 64.2681 220.153 69.0219 208.02 77.8579C195.886 86.6938 186.881 99.1539 182.309 113.436C177.736 127.719 177.832 143.083 182.583 157.307C187.334 171.531 196.494 183.878 208.737 192.562C220.981 201.246 235.674 205.816 250.691 205.613C265.709 205.41 280.272 200.444 292.276 191.432C304.279 182.42 313.1 169.83 317.463 155.482C321.827 141.135 321.506 125.774 316.547 111.62C311.691 97.8086 302.665 85.8397 290.713 77.3622C278.76 68.8847 264.469 64.3155 249.807 64.284Z" fill="#002177"/>
<path d="M249.807 182.617C237.84 182.641 226.3 178.175 217.475 170.105C208.65 162.035 203.184 150.949 202.16 139.045C201.135 127.141 204.628 115.287 211.946 105.833C219.263 96.3789 229.871 90.0141 241.667 88.0002C253.464 85.9864 265.587 88.4704 275.636 94.96C285.684 101.45 292.924 111.471 295.92 123.039C298.916 134.606 297.45 146.875 291.812 157.414C286.175 167.953 276.777 175.993 265.481 179.941C260.443 181.7 255.145 182.605 249.807 182.617ZM249.807 88.8519C240.007 88.8473 230.459 91.9548 222.544 97.725C214.63 103.495 208.758 111.629 205.779 120.95C202.801 130.272 202.868 140.297 205.973 149.578C209.078 158.858 215.059 166.912 223.051 172.575C231.044 178.238 240.633 181.216 250.432 181.079C260.231 180.942 269.733 177.697 277.563 171.813C285.394 165.929 291.146 157.711 293.99 148.348C296.833 138.984 296.62 128.961 293.381 119.726C290.206 110.714 284.311 102.907 276.507 97.3778C268.704 91.8488 259.376 88.8702 249.807 88.8519Z" fill="#002177"/>
<path d="M202.642 93.499C203.637 93.1023 204.727 93.0044 205.777 93.2173C206.884 93.4113 207.922 93.8915 208.786 94.61C209.671 95.2893 210.367 96.1835 210.808 97.2076C211.228 98.161 211.369 99.2134 211.216 100.243C211.069 101.302 210.629 102.3 209.946 103.123C209.284 103.962 208.414 104.615 207.422 105.016C206.428 105.416 205.339 105.52 204.288 105.313C203.188 105.098 202.157 104.622 201.281 103.924C200.406 103.227 199.711 102.33 199.256 101.307C198.824 100.324 198.688 99.2369 198.864 98.1778C199.049 97.1397 199.494 96.165 200.157 95.3444C200.82 94.5237 201.68 93.8835 202.657 93.4833L202.642 93.499ZM200.322 98.3969C200.214 99.164 200.328 99.946 200.651 100.65C201.007 101.433 201.544 102.12 202.219 102.653C202.888 103.213 203.684 103.6 204.538 103.78C205.305 103.978 206.114 103.94 206.858 103.67C207.59 103.375 208.232 102.895 208.723 102.278C209.214 101.668 209.534 100.939 209.648 100.165C209.758 99.3981 209.644 98.6156 209.319 97.9118C208.928 97.1377 208.374 96.4572 207.695 95.9169C207.016 95.3767 206.228 94.9896 205.385 94.7821C204.625 94.6221 203.835 94.6874 203.112 94.9699C202.387 95.2551 201.754 95.7309 201.278 96.347C200.788 96.9365 200.458 97.6427 200.322 98.3969Z" fill="#002177"/>
<path d="M213.848 82.6074L215.415 90.9636L218.299 94.5471L217.061 95.5486L214.224 91.9651L206.387 88.5851L207.813 87.4428L213.754 90.1499L212.39 83.7185L213.848 82.6074Z" fill="#002177"/>
<path d="M218.647 81.2779L220.637 84.8927L224.728 82.7175L225.308 83.766L221.264 85.9724L223.286 89.6967L227.8 87.2399L228.412 88.3509L222.518 91.4806L216.703 80.8397L222.581 77.6318L223.192 78.7429L218.647 81.2779Z" fill="#002177"/>
<path d="M235.417 80.3387C236.014 80.6919 236.464 81.2471 236.686 81.9036C236.846 82.3195 236.911 82.7657 236.875 83.2098C236.84 83.6538 236.706 84.0843 236.482 84.4699C235.897 85.3446 235.01 85.9739 233.99 86.2382L229.711 87.6622L225.871 76.145L230.087 74.7366C231.013 74.3652 232.04 74.332 232.987 74.6427C233.664 74.9808 234.196 75.552 234.484 76.251C234.772 76.9499 234.797 77.7294 234.555 78.4453C234.303 79.0305 233.868 79.519 233.316 79.838C234.054 79.7513 234.798 79.9288 235.417 80.3387ZM229.037 80.7612L231.529 79.9319C232.171 79.7956 232.734 79.4135 233.097 78.8678C233.229 78.631 233.307 78.368 233.326 78.0976C233.345 77.8271 233.304 77.5558 233.207 77.303C233.136 77.0394 233.006 76.7954 232.827 76.5893C232.647 76.3833 232.424 76.2206 232.172 76.1137C231.556 75.8804 230.876 75.8804 230.26 76.1137L227.83 76.9274L229.037 80.7612ZM234.946 84.0005C235.101 83.7439 235.195 83.455 235.219 83.1563C235.244 82.8577 235.199 82.5574 235.087 82.2791C235.007 81.9885 234.86 81.7202 234.659 81.4951C234.458 81.2699 234.208 81.0938 233.928 80.9803C233.275 80.7395 232.558 80.7395 231.906 80.9803L229.429 81.8723L230.793 85.9878L233.316 85.1428C233.978 84.9673 234.556 84.5624 234.946 84.0005Z" fill="#002177"/>
<path d="M239.114 72.4993L240.023 79.7289C240.065 80.6751 240.456 81.5726 241.121 82.2483C241.44 82.5005 241.808 82.6824 242.203 82.7822C242.597 82.882 243.008 82.8974 243.409 82.8272C243.803 82.8086 244.189 82.7036 244.538 82.5197C244.888 82.3358 245.193 82.0776 245.431 81.7632C245.916 80.9493 246.078 79.9834 245.885 79.056L244.992 71.8265L246.559 71.6387L247.453 78.8682C247.696 80.1842 247.415 81.5431 246.669 82.6551C246.279 83.1135 245.801 83.4884 245.262 83.7573C244.723 84.0262 244.136 84.1836 243.534 84.2199C242.941 84.3231 242.332 84.3027 241.747 84.1599C241.162 84.0172 240.612 83.7553 240.133 83.3906C239.63 82.9393 239.222 82.393 238.931 81.7834C238.641 81.1737 238.474 80.5127 238.44 79.8384L237.547 72.6089L239.114 72.4993Z" fill="#002177"/>
<path d="M257.313 82.6545C256.978 83.145 256.51 83.5303 255.965 83.7656C255.295 84.0407 254.569 84.1481 253.849 84.0785C253.111 84.035 252.394 83.8264 251.748 83.4683C251.171 83.168 250.684 82.7197 250.338 82.1694C249.996 81.6304 249.812 81.0074 249.805 80.3699L251.466 80.4951C251.486 80.8554 251.582 81.2074 251.748 81.5279C251.932 81.8815 252.208 82.1789 252.548 82.3885C252.943 82.651 253.405 82.7974 253.88 82.811C254.437 82.8771 254.999 82.7257 255.447 82.3885C255.644 82.2147 255.803 82.0033 255.917 81.7667C256.03 81.5302 256.094 81.2733 256.106 81.0115C256.155 80.5822 256.049 80.1494 255.808 79.7909C255.569 79.4615 255.265 79.1846 254.914 78.9772C254.538 78.7738 254.037 78.5547 253.347 78.2886C252.729 78.0457 252.127 77.7634 251.545 77.4436C251.087 77.1782 250.704 76.8013 250.432 76.3483C250.122 75.8021 249.996 75.1716 250.071 74.5487C250.119 73.9843 250.319 73.4435 250.651 72.9839C251.007 72.516 251.492 72.1624 252.046 71.9667C252.691 71.7261 253.384 71.6403 254.068 71.7163C255.094 71.7274 256.08 72.1113 256.842 72.7961C257.486 73.387 257.869 74.2084 257.908 75.0807L256.215 74.9556C256.16 74.4565 255.933 73.992 255.573 73.6411C255.158 73.2221 254.595 72.9808 254.005 72.9682C253.454 72.8935 252.895 73.0275 252.438 73.3438C252.232 73.5033 252.064 73.7071 251.947 73.94C251.831 74.173 251.768 74.4291 251.764 74.6895C251.715 75.0968 251.816 75.5079 252.046 75.8475C252.277 76.1658 252.577 76.4278 252.924 76.6143C253.397 76.8605 253.884 77.0799 254.382 77.2715C255.009 77.5231 255.621 77.8105 256.215 78.1322C256.582 78.3684 256.898 78.6748 257.146 79.0336C257.393 79.3923 257.567 79.7965 257.657 80.2227C257.748 80.6489 257.753 81.0887 257.672 81.5168C257.591 81.9449 257.426 82.3529 257.187 82.7171L257.313 82.6545Z" fill="#002177"/>
<path d="M270.654 75.0027L264.87 81.262L263.695 85.7062L262.127 85.2993L263.303 80.8552L261.406 72.5459L263.177 73.0153L264.557 79.4468L268.93 74.5332L270.654 75.0027Z" fill="#002177"/>
<path d="M249.807 178.564C241.793 178.573 233.932 176.381 227.083 172.228C220.234 168.074 214.662 162.12 210.977 155.015C207.292 147.911 205.636 139.932 206.191 131.951C206.745 123.97 209.489 116.295 214.121 109.767C218.753 103.238 225.095 98.1086 232.453 94.9389C239.81 91.7692 247.9 90.6818 255.835 91.7959C263.77 92.9099 271.245 96.1825 277.442 101.255C283.639 106.328 288.318 113.005 290.967 120.555C293.267 127.123 293.961 134.146 292.988 141.036C292.016 147.926 289.407 154.484 285.378 160.162C281.349 165.839 276.018 170.473 269.83 173.674C263.642 176.875 256.776 178.552 249.807 178.564ZM249.807 96.0656C241.54 96.065 233.487 98.6894 226.812 103.559C220.138 108.429 215.188 115.292 212.678 123.156C210.168 131.019 210.228 139.476 212.849 147.303C215.471 155.131 220.518 161.923 227.261 166.698C234.004 171.473 242.093 173.983 250.359 173.865C258.625 173.748 266.64 171.008 273.243 166.044C279.847 161.079 284.699 154.146 287.096 146.247C289.493 138.349 289.311 129.894 286.578 122.104C283.9 114.5 278.925 107.912 272.339 103.248C265.753 98.5849 257.881 96.0753 249.807 96.0656Z" fill="#002177"/>
<path d="M233.082 186.309C233.69 187.285 233.944 188.439 233.803 189.579L232.236 188.985C232.24 188.23 232.01 187.492 231.577 186.872C231.102 186.205 230.435 185.697 229.665 185.417C228.968 185.125 228.204 185.027 227.455 185.135C226.723 185.253 226.039 185.573 225.48 186.059C224.847 186.621 224.362 187.33 224.069 188.124C223.73 188.913 223.59 189.773 223.662 190.628C223.729 191.378 224.018 192.092 224.493 192.678C224.985 193.293 225.635 193.763 226.373 194.039C227.008 194.299 227.697 194.401 228.38 194.337C229.059 194.267 229.708 194.018 230.261 193.617C230.864 193.175 231.353 192.595 231.687 191.927L227.392 190.221L227.815 189.157L233.301 191.348L232.784 192.662C232.366 193.468 231.765 194.165 231.029 194.697C230.299 195.212 229.454 195.539 228.568 195.651C227.608 195.753 226.638 195.613 225.747 195.244C224.755 194.873 223.883 194.24 223.223 193.413C222.614 192.629 222.235 191.692 222.126 190.706C222.026 189.639 222.193 188.564 222.612 187.577C222.998 186.564 223.628 185.661 224.446 184.948C225.204 184.303 226.126 183.88 227.11 183.727C228.171 183.569 229.255 183.705 230.245 184.118C231.4 184.529 232.394 185.296 233.082 186.309Z" fill="#002177"/>
<path d="M237.957 186.701L236.751 193.648C236.514 194.538 236.626 195.483 237.064 196.293C237.282 196.619 237.569 196.893 237.905 197.096C238.241 197.298 238.617 197.425 239.008 197.467C239.387 197.554 239.781 197.558 240.162 197.48C240.544 197.402 240.904 197.242 241.218 197.013C241.883 196.38 242.3 195.531 242.393 194.619L243.6 187.671L245.168 187.937L243.945 194.885C243.886 195.534 243.698 196.164 243.391 196.739C243.084 197.315 242.665 197.823 242.158 198.233C241.671 198.566 241.12 198.794 240.54 198.905C239.96 199.015 239.364 199.005 238.788 198.875C238.208 198.805 237.648 198.614 237.146 198.315C236.644 198.016 236.21 197.615 235.873 197.138C235.53 196.582 235.303 195.963 235.206 195.318C235.109 194.672 235.144 194.014 235.309 193.382L236.515 186.435L237.957 186.701Z" fill="#002177"/>
<path d="M253.708 196.935L248.535 197.044L247.61 199.783H246.043L250.087 188.172H251.795L256.388 199.626H254.82L253.708 196.935ZM253.253 195.761L250.965 189.862L248.943 195.855L253.253 195.761Z" fill="#002177"/>
<path d="M265.324 197.874L261.342 193.789L259.775 194.134L260.747 198.828L259.179 199.141L256.812 187.624L260.606 186.841C261.654 186.547 262.776 186.665 263.74 187.17C264.457 187.691 264.967 188.446 265.182 189.304C265.397 190.162 265.303 191.069 264.916 191.865C264.433 192.614 263.7 193.168 262.847 193.429L267.048 197.561L265.324 197.874ZM259.493 193.054L261.671 192.6C263.364 192.256 264.054 191.333 263.756 189.862C263.458 188.391 262.455 187.812 260.778 188.172L258.599 188.625L259.493 193.054Z" fill="#002177"/>
<path d="M275.321 191.567L270.509 193.492L270.603 196.387L269.036 196.997L268.801 184.65L270.368 184.024L278.691 193.132L277.124 193.726L275.321 191.567ZM274.475 190.628L270.274 185.934L270.478 192.193L274.475 190.628Z" fill="#002177"/>
<path d="M289.068 186.716L287.798 187.545L277.594 183.085L282.673 190.91L281.387 191.739L274.961 181.912L276.246 181.082L286.45 185.542L281.372 177.718L282.641 176.889L289.068 186.716Z" fill="#002177"/>
<path d="M289.116 170.802L289.963 171.709L287.533 173.978L294.759 181.646L293.646 182.695L286.42 175.027L284.007 177.296L283.16 176.404L289.116 170.802Z" fill="#002177"/>
<path d="M291.529 169.722L294.664 172.194L297.438 168.689L298.394 169.393L295.62 172.914L298.849 175.449L301.984 171.537L302.956 172.304L298.927 177.405L289.68 170.129L293.692 165.043L294.664 165.81L291.529 169.722Z" fill="#002177"/>
<path d="M296.154 163.259L299.649 165.247L301.875 161.381L302.894 161.96L300.653 165.841L304.226 167.876L306.703 163.572L307.769 164.183L304.54 169.8L294.32 163.963L297.565 158.33L298.631 158.94L296.154 163.259Z" fill="#002177"/>
<path d="M150.211 150.521L336.732 85.2988L325.761 108.052L349.397 119.412L162.249 184.854L173.879 160.74L150.211 150.521Z" fill="#002177"/>
<path d="M212.988 141.038L217.455 153.745L215.793 154.324L213.756 148.471L207.282 150.74L209.351 156.624L207.705 157.203L203.238 144.465L204.806 143.886L206.749 149.394L213.223 147.141L211.279 141.633L212.988 141.038Z" fill="white"/>
<path d="M226.531 147.298L220.935 149.254V152.572L219.164 153.198L219.493 139.114L221.358 138.457L230.449 149.301L228.678 149.927L226.531 147.298ZM225.622 146.172L221.029 140.57V147.815L225.622 146.172Z" fill="white"/>
<path d="M231.92 142.963L233.722 148.096L232.155 148.659L227.688 135.937L231.731 134.513C232.884 134.015 234.183 133.971 235.368 134.388C235.861 134.625 236.299 134.962 236.655 135.377C237.011 135.792 237.277 136.275 237.437 136.798C237.633 137.3 237.722 137.839 237.698 138.378C237.674 138.917 237.537 139.445 237.296 139.927C236.626 140.971 235.593 141.729 234.396 142.056L231.92 142.963ZM235.697 139.411C235.943 138.76 235.953 138.042 235.723 137.385C235.494 136.727 235.041 136.17 234.443 135.812C233.661 135.553 232.811 135.598 232.061 135.937L229.804 136.735L231.496 141.586L233.769 140.804C234.565 140.6 235.254 140.102 235.697 139.411Z" fill="white"/>
<path d="M242.252 139.348L244.054 144.481L242.487 145.06L238.02 132.322L241.969 130.898C243.122 130.396 244.425 130.357 245.606 130.789C246.101 131.021 246.54 131.356 246.894 131.771C247.248 132.187 247.509 132.674 247.659 133.199C247.865 133.699 247.959 134.239 247.934 134.779C247.91 135.32 247.768 135.848 247.518 136.328C246.859 137.375 245.829 138.135 244.634 138.457L242.252 139.348ZM245.966 135.796C246.214 135.143 246.223 134.424 245.991 133.765C245.758 133.106 245.3 132.551 244.697 132.197C243.92 131.938 243.074 131.983 242.33 132.322L240.057 133.12L241.766 137.971L244.023 137.189C244.823 136.985 245.516 136.487 245.966 135.796Z" fill="white"/>
<path d="M249.915 128.129L254.383 140.867L252.815 141.446L248.238 128.708L249.915 128.129Z" fill="white"/>
<path d="M266.92 136.532L265.353 137.111L255.211 129.287L258.738 139.348L257.092 139.927L252.547 127.143L254.114 126.579L264.271 134.404L260.776 124.326L262.343 123.747L266.92 136.532Z" fill="white"/>
<path d="M267.218 123.591L268.785 127.941L273.628 126.235L274.083 127.503L269.224 129.193L270.791 133.637L276.136 131.837L276.606 133.167L269.569 135.624L265.102 122.902L272.139 120.445L272.609 121.775L267.218 123.591Z" fill="white"/>
<path d="M285.855 128.066C285.734 128.712 285.429 129.31 284.977 129.788C284.426 130.369 283.736 130.8 282.971 131.04C282.201 131.327 281.376 131.44 280.557 131.368C279.832 131.308 279.135 131.06 278.535 130.648C277.956 130.262 277.5 129.719 277.219 129.084L278.974 128.473C279.156 128.855 279.428 129.186 279.766 129.44C280.105 129.693 280.5 129.861 280.918 129.929C281.445 130.018 281.986 129.964 282.485 129.772C282.793 129.687 283.081 129.54 283.332 129.341C283.582 129.142 283.79 128.895 283.943 128.614C284.056 128.347 284.114 128.059 284.114 127.769C284.114 127.479 284.056 127.192 283.943 126.924C283.802 126.461 283.495 126.065 283.081 125.813C282.696 125.575 282.261 125.431 281.811 125.391C281.2 125.348 280.588 125.348 279.977 125.391C279.241 125.436 278.503 125.436 277.767 125.391C277.203 125.316 276.665 125.107 276.2 124.78C275.558 124.344 275.092 123.696 274.883 122.949C274.69 122.328 274.69 121.662 274.883 121.04C274.995 120.391 275.301 119.791 275.761 119.319C276.323 118.797 276.991 118.402 277.72 118.161C278.771 117.721 279.946 117.676 281.027 118.036C281.944 118.36 282.697 119.028 283.128 119.898L281.356 120.524C281.068 120.041 280.627 119.667 280.103 119.46C279.488 119.217 278.805 119.217 278.19 119.46C277.6 119.629 277.096 120.015 276.78 120.54C276.64 120.791 276.559 121.071 276.542 121.358C276.526 121.645 276.575 121.933 276.686 122.198C276.816 122.642 277.106 123.021 277.501 123.262C277.874 123.483 278.291 123.617 278.723 123.654C279.162 123.654 279.758 123.654 280.51 123.654C281.262 123.601 282.016 123.601 282.767 123.654C283.334 123.737 283.872 123.957 284.335 124.295C284.916 124.741 285.339 125.36 285.541 126.063C285.843 126.685 285.952 127.382 285.855 128.066Z" fill="white"/>
<path d="M296.06 124.467C295.936 125.112 295.632 125.709 295.183 126.189C294.625 126.769 293.929 127.199 293.161 127.44C292.391 127.728 291.566 127.84 290.747 127.769C290.031 127.73 289.337 127.515 288.725 127.143C288.153 126.749 287.698 126.209 287.408 125.578L289.164 124.952C289.334 125.318 289.586 125.639 289.9 125.891C290.253 126.164 290.668 126.347 291.107 126.423C291.636 126.508 292.177 126.448 292.675 126.251C292.983 126.166 293.271 126.019 293.522 125.82C293.772 125.621 293.98 125.374 294.132 125.093C294.249 124.83 294.31 124.544 294.31 124.256C294.31 123.968 294.249 123.682 294.132 123.419C293.987 122.958 293.688 122.561 293.286 122.292C292.899 122.059 292.466 121.915 292.016 121.87C291.4 121.835 290.783 121.835 290.167 121.87C289.431 121.914 288.693 121.914 287.957 121.87C287.392 121.79 286.854 121.575 286.389 121.244C285.78 120.762 285.364 120.08 285.214 119.319C284.975 118.709 284.924 118.041 285.07 117.402C285.215 116.763 285.549 116.183 286.029 115.735C286.595 115.23 287.263 114.851 287.988 114.624C289.04 114.192 290.21 114.143 291.295 114.484C292.215 114.81 292.97 115.484 293.396 116.361L291.625 116.972C291.337 116.493 290.903 116.12 290.386 115.908C289.766 115.666 289.078 115.666 288.458 115.908C287.878 116.086 287.378 116.463 287.048 116.972C286.908 117.226 286.826 117.508 286.81 117.798C286.794 118.088 286.843 118.378 286.954 118.646C287.093 119.085 287.381 119.461 287.769 119.71C288.145 119.921 288.562 120.049 288.991 120.086C289.592 120.12 290.193 120.12 290.794 120.086C291.54 120.042 292.289 120.042 293.035 120.086C293.636 120.162 294.207 120.388 294.697 120.743C295.276 121.184 295.699 121.798 295.904 122.496C296.138 123.126 296.192 123.808 296.06 124.467Z" fill="white"/>
</svg>
