<svg width="21" height="19" viewBox="0 0 21 19" fill="none" xmlns="http://www.w3.org/2000/svg">
<path d="M20.5537 2.72932C19.8085 3.09174 19.0145 3.33197 18.1867 3.44861C19.0383 2.88484 19.6883 1.99893 19.9939 0.931101C19.1999 1.45599 18.3232 1.82674 17.3889 2.03364C16.635 1.14355 15.5605 0.592285 14.3882 0.592285C12.1139 0.592285 10.2829 2.63906 10.2829 5.14824C10.2829 5.50928 10.3105 5.85642 10.3781 6.18691C6.96287 6.00223 3.94088 4.18734 1.91078 1.42266C1.55635 2.10446 1.34846 2.88484 1.34846 3.72494C1.34846 5.30238 2.0811 6.70069 3.17317 7.51023C2.51317 7.49635 1.86569 7.28389 1.31715 6.94924C1.31715 6.96313 1.31715 6.98118 1.31715 6.99923C1.31715 9.21264 2.7411 11.0511 4.6084 11.4747C4.27401 11.576 3.90957 11.6246 3.53135 11.6246C3.26835 11.6246 3.00285 11.608 2.75363 11.5469C3.28589 13.3506 4.79626 14.6767 6.59217 14.7198C5.19451 15.932 3.41989 16.6624 1.49874 16.6624C1.16185 16.6624 0.838739 16.6458 0.515625 16.5999C2.33533 17.901 4.49193 18.6439 6.8176 18.6439C14.377 18.6439 18.5098 11.701 18.5098 5.68285C18.5098 5.4815 18.5035 5.2871 18.4948 5.09409C19.3101 4.45256 19.9951 3.65135 20.5537 2.72932Z" fill="#353535"/>
</svg>
