<svg width="19" height="16" viewBox="0 0 19 16" fill="none" xmlns="http://www.w3.org/2000/svg">
<path d="M18.291 2.41764C17.6413 2.71122 16.949 2.90582 16.2273 3.0003C16.9698 2.54362 17.5365 1.82598 17.8029 0.960983C17.1106 1.38617 16.3463 1.6865 15.5317 1.8541C14.8744 1.13308 13.9375 0.686523 12.9155 0.686523C10.9326 0.686523 9.33618 2.34453 9.33618 4.3771C9.33618 4.66956 9.36021 4.95077 9.41917 5.21848C6.44151 5.06887 3.80671 3.59872 2.03671 1.35917C1.7277 1.91147 1.54644 2.54362 1.54644 3.22415C1.54644 4.50196 2.18521 5.63466 3.13736 6.29044C2.56192 6.27919 1.9974 6.10709 1.51914 5.83601C1.51914 5.84726 1.51914 5.86188 1.51914 5.8765C1.51914 7.66949 2.76065 9.15877 4.3887 9.50184C4.09716 9.58395 3.77941 9.62332 3.44965 9.62332C3.22035 9.62332 2.98886 9.60982 2.77157 9.56033C3.23564 11.0215 4.55249 12.0957 6.1183 12.1306C4.89972 13.1126 3.35247 13.7042 1.67747 13.7042C1.38374 13.7042 1.10203 13.6907 0.820312 13.6536C2.40687 14.7076 4.28715 15.3094 6.31485 15.3094C12.9057 15.3094 16.509 9.68519 16.509 4.81016C16.509 4.64706 16.5035 4.48958 16.4959 4.33323C17.2067 3.81356 17.804 3.16453 18.291 2.41764Z" fill="#6F7C82"/>
</svg>
