<svg width="17" height="15" viewBox="0 0 17 15" fill="none" xmlns="http://www.w3.org/2000/svg">
<path d="M17.0032 2.18534C16.3898 2.46355 15.7361 2.64795 15.0547 2.73748C15.7557 2.30473 16.2908 1.62468 16.5424 0.805002C15.8887 1.20791 15.1671 1.49251 14.398 1.65133C13.7773 0.968085 12.8928 0.544922 11.9278 0.544922C10.0555 0.544922 8.54828 2.11606 8.54828 4.04215C8.54828 4.31928 8.57097 4.58576 8.62664 4.83944C5.8152 4.69768 3.32749 3.30454 1.6563 1.18233C1.36454 1.70569 1.1934 2.30473 1.1934 2.9496C1.1934 4.16046 1.79651 5.23382 2.69551 5.85525C2.1522 5.84459 1.61919 5.6815 1.16763 5.42462C1.16763 5.43528 1.16763 5.44914 1.16763 5.46299C1.16763 7.16204 2.33983 8.57329 3.877 8.89839C3.60173 8.97621 3.30172 9.01351 2.99037 9.01351C2.77387 9.01351 2.5553 9.00072 2.35014 8.95382C2.7883 10.3384 4.03164 11.3564 5.51004 11.3894C4.35949 12.3199 2.89861 12.8806 1.31712 12.8806C1.03979 12.8806 0.773801 12.8678 0.507812 12.8326C2.0058 13.8314 3.78112 14.4016 5.69561 14.4016C11.9185 14.4016 15.3207 9.07214 15.3207 4.45252C15.3207 4.29796 15.3155 4.14874 15.3083 4.00058C15.9795 3.50813 16.5434 2.8931 17.0032 2.18534Z" fill="#6F7C82"/>
</svg>
