<svg width="19" height="18" viewBox="0 0 19 18" fill="none" xmlns="http://www.w3.org/2000/svg">
<path d="M13.0729 11.181H12.2699L11.9853 10.9065C12.9814 9.74779 13.5811 8.24344 13.5811 6.60695C13.5811 2.95788 10.6232 0 6.97414 0C3.32507 0 0.367188 2.95788 0.367188 6.60695C0.367188 10.256 3.32507 13.2139 6.97414 13.2139C8.61063 13.2139 10.115 12.6142 11.2737 11.6181L11.5482 11.9027V12.7057L16.6304 17.7778L18.145 16.2633L13.0729 11.181V11.181ZM6.97414 11.181C4.44317 11.181 2.4001 9.13792 2.4001 6.60695C2.4001 4.07598 4.44317 2.03291 6.97414 2.03291C9.50511 2.03291 11.5482 4.07598 11.5482 6.60695C11.5482 9.13792 9.50511 11.181 6.97414 11.181Z" fill="#666666"/>
</svg>
