<svg width="17" height="15" viewBox="0 0 17 15" fill="none" xmlns="http://www.w3.org/2000/svg">
<path d="M17.0032 2.1851C16.3898 2.4633 15.7361 2.6477 15.0547 2.73724C15.7557 2.30448 16.2908 1.62444 16.5424 0.804758C15.8887 1.20767 15.1671 1.49226 14.398 1.65108C13.7773 0.967841 12.8928 0.544678 11.9278 0.544678C10.0555 0.544678 8.54828 2.11582 8.54828 4.0419C8.54828 4.31904 8.57097 4.58551 8.62664 4.8392C5.8152 4.69743 3.32749 3.3043 1.6563 1.18209C1.36454 1.70544 1.1934 2.30448 1.1934 2.94935C1.1934 4.16022 1.79651 5.23358 2.69551 5.855C2.1522 5.84434 1.61919 5.68126 1.16763 5.42438C1.16763 5.43504 1.16763 5.44889 1.16763 5.46275C1.16763 7.1618 2.33983 8.57305 3.877 8.89815C3.60173 8.97596 3.30172 9.01327 2.99037 9.01327C2.77387 9.01327 2.5553 9.00048 2.35014 8.95358C2.7883 10.3382 4.03164 11.3561 5.51004 11.3892C4.35949 12.3197 2.89861 12.8804 1.31712 12.8804C1.03979 12.8804 0.773801 12.8676 0.507812 12.8324C2.0058 13.8311 3.78112 14.4014 5.69561 14.4014C11.9185 14.4014 15.3207 9.07189 15.3207 4.45227C15.3207 4.29772 15.3155 4.14849 15.3083 4.00033C15.9795 3.50788 16.5434 2.89286 17.0032 2.1851Z" fill="#6F7C82"/>
</svg>
