<svg width="15" height="16" viewBox="0 0 15 16" fill="none" xmlns="http://www.w3.org/2000/svg">
<path d="M3.85884 5.38477H1.00289C0.876142 5.38477 0.773438 5.49061 0.773438 5.62114V15.0726C0.773438 15.2032 0.876142 15.309 1.00289 15.309H3.85884C3.98559 15.309 4.08829 15.2032 4.08829 15.0726V5.62114C4.08829 5.49061 3.98559 5.38477 3.85884 5.38477Z" fill="#6F7C82"/>
<path d="M2.43144 0.686523C1.39228 0.686523 0.546875 1.55647 0.546875 2.62577C0.546875 3.69554 1.39228 4.56582 2.43144 4.56582C3.46977 4.56582 4.31449 3.69549 4.31449 2.62577C4.31454 1.55647 3.46977 0.686523 2.43144 0.686523Z" fill="#6F7C82"/>
<path d="M11.1173 5.15088C9.97027 5.15088 9.12234 5.65884 8.60804 6.23602V5.62216C8.60804 5.49163 8.50533 5.38579 8.37858 5.38579H5.64352C5.51677 5.38579 5.41406 5.49163 5.41406 5.62216V15.0736C5.41406 15.2042 5.51677 15.31 5.64352 15.31H8.49322C8.61997 15.31 8.72267 15.2042 8.72267 15.0736V10.3973C8.72267 8.82155 9.13817 8.20764 10.2045 8.20764C11.3658 8.20764 11.4581 9.1918 11.4581 10.4784V15.0737C11.4581 15.2043 11.5608 15.3101 11.6876 15.3101H14.5383C14.6651 15.3101 14.7678 15.2043 14.7678 15.0737V9.88938C14.7678 7.54623 14.3341 5.15088 11.1173 5.15088Z" fill="#6F7C82"/>
</svg>
