<svg width="18" height="19" viewBox="0 0 18 19" fill="none" xmlns="http://www.w3.org/2000/svg">
<path d="M4.68724 6.3916H1.41161C1.26623 6.3916 1.14844 6.52227 1.14844 6.6834V18.3511C1.14844 18.5123 1.26623 18.6429 1.41161 18.6429H4.68724C4.83262 18.6429 4.95042 18.5123 4.95042 18.3511V6.6834C4.95042 6.52227 4.83262 6.3916 4.68724 6.3916Z" fill="#353535"/>
<path d="M3.05213 0.592285C1.86027 0.592285 0.890625 1.66622 0.890625 2.98625C0.890625 4.30687 1.86027 5.38121 3.05213 5.38121C4.24305 5.38121 5.2119 4.30681 5.2119 2.98625C5.21195 1.66622 4.24305 0.592285 3.05213 0.592285Z" fill="#353535"/>
<path d="M13.0179 6.10303C11.7023 6.10303 10.7298 6.7301 10.1399 7.44261V6.68481C10.1399 6.52368 10.0221 6.39302 9.87672 6.39302H6.73974C6.59436 6.39302 6.47656 6.52368 6.47656 6.68481V18.3525C6.47656 18.5137 6.59436 18.6443 6.73974 18.6443H10.0082C10.1536 18.6443 10.2714 18.5137 10.2714 18.3525V12.5797C10.2714 10.6344 10.7479 9.87655 11.971 9.87655C13.3029 9.87655 13.4088 11.0915 13.4088 12.6798V18.3526C13.4088 18.5138 13.5266 18.6444 13.672 18.6444H16.9416C17.087 18.6444 17.2048 18.5138 17.2048 18.3526V11.9526C17.2048 9.06005 16.7074 6.10303 13.0179 6.10303Z" fill="#353535"/>
</svg>
