<svg width="14" height="15" viewBox="0 0 14 15" fill="none" xmlns="http://www.w3.org/2000/svg">
<path d="M3.49128 4.99707H0.794771C0.675096 4.99707 0.578125 5.09737 0.578125 5.22106V14.1774C0.578125 14.3011 0.675096 14.4014 0.794771 14.4014H3.49128C3.61096 14.4014 3.70793 14.3011 3.70793 14.1774V5.22106C3.70793 5.09737 3.61096 4.99707 3.49128 4.99707Z" fill="#6F7C82"/>
<path d="M2.14655 0.544922C1.1654 0.544922 0.367188 1.36929 0.367188 2.38257C0.367188 3.39629 1.1654 4.22098 2.14655 4.22098C3.12691 4.22098 3.92447 3.39625 3.92447 2.38257C3.92452 1.36929 3.12691 0.544922 2.14655 0.544922Z" fill="#6F7C82"/>
<path d="M10.3536 4.7749C9.2706 4.7749 8.47001 5.25625 7.98442 5.80319V5.22149C7.98442 5.0978 7.88745 4.9975 7.76777 4.9975H5.1854C5.06572 4.9975 4.96875 5.0978 4.96875 5.22149V14.1778C4.96875 14.3015 5.06572 14.4018 5.1854 14.4018H7.87601C7.99569 14.4018 8.09266 14.3015 8.09266 14.1778V9.7465C8.09266 8.25326 8.48496 7.67152 9.49176 7.67152C10.5882 7.67152 10.6754 8.60412 10.6754 9.82333V14.1778C10.6754 14.3016 10.7724 14.4018 10.892 14.4018H13.5836C13.7033 14.4018 13.8003 14.3016 13.8003 14.1778V9.26515C13.8003 7.04476 13.3908 4.7749 10.3536 4.7749Z" fill="#6F7C82"/>
</svg>
